<?xml version="1.0" encoding="UTF-8" standalone="no"?>
<!DOCTYPE svg PUBLIC "-//W3C//DTD SVG 1.1//EN"
 "http://www.w3.org/Graphics/SVG/1.1/DTD/svg11.dtd">
<!-- Generated by graphviz version 2.43.0 (0)
 -->
<!-- Title: %3 Pages: 1 -->
<svg width="406pt" height="509pt"
 viewBox="0.00 0.00 406.00 509.00" xmlns="http://www.w3.org/2000/svg" xmlns:xlink="http://www.w3.org/1999/xlink">
<g id="graph0" class="graph" transform="scale(1 1) rotate(0) translate(4 505)">
<title>%3</title>
<polygon fill="#080818" stroke="transparent" points="-4,4 -4,-505 402,-505 402,4 -4,4"/>
<!-- seg -->
<g id="node1" class="node">
<title>seg</title>
<polygon fill="#001520" stroke="#00ffff" stroke-width="2" points="362.5,-501 147.5,-501 147.5,-460 362.5,-460 362.5,-501"/>
<text text-anchor="middle" x="255" y="-489" font-family="monospace" font-size="10.00" fill="#00ffff">Segment arrives</text>
<text text-anchor="middle" x="255" y="-478" font-family="monospace" font-size="10.00" fill="#00ffff">from generator</text>
<text text-anchor="middle" x="255" y="-467" font-family="monospace" font-size="10.00" fill="#00ffff">(streaming — not waiting for all)</text>
</g>
<!-- wrap -->
<g id="node2" class="node">
<title>wrap</title>
<polygon fill="#0d0d0d" stroke="#ff6600" stroke-width="2" points="161,-423 0,-382 161,-341 322,-382 161,-423"/>
<text text-anchor="middle" x="161" y="-390.5" font-family="monospace" font-size="10.00" fill="#ff6600">col + len(w) + 12 &gt; 100?</text>
<text text-anchor="middle" x="161" y="-379.5" font-family="monospace" font-size="10.00" fill="#ff6600">→ </text>
<text text-anchor="middle" x="161" y="-368.5" font-family="monospace" font-size="10.00" fill="#ff6600"> + reset col=0</text>
</g>
<!-- seg&#45;&gt;wrap -->
<g id="edge1" class="edge">
<title>seg&#45;&gt;wrap</title>
<path fill="none" stroke="#00ffff" stroke-width="1.5" d="M235.98,-459.97C225.57,-449.29 212.29,-435.66 199.81,-422.84"/>
<polygon fill="#00ffff" stroke="#00ffff" stroke-width="1.5" points="202.06,-420.14 192.58,-415.42 197.05,-425.02 202.06,-420.14"/>
</g>
<!-- ph -->
<g id="node3" class="node">
<title>ph</title>
<polygon fill="#0d0d0d" stroke="#555555" stroke-width="2" points="295.5,-285 146.5,-285 146.5,-249 295.5,-249 295.5,-285"/>
<text text-anchor="middle" x="221" y="-270" font-family="monospace" font-size="10.00" fill="#555555">write placeholder:</text>
<text text-anchor="middle" x="221" y="-259" font-family="monospace" font-size="10.00" fill="#555555">033[2m____033[0m¹²·³ˢ </text>
</g>
<!-- wrap&#45;&gt;ph -->
<g id="edge2" class="edge">
<title>wrap&#45;&gt;ph</title>
<path fill="none" stroke="#555555" stroke-width="1.5" d="M154.11,-342.47C153.59,-329.19 155.22,-314.73 162,-303 164.48,-298.71 167.71,-294.9 171.37,-291.51"/>
<polygon fill="#555555" stroke="#555555" stroke-width="1.5" points="173.75,-294.09 179.43,-285.15 169.41,-288.6 173.75,-294.09"/>
<text text-anchor="middle" x="180.5" y="-310.8" font-family="monospace" font-size="9.00">no wrap</text>
</g>
<!-- wrap&#45;&gt;ph -->
<g id="edge3" class="edge">
<title>wrap&#45;&gt;ph</title>
<path fill="none" stroke="#ff6600" stroke-width="1.5" d="M184.87,-347.03C189.84,-339.3 194.83,-331.01 199,-323 203.68,-314.02 208.01,-303.82 211.57,-294.66"/>
<polygon fill="#ff6600" stroke="#ff6600" stroke-width="1.5" points="214.87,-295.83 215.11,-285.24 208.32,-293.37 214.87,-295.83"/>
<text text-anchor="middle" x="224" y="-315.8" font-family="monospace" font-size="9.00">wrap: </text>
<text text-anchor="middle" x="224" y="-305.8" font-family="monospace" font-size="9.00"> first</text>
</g>
<!-- anim -->
<g id="node4" class="node">
<title>anim</title>
<polygon fill="#0a001a" stroke="#ff00ff" stroke-width="2" points="320.5,-212 135.5,-212 135.5,-160 320.5,-160 320.5,-212"/>
<text text-anchor="middle" x="228" y="-200" font-family="monospace" font-size="10.00" fill="#ff00ff">animate_word(w, prob, start)</text>
<text text-anchor="middle" x="228" y="-189" font-family="monospace" font-size="10.00" fill="#ff00ff">→ scramble frames</text>
<text text-anchor="middle" x="228" y="-178" font-family="monospace" font-size="10.00" fill="#ff00ff">→ cursor&#45;left</text>
<text text-anchor="middle" x="228" y="-167" font-family="monospace" font-size="10.00" fill="#ff00ff">→ snap to real word</text>
</g>
<!-- ph&#45;&gt;anim -->
<g id="edge4" class="edge">
<title>ph&#45;&gt;anim</title>
<path fill="none" stroke="#ff00ff" stroke-width="1.5" d="M222.52,-248.86C223.21,-241.08 224.05,-231.57 224.87,-222.37"/>
<polygon fill="#ff00ff" stroke="#ff00ff" stroke-width="1.5" points="228.37,-222.48 225.77,-212.21 221.4,-221.86 228.37,-222.48"/>
</g>
<!-- adv -->
<g id="node5" class="node">
<title>adv</title>
<polygon fill="#001500" stroke="#ccff00" stroke-width="2" points="391.5,-123 188.5,-123 188.5,-87 391.5,-87 391.5,-123"/>
<text text-anchor="middle" x="290" y="-102.5" font-family="monospace" font-size="10.00" fill="#ccff00">col += len(w) + len(ts_raw) + 1</text>
</g>
<!-- anim&#45;&gt;adv -->
<g id="edge5" class="edge">
<title>anim&#45;&gt;adv</title>
<path fill="none" stroke="#ccff00" stroke-width="1.5" d="M247.96,-159.57C255.11,-150.45 263.17,-140.18 270.3,-131.1"/>
<polygon fill="#ccff00" stroke="#ccff00" stroke-width="1.5" points="273.12,-133.18 276.54,-123.15 267.61,-128.85 273.12,-133.18"/>
</g>
<!-- adv&#45;&gt;seg -->
<g id="edge6" class="edge">
<title>adv&#45;&gt;seg</title>
<path fill="none" stroke="#00ffff" stroke-width="1.5" d="M313.37,-123C330.22,-137.39 350,-159.68 350,-185 350,-383 350,-383 350,-383 350,-413.39 325.78,-437.69 301.8,-454.31"/>
<polygon fill="#00ffff" stroke="#00ffff" stroke-width="1.5" points="299.79,-451.44 293.37,-459.86 303.64,-457.28 299.79,-451.44"/>
<text text-anchor="middle" x="374" y="-264.8" font-family="monospace" font-size="9.00">next word</text>
</g>
<!-- nl -->
<g id="node6" class="node">
<title>nl</title>
<polygon fill="#0d0d0d" stroke="#555555" stroke-width="2" points="364.5,-41 215.5,-41 215.5,0 364.5,0 364.5,-41"/>
<text text-anchor="middle" x="290" y="-29" font-family="monospace" font-size="10.00" fill="#555555">sys.stdout.write(&#39;</text>
<text text-anchor="middle" x="290" y="-18" font-family="monospace" font-size="10.00" fill="#555555">&#39;)</text>
<text text-anchor="middle" x="290" y="-7" font-family="monospace" font-size="10.00" fill="#555555">at end of all segments</text>
</g>
<!-- adv&#45;&gt;nl -->
<g id="edge7" class="edge">
<title>adv&#45;&gt;nl</title>
<path fill="none" stroke="#555555" stroke-width="1.5" d="M290,-86.91C290,-76.61 290,-63.22 290,-51.24"/>
<polygon fill="#555555" stroke="#555555" stroke-width="1.5" points="293.5,-51.18 290,-41.18 286.5,-51.18 293.5,-51.18"/>
<text text-anchor="middle" x="311.5" y="-61.8" font-family="monospace" font-size="9.00">all done</text>
</g>
</g>
</svg>
