<?xml version="1.0" encoding="UTF-8" standalone="no"?>
<!DOCTYPE svg PUBLIC "-//W3C//DTD SVG 1.1//EN"
 "http://www.w3.org/Graphics/SVG/1.1/DTD/svg11.dtd">
<!-- Generated by graphviz version 2.43.0 (0)
 -->
<!-- Title: %3 Pages: 1 -->
<svg width="434pt" height="224pt"
 viewBox="0.00 0.00 433.50 224.00" xmlns="http://www.w3.org/2000/svg" xmlns:xlink="http://www.w3.org/1999/xlink">
<g id="graph0" class="graph" transform="scale(1 1) rotate(0) translate(4 220)">
<title>%3</title>
<polygon fill="#0f0f0f" stroke="transparent" points="-4,4 -4,-220 429.5,-220 429.5,4 -4,4"/>
<!-- fn -->
<g id="node1" class="node">
<title>fn</title>
<polygon fill="#001520" stroke="#00ffff" stroke-width="2" points="278.5,-126 153.5,-126 153.5,-90 278.5,-90 278.5,-126"/>
<text text-anchor="middle" x="216" y="-105.2" font-family="monospace" font-size="11.00" fill="#00ffff">word_color(prob)</text>
</g>
<!-- p92 -->
<g id="node2" class="node">
<title>p92</title>
<polygon fill="#1a1a1a" stroke="#e0e0e0" stroke-width="2" points="98,-44 0,-44 0,0 98,0 98,-44"/>
<text text-anchor="middle" x="49" y="-31.2" font-family="monospace" font-size="11.00" fill="#e0e0e0">prob ≥ 0.92</text>
<text text-anchor="middle" x="49" y="-19.2" font-family="monospace" font-size="11.00" fill="#e0e0e0">033[97m</text>
<text text-anchor="middle" x="49" y="-7.2" font-family="monospace" font-size="11.00" fill="#e0e0e0">bright white</text>
</g>
<!-- fn&#45;&gt;p92 -->
<g id="edge1" class="edge">
<title>fn&#45;&gt;p92</title>
<path fill="none" stroke="#e0e0e0" stroke-width="1.5" d="M153.28,-92.87C136.33,-87.66 118.43,-80.81 103,-72 93.34,-66.48 83.94,-58.98 75.77,-51.5"/>
<polygon fill="#e0e0e0" stroke="#e0e0e0" stroke-width="1.5" points="77.99,-48.78 68.34,-44.4 73.16,-53.84 77.99,-48.78"/>
<text text-anchor="middle" x="142.5" y="-64.8" font-family="monospace" font-size="9.00">high confidence</text>
</g>
<!-- p75 -->
<g id="node3" class="node">
<title>p75</title>
<polygon fill="#0d0d0d" stroke="#e0e0e0" stroke-width="2" points="207.5,-44 116.5,-44 116.5,0 207.5,0 207.5,-44"/>
<text text-anchor="middle" x="162" y="-31.2" font-family="monospace" font-size="11.00" fill="#e0e0e0">prob ≥ 0.75</text>
<text text-anchor="middle" x="162" y="-19.2" font-family="monospace" font-size="11.00" fill="#e0e0e0">033[0m</text>
<text text-anchor="middle" x="162" y="-7.2" font-family="monospace" font-size="11.00" fill="#e0e0e0">normal</text>
</g>
<!-- fn&#45;&gt;p75 -->
<g id="edge2" class="edge">
<title>fn&#45;&gt;p75</title>
<path fill="none" stroke="#e0e0e0" stroke-width="1.5" d="M203.24,-89.76C199.22,-84.16 194.83,-77.88 191,-72 187.09,-65.99 183.06,-59.45 179.3,-53.16"/>
<polygon fill="#e0e0e0" stroke="#e0e0e0" stroke-width="1.5" points="182.12,-51.06 174.03,-44.23 176.09,-54.62 182.12,-51.06"/>
<text text-anchor="middle" x="220" y="-64.8" font-family="monospace" font-size="9.00">medium&#45;high</text>
</g>
<!-- p50 -->
<g id="node4" class="node">
<title>p50</title>
<polygon fill="#1a1a00" stroke="#ffff00" stroke-width="2" points="316.5,-44 225.5,-44 225.5,0 316.5,0 316.5,-44"/>
<text text-anchor="middle" x="271" y="-31.2" font-family="monospace" font-size="11.00" fill="#ffff00">prob ≥ 0.50</text>
<text text-anchor="middle" x="271" y="-19.2" font-family="monospace" font-size="11.00" fill="#ffff00">033[33m</text>
<text text-anchor="middle" x="271" y="-7.2" font-family="monospace" font-size="11.00" fill="#ffff00">yellow</text>
</g>
<!-- fn&#45;&gt;p50 -->
<g id="edge3" class="edge">
<title>fn&#45;&gt;p50</title>
<path fill="none" stroke="#ffff00" stroke-width="1.5" d="M234.36,-89.82C239.51,-84.43 244.82,-78.25 249,-72 252.74,-66.4 256.12,-60.07 259.05,-53.85"/>
<polygon fill="#ffff00" stroke="#ffff00" stroke-width="1.5" points="262.42,-54.87 263.26,-44.31 256.02,-52.05 262.42,-54.87"/>
<text text-anchor="middle" x="279" y="-64.8" font-family="monospace" font-size="9.00">uncertain</text>
</g>
<!-- plo -->
<g id="node5" class="node">
<title>plo</title>
<polygon fill="#1a0000" stroke="#ff2244" stroke-width="2" points="425.5,-44 334.5,-44 334.5,0 425.5,0 425.5,-44"/>
<text text-anchor="middle" x="380" y="-31.2" font-family="monospace" font-size="11.00" fill="#ff2244">prob &lt; 0.50</text>
<text text-anchor="middle" x="380" y="-19.2" font-family="monospace" font-size="11.00" fill="#ff2244">033[31m</text>
<text text-anchor="middle" x="380" y="-7.2" font-family="monospace" font-size="11.00" fill="#ff2244">red</text>
</g>
<!-- fn&#45;&gt;plo -->
<g id="edge4" class="edge">
<title>fn&#45;&gt;plo</title>
<path fill="none" stroke="#ff2244" stroke-width="1.5" d="M266.48,-89.89C279.91,-84.72 294.23,-78.63 307,-72 319.3,-65.61 332.07,-57.58 343.42,-49.89"/>
<polygon fill="#ff2244" stroke="#ff2244" stroke-width="1.5" points="345.55,-52.66 351.79,-44.1 341.57,-46.91 345.55,-52.66"/>
<text text-anchor="middle" x="361" y="-64.8" font-family="monospace" font-size="9.00">low confidence</text>
</g>
<!-- frames -->
<g id="node6" class="node">
<title>frames</title>
<polygon fill="#0a001a" stroke="#ff00ff" stroke-width="2" points="302.5,-216 123.5,-216 123.5,-172 308.5,-172 308.5,-210 302.5,-216"/>
<polyline fill="none" stroke="#ff00ff" stroke-width="2" points="302.5,-216 302.5,-210 "/>
<polyline fill="none" stroke="#ff00ff" stroke-width="2" points="308.5,-210 302.5,-210 "/>
<text text-anchor="middle" x="216" y="-203.2" font-family="monospace" font-size="11.00" fill="#ff00ff">scramble frames:</text>
<text text-anchor="middle" x="216" y="-191.2" font-family="monospace" font-size="11.00" fill="#ff00ff">high prob → fewer (min 1)</text>
<text text-anchor="middle" x="216" y="-179.2" font-family="monospace" font-size="11.00" fill="#ff00ff">low prob &#160;→ more (max 9)</text>
</g>
<!-- frames&#45;&gt;fn -->
<g id="edge5" class="edge">
<title>frames&#45;&gt;fn</title>
<path fill="none" stroke="#ff00ff" stroke-width="1.5" stroke-dasharray="5,2" d="M216,-171.8C216,-161.12 216,-148.04 216,-136.59"/>
<polygon fill="#ff00ff" stroke="#ff00ff" stroke-width="1.5" points="219.5,-136.23 216,-126.23 212.5,-136.23 219.5,-136.23"/>
<text text-anchor="middle" x="248" y="-146.8" font-family="monospace" font-size="9.00">also affects</text>
</g>
</g>
</svg>
