<?xml version="1.0" encoding="UTF-8" standalone="no"?>
<!DOCTYPE svg PUBLIC "-//W3C//DTD SVG 1.1//EN"
 "http://www.w3.org/Graphics/SVG/1.1/DTD/svg11.dtd">
<!-- Generated by graphviz version 2.43.0 (0)
 -->
<!-- Title: %3 Pages: 1 -->
<svg width="495pt" height="466pt"
 viewBox="0.00 0.00 494.50 466.00" xmlns="http://www.w3.org/2000/svg" xmlns:xlink="http://www.w3.org/1999/xlink">
<g id="graph0" class="graph" transform="scale(1 1) rotate(0) translate(4 462)">
<title>%3</title>
<polygon fill="#111827" stroke="transparent" points="-4,4 -4,-462 490.5,-462 490.5,4 -4,4"/>
<!-- calc -->
<g id="node1" class="node">
<title>calc</title>
<polygon fill="#001520" stroke="#00ffff" stroke-width="2" points="418,-458 179,-458 179,-383 418,-383 418,-458"/>
<text text-anchor="middle" x="298.5" y="-446" font-family="monospace" font-size="10.00" fill="#00ffff">frames = max(1, int((1 &#45; prob) × 10))</text>
<text text-anchor="middle" x="298.5" y="-423" font-family="monospace" font-size="10.00" fill="#00ffff">example:</text>
<text text-anchor="middle" x="298.5" y="-412" font-family="monospace" font-size="10.00" fill="#00ffff">prob=0.95 → frames=0 → max → 1</text>
<text text-anchor="middle" x="298.5" y="-401" font-family="monospace" font-size="10.00" fill="#00ffff">prob=0.50 → frames=5</text>
<text text-anchor="middle" x="298.5" y="-390" font-family="monospace" font-size="10.00" fill="#00ffff">prob=0.10 → frames=9</text>
</g>
<!-- back -->
<g id="node2" class="node">
<title>back</title>
<polygon fill="#0a001a" stroke="#ff00ff" stroke-width="2" points="397,-346 200,-346 200,-310 397,-310 397,-346"/>
<text text-anchor="middle" x="298.5" y="-331" font-family="monospace" font-size="10.00" fill="#ff00ff">back = width + len(ts_raw) + 1</text>
<text text-anchor="middle" x="298.5" y="-320" font-family="monospace" font-size="10.00" fill="#ff00ff">(columns to step back)</text>
</g>
<!-- calc&#45;&gt;back -->
<g id="edge1" class="edge">
<title>calc&#45;&gt;back</title>
<path fill="none" stroke="#00ffff" stroke-width="1.5" d="M298.5,-382.95C298.5,-373.98 298.5,-364.54 298.5,-356.11"/>
<polygon fill="#00ffff" stroke="#00ffff" stroke-width="1.5" points="302,-356.07 298.5,-346.07 295,-356.07 302,-356.07"/>
</g>
<!-- loop -->
<g id="node3" class="node">
<title>loop</title>
<polygon fill="#001a00" stroke="#39ff14" stroke-width="2" points="376,-273 221,-273 221,-237 376,-237 376,-273"/>
<text text-anchor="middle" x="298.5" y="-252.5" font-family="monospace" font-size="10.00" fill="#39ff14">for _ in range(frames):</text>
</g>
<!-- back&#45;&gt;loop -->
<g id="edge2" class="edge">
<title>back&#45;&gt;loop</title>
<path fill="none" stroke="#ff00ff" stroke-width="1.5" d="M298.5,-309.81C298.5,-301.79 298.5,-292.05 298.5,-283.07"/>
<polygon fill="#ff00ff" stroke="#ff00ff" stroke-width="1.5" points="302,-283.03 298.5,-273.03 295,-283.03 302,-283.03"/>
</g>
<!-- rand -->
<g id="node4" class="node">
<title>rand</title>
<polygon fill="#001a00" stroke="#ccff00" stroke-width="2" points="161,-191 0,-191 0,-155 161,-155 161,-191"/>
<text text-anchor="middle" x="80.5" y="-176" font-family="monospace" font-size="10.00" fill="#ccff00">scrambled = random chars</text>
<text text-anchor="middle" x="80.5" y="-165" font-family="monospace" font-size="10.00" fill="#ccff00">(len == width)</text>
</g>
<!-- loop&#45;&gt;rand -->
<g id="edge3" class="edge">
<title>loop&#45;&gt;rand</title>
<path fill="none" stroke="#39ff14" stroke-width="1.5" d="M252,-236.94C218.28,-224.56 172.51,-207.77 136.73,-194.64"/>
<polygon fill="#39ff14" stroke="#39ff14" stroke-width="1.5" points="137.52,-191.2 126.93,-191.04 135.11,-197.77 137.52,-191.2"/>
</g>
<!-- final -->
<g id="node7" class="node">
<title>final</title>
<polygon fill="#001500" stroke="#ffff00" stroke-width="2" points="418,-191 179,-191 179,-155 418,-155 418,-191"/>
<text text-anchor="middle" x="298.5" y="-176" font-family="monospace" font-size="10.00" fill="#ffff00">write: color + real_word + ts + space</text>
<text text-anchor="middle" x="298.5" y="-165" font-family="monospace" font-size="10.00" fill="#ffff00">(no cursor left — advance normally)</text>
</g>
<!-- loop&#45;&gt;final -->
<g id="edge7" class="edge">
<title>loop&#45;&gt;final</title>
<path fill="none" stroke="#ffff00" stroke-width="1.5" d="M298.5,-236.64C298.5,-226.3 298.5,-212.94 298.5,-201.22"/>
<polygon fill="#ffff00" stroke="#ffff00" stroke-width="1.5" points="302,-201.05 298.5,-191.05 295,-201.05 302,-201.05"/>
<text text-anchor="middle" x="309.5" y="-211.8" font-family="monospace" font-size="9.00">done</text>
</g>
<!-- write -->
<g id="node5" class="node">
<title>write</title>
<polygon fill="#001a00" stroke="#00ffcc" stroke-width="2" points="363,-109 130,-109 130,-73 363,-73 363,-109"/>
<text text-anchor="middle" x="246.5" y="-94" font-family="monospace" font-size="10.00" fill="#00ffcc">write: dim scrambled + ts + space</text>
<text text-anchor="middle" x="246.5" y="-83" font-family="monospace" font-size="10.00" fill="#00ffcc">+ 033[backD &#160;← cursor left back cols</text>
</g>
<!-- rand&#45;&gt;write -->
<g id="edge4" class="edge">
<title>rand&#45;&gt;write</title>
<path fill="none" stroke="#ccff00" stroke-width="1.5" d="M116.11,-154.84C141.17,-142.76 174.88,-126.51 201.75,-113.56"/>
<polygon fill="#ccff00" stroke="#ccff00" stroke-width="1.5" points="203.46,-116.63 210.95,-109.13 200.42,-110.32 203.46,-116.63"/>
</g>
<!-- sleep -->
<g id="node6" class="node">
<title>sleep</title>
<polygon fill="#0d0d0d" stroke="#555555" stroke-width="2" points="391,-36 302,-36 302,0 391,0 391,-36"/>
<text text-anchor="middle" x="346.5" y="-15.5" font-family="monospace" font-size="10.00" fill="#555555">sleep 0.035s</text>
</g>
<!-- write&#45;&gt;sleep -->
<g id="edge5" class="edge">
<title>write&#45;&gt;sleep</title>
<path fill="none" stroke="#00ffcc" stroke-width="1.5" d="M270.45,-72.99C283.47,-63.75 299.75,-52.19 313.91,-42.14"/>
<polygon fill="#00ffcc" stroke="#00ffcc" stroke-width="1.5" points="316.27,-44.76 322.4,-36.11 312.22,-39.05 316.27,-44.76"/>
</g>
<!-- sleep&#45;&gt;loop -->
<g id="edge6" class="edge">
<title>sleep&#45;&gt;loop</title>
<path fill="none" stroke="#555555" stroke-width="1.5" d="M365.52,-36.06C398.53,-67.77 459.82,-137.46 426.5,-191 414.7,-209.96 395.32,-223.39 375.18,-232.82"/>
<polygon fill="#555555" stroke="#555555" stroke-width="1.5" points="373.66,-229.66 365.89,-236.87 376.46,-236.08 373.66,-229.66"/>
<text text-anchor="middle" x="460" y="-129.8" font-family="monospace" font-size="9.00">next frame</text>
</g>
</g>
</svg>
