<?xml version="1.0" encoding="UTF-8" standalone="no"?>
<!DOCTYPE svg PUBLIC "-//W3C//DTD SVG 1.1//EN"
 "http://www.w3.org/Graphics/SVG/1.1/DTD/svg11.dtd">
<!-- Generated by graphviz version 2.43.0 (0)
 -->
<!-- Title: %3 Pages: 1 -->
<svg width="420pt" height="440pt"
 viewBox="0.00 0.00 420.09 439.69" xmlns="http://www.w3.org/2000/svg" xmlns:xlink="http://www.w3.org/1999/xlink">
<g id="graph0" class="graph" transform="scale(1 1) rotate(0) translate(4 435.69)">
<title>%3</title>
<polygon fill="#0d0d0d" stroke="transparent" points="-4,4 -4,-435.69 416.09,-435.69 416.09,4 -4,4"/>
<!-- WAIT -->
<g id="node1" class="node">
<title>WAIT</title>
<ellipse fill="#001520" stroke="#00ffff" stroke-width="2" cx="319.09" cy="-410.48" rx="50.41" ry="21.43"/>
<text text-anchor="middle" x="319.09" y="-413.48" font-family="monospace" font-size="10.00" fill="#00ffff">WAITING</text>
<text text-anchor="middle" x="319.09" y="-402.48" font-family="monospace" font-size="10.00" fill="#00ffff">for model</text>
</g>
<!-- PH -->
<g id="node2" class="node">
<title>PH</title>
<ellipse fill="#0d0d0d" stroke="#555555" stroke-width="2" cx="275.09" cy="-312.05" rx="58.88" ry="21.43"/>
<text text-anchor="middle" x="275.09" y="-315.05" font-family="monospace" font-size="10.00" fill="#555555">PLACEHOLDER</text>
<text text-anchor="middle" x="275.09" y="-304.05" font-family="monospace" font-size="10.00" fill="#555555">___ printed</text>
</g>
<!-- WAIT&#45;&gt;PH -->
<g id="edge1" class="edge">
<title>WAIT&#45;&gt;PH</title>
<path fill="none" stroke="#00ffff" stroke-width="1.5" d="M292.58,-392.02C285.98,-386.26 279.76,-379.25 276.09,-371.26 272.16,-362.72 270.96,-352.7 271.01,-343.41"/>
<polygon fill="#00ffff" stroke="#00ffff" stroke-width="1.5" points="274.51,-343.51 271.54,-333.34 267.52,-343.14 274.51,-343.51"/>
<text text-anchor="middle" x="313.09" y="-364.06" font-family="monospace" font-size="9.00">word yielded</text>
<text text-anchor="middle" x="313.09" y="-354.06" font-family="monospace" font-size="9.00">from generator</text>
</g>
<!-- SCRAM -->
<g id="node3" class="node">
<title>SCRAM</title>
<ellipse fill="#0a001a" stroke="#ff00ff" stroke-width="2" cx="118.09" cy="-223.62" rx="118.17" ry="21.43"/>
<text text-anchor="middle" x="118.09" y="-226.62" font-family="monospace" font-size="10.00" fill="#ff00ff">SCRAMBLING</text>
<text text-anchor="middle" x="118.09" y="-215.62" font-family="monospace" font-size="10.00" fill="#ff00ff">frames = int((1&#45;prob)×10)</text>
</g>
<!-- PH&#45;&gt;SCRAM -->
<g id="edge2" class="edge">
<title>PH&#45;&gt;SCRAM</title>
<path fill="none" stroke="#ff00ff" stroke-width="1.5" d="M244.07,-293.97C220.65,-281.08 188.19,-263.21 162.09,-248.84"/>
<polygon fill="#ff00ff" stroke="#ff00ff" stroke-width="1.5" points="163.59,-245.68 153.15,-243.92 160.22,-251.81 163.59,-245.68"/>
<text text-anchor="middle" x="239.09" y="-265.64" font-family="monospace" font-size="9.00">animate_word()</text>
</g>
<!-- SCRAM&#45;&gt;SCRAM -->
<g id="edge3" class="edge">
<title>SCRAM&#45;&gt;SCRAM</title>
<path fill="none" stroke="#ff00ff" stroke-width="1.5" d="M228.88,-230.96C244.05,-229.74 254.17,-227.3 254.17,-223.62 254.17,-220.84 248.36,-218.76 238.95,-217.38"/>
<polygon fill="#ff00ff" stroke="#ff00ff" stroke-width="1.5" points="239.21,-213.89 228.88,-216.28 238.44,-220.85 239.21,-213.89"/>
<text text-anchor="middle" x="291.17" y="-226.42" font-family="monospace" font-size="9.00">next frame</text>
<text text-anchor="middle" x="291.17" y="-216.42" font-family="monospace" font-size="9.00">(0.035s sleep)</text>
</g>
<!-- SNAP -->
<g id="node4" class="node">
<title>SNAP</title>
<ellipse fill="#001500" stroke="#39ff14" stroke-width="2" cx="219.09" cy="-135.2" rx="84.29" ry="21.43"/>
<text text-anchor="middle" x="219.09" y="-138.2" font-family="monospace" font-size="10.00" fill="#39ff14">SNAPPED</text>
<text text-anchor="middle" x="219.09" y="-127.2" font-family="monospace" font-size="10.00" fill="#39ff14">real word printed</text>
</g>
<!-- SCRAM&#45;&gt;SNAP -->
<g id="edge4" class="edge">
<title>SCRAM&#45;&gt;SNAP</title>
<path fill="none" stroke="#39ff14" stroke-width="1.5" d="M141.26,-202.79C155.34,-190.74 173.49,-175.22 188.71,-162.19"/>
<polygon fill="#39ff14" stroke="#39ff14" stroke-width="1.5" points="191.05,-164.79 196.37,-155.63 186.5,-159.48 191.05,-164.79"/>
<text text-anchor="middle" x="214.59" y="-177.21" font-family="monospace" font-size="9.00">frames exhausted</text>
</g>
<!-- ADV -->
<g id="node5" class="node">
<title>ADV</title>
<ellipse fill="#001520" stroke="#00ffcc" stroke-width="2" cx="291.09" cy="-28.99" rx="88.28" ry="28.98"/>
<text text-anchor="middle" x="291.09" y="-37.49" font-family="monospace" font-size="10.00" fill="#00ffcc">ADVANCE</text>
<text text-anchor="middle" x="291.09" y="-26.49" font-family="monospace" font-size="10.00" fill="#00ffcc">cursor left behind</text>
<text text-anchor="middle" x="291.09" y="-15.49" font-family="monospace" font-size="10.00" fill="#00ffcc">to next word</text>
</g>
<!-- SNAP&#45;&gt;ADV -->
<g id="edge5" class="edge">
<title>SNAP&#45;&gt;ADV</title>
<path fill="none" stroke="#00ffcc" stroke-width="1.5" d="M232.97,-114.1C242.35,-100.53 255,-82.23 266.1,-66.16"/>
<polygon fill="#00ffcc" stroke="#00ffcc" stroke-width="1.5" points="269.27,-67.72 272.08,-57.51 263.51,-63.74 269.27,-67.72"/>
<text text-anchor="middle" x="290.09" y="-88.78" font-family="monospace" font-size="9.00">cursor stays</text>
<text text-anchor="middle" x="290.09" y="-78.78" font-family="monospace" font-size="9.00">past word</text>
</g>
<!-- ADV&#45;&gt;WAIT -->
<g id="edge6" class="edge">
<title>ADV&#45;&gt;WAIT</title>
<path fill="none" stroke="#00ffff" stroke-width="1.5" d="M322.89,-56.15C342.57,-75.41 364.09,-103.49 364.09,-134.2 364.09,-313.05 364.09,-313.05 364.09,-313.05 364.09,-339.66 361.87,-347.4 350.09,-371.26 348.21,-375.05 345.91,-378.81 343.4,-382.4"/>
<polygon fill="#00ffff" stroke="#00ffff" stroke-width="1.5" points="340.58,-380.33 337.31,-390.41 346.15,-384.57 340.58,-380.33"/>
<text text-anchor="middle" x="388.09" y="-221.42" font-family="monospace" font-size="9.00">next word</text>
</g>
</g>
</svg>
