<?xml version="1.0" encoding="UTF-8" standalone="no"?>
<!DOCTYPE svg PUBLIC "-//W3C//DTD SVG 1.1//EN"
 "http://www.w3.org/Graphics/SVG/1.1/DTD/svg11.dtd">
<!-- Generated by graphviz version 2.43.0 (0)
 -->
<!-- Title: %3 Pages: 1 -->
<svg width="396pt" height="404pt"
 viewBox="0.00 0.00 395.50 403.62" xmlns="http://www.w3.org/2000/svg" xmlns:xlink="http://www.w3.org/1999/xlink">
<g id="graph0" class="graph" transform="scale(1 1) rotate(0) translate(4 399.62)">
<title>%3</title>
<polygon fill="#0f0f0f" stroke="transparent" points="-4,4 -4,-399.62 391.5,-399.62 391.5,4 -4,4"/>
<!-- parec -->
<g id="node1" class="node">
<title>parec</title>
<polygon fill="#001520" stroke="#00ffff" stroke-width="2" points="193.5,-395.62 56.5,-395.62 56.5,-359.62 193.5,-359.62 193.5,-395.62"/>
<text text-anchor="middle" x="125" y="-380.62" font-family="monospace" font-size="10.00" fill="#00ffff">parec</text>
<text text-anchor="middle" x="125" y="-369.62" font-family="monospace" font-size="10.00" fill="#00ffff">(background process)</text>
</g>
<!-- raw -->
<g id="node2" class="node">
<title>raw</title>
<path fill="#0d0d1a" stroke="#00aaff" stroke-width="2" d="M196.5,-308.65C196.5,-311.5 164.45,-313.81 125,-313.81 85.55,-313.81 53.5,-311.5 53.5,-308.65 53.5,-308.65 53.5,-262.22 53.5,-262.22 53.5,-259.37 85.55,-257.06 125,-257.06 164.45,-257.06 196.5,-259.37 196.5,-262.22 196.5,-262.22 196.5,-308.65 196.5,-308.65"/>
<path fill="none" stroke="#00aaff" stroke-width="2" d="M196.5,-308.65C196.5,-305.81 164.45,-303.5 125,-303.5 85.55,-303.5 53.5,-305.81 53.5,-308.65"/>
<text text-anchor="middle" x="125" y="-293.94" font-family="monospace" font-size="10.00" fill="#00aaff">/tmp/voice&#45;XXXXXX.raw</text>
<text text-anchor="middle" x="125" y="-282.94" font-family="monospace" font-size="10.00" fill="#00aaff">raw s16le PCM</text>
<text text-anchor="middle" x="125" y="-271.94" font-family="monospace" font-size="10.00" fill="#00aaff">(no header)</text>
</g>
<!-- parec&#45;&gt;raw -->
<g id="edge1" class="edge">
<title>parec&#45;&gt;raw</title>
<path fill="none" stroke="#00ffff" stroke-width="1.5" d="M125,-359.24C125,-349.16 125,-336.07 125,-323.77"/>
<polygon fill="#00ffff" stroke="#00ffff" stroke-width="1.5" points="128.5,-323.71 125,-313.71 121.5,-323.71 128.5,-323.71"/>
<text text-anchor="middle" x="164.5" y="-334.43" font-family="monospace" font-size="9.00">write raw bytes</text>
</g>
<!-- kill -->
<g id="node3" class="node">
<title>kill</title>
<polygon fill="#0d0d0d" stroke="#ff6600" stroke-width="2" points="125,-220.25 0,-190.25 125,-160.25 250,-190.25 125,-220.25"/>
<text text-anchor="middle" x="125" y="-193.25" font-family="monospace" font-size="10.00" fill="#ff6600">parec exits</text>
<text text-anchor="middle" x="125" y="-182.25" font-family="monospace" font-size="10.00" fill="#ff6600">(Enter or timeout)</text>
</g>
<!-- raw&#45;&gt;kill -->
<g id="edge2" class="edge">
<title>raw&#45;&gt;kill</title>
<path fill="none" stroke="#555555" stroke-width="1.5" stroke-dasharray="5,2" d="M125,-256.98C125,-248.72 125,-239.5 125,-230.63"/>
<polygon fill="#555555" stroke="#555555" stroke-width="1.5" points="128.5,-230.46 125,-220.46 121.5,-230.46 128.5,-230.46"/>
</g>
<!-- sox -->
<g id="node4" class="node">
<title>sox</title>
<polygon fill="#001a00" stroke="#39ff14" stroke-width="2" points="187.5,-114.25 62.5,-114.25 62.5,-78.25 187.5,-78.25 187.5,-114.25"/>
<text text-anchor="middle" x="125" y="-99.25" font-family="monospace" font-size="10.00" fill="#39ff14">sox convert</text>
<text text-anchor="middle" x="125" y="-88.25" font-family="monospace" font-size="10.00" fill="#39ff14">(after clean exit)</text>
</g>
<!-- kill&#45;&gt;sox -->
<g id="edge3" class="edge">
<title>kill&#45;&gt;sox</title>
<path fill="none" stroke="#39ff14" stroke-width="1.5" d="M125,-160.14C125,-148.73 125,-135.71 125,-124.49"/>
<polygon fill="#39ff14" stroke="#39ff14" stroke-width="1.5" points="128.5,-124.39 125,-114.39 121.5,-124.39 128.5,-124.39"/>
<text text-anchor="middle" x="157" y="-135.05" font-family="monospace" font-size="9.00">then convert</text>
</g>
<!-- wav -->
<g id="node5" class="node">
<title>wav</title>
<path fill="#001500" stroke="#ccff00" stroke-width="2" d="M196.5,-37.6C196.5,-39.68 164.45,-41.38 125,-41.38 85.55,-41.38 53.5,-39.68 53.5,-37.6 53.5,-37.6 53.5,-3.65 53.5,-3.65 53.5,-1.57 85.55,0.13 125,0.13 164.45,0.13 196.5,-1.57 196.5,-3.65 196.5,-3.65 196.5,-37.6 196.5,-37.6"/>
<path fill="none" stroke="#ccff00" stroke-width="2" d="M196.5,-37.6C196.5,-35.52 164.45,-33.83 125,-33.83 85.55,-33.83 53.5,-35.52 53.5,-37.6"/>
<text text-anchor="middle" x="125" y="-23.62" font-family="monospace" font-size="10.00" fill="#ccff00">/tmp/voice&#45;XXXXXX.wav</text>
<text text-anchor="middle" x="125" y="-12.62" font-family="monospace" font-size="10.00" fill="#ccff00">valid WAV with header</text>
</g>
<!-- sox&#45;&gt;wav -->
<g id="edge4" class="edge">
<title>sox&#45;&gt;wav</title>
<path fill="none" stroke="#ccff00" stroke-width="1.5" d="M125,-78.17C125,-70.3 125,-60.71 125,-51.68"/>
<polygon fill="#ccff00" stroke="#ccff00" stroke-width="1.5" points="128.5,-51.48 125,-41.48 121.5,-51.48 128.5,-51.48"/>
</g>
<!-- old1 -->
<g id="node6" class="node">
<title>old1</title>
<polygon fill="#1a0000" stroke="#ff2244" stroke-width="2" points="378.5,-395.62 217.5,-395.62 217.5,-359.62 384.5,-359.62 384.5,-389.62 378.5,-395.62"/>
<polyline fill="none" stroke="#ff2244" stroke-width="2" points="378.5,-395.62 378.5,-389.62 "/>
<polyline fill="none" stroke="#ff2244" stroke-width="2" points="384.5,-389.62 378.5,-389.62 "/>
<text text-anchor="middle" x="301" y="-380.62" font-family="monospace" font-size="10.00" fill="#ff2244">OLD: parec | sox pipeline</text>
<text text-anchor="middle" x="301" y="-369.62" font-family="monospace" font-size="10.00" fill="#ff2244">(pipe to WAV directly)</text>
</g>
<!-- old2 -->
<g id="node7" class="node">
<title>old2</title>
<polygon fill="#1a0000" stroke="#ff2244" stroke-width="2" points="381.5,-305.94 214.5,-305.94 214.5,-264.94 387.5,-264.94 387.5,-299.94 381.5,-305.94"/>
<polyline fill="none" stroke="#ff2244" stroke-width="2" points="381.5,-305.94 381.5,-299.94 "/>
<polyline fill="none" stroke="#ff2244" stroke-width="2" points="387.5,-299.94 381.5,-299.94 "/>
<text text-anchor="middle" x="301" y="-293.94" font-family="monospace" font-size="10.00" fill="#ff2244">Problem: killing pipeline</text>
<text text-anchor="middle" x="301" y="-282.94" font-family="monospace" font-size="10.00" fill="#ff2244">left WAV header incomplete</text>
<text text-anchor="middle" x="301" y="-271.94" font-family="monospace" font-size="10.00" fill="#ff2244">→ corrupt file</text>
</g>
<!-- old1&#45;&gt;old2 -->
<g id="edge5" class="edge">
<title>old1&#45;&gt;old2</title>
<path fill="none" stroke="#ff2244" stroke-width="1.5" stroke-dasharray="5,2" d="M301,-359.24C301,-347.08 301,-330.54 301,-316.3"/>
<polygon fill="#ff2244" stroke="#ff2244" stroke-width="1.5" points="304.5,-315.97 301,-305.97 297.5,-315.97 304.5,-315.97"/>
</g>
</g>
</svg>
