<?xml version="1.0" encoding="UTF-8" standalone="no"?>
<!DOCTYPE svg PUBLIC "-//W3C//DTD SVG 1.1//EN"
 "http://www.w3.org/Graphics/SVG/1.1/DTD/svg11.dtd">
<!-- Generated by graphviz version 2.43.0 (0)
 -->
<!-- Title: %3 Pages: 1 -->
<svg width="601pt" height="207pt"
 viewBox="0.00 0.00 601.00 207.00" xmlns="http://www.w3.org/2000/svg" xmlns:xlink="http://www.w3.org/1999/xlink">
<g id="graph0" class="graph" transform="scale(1 1) rotate(0) translate(4 203)">
<title>%3</title>
<polygon fill="#111827" stroke="transparent" points="-4,4 -4,-203 597,-203 597,4 -4,4"/>
<g id="clust1" class="cluster">
<title>cluster_hw</title>
<polygon fill="#050515" stroke="#00aaff" stroke-width="2" points="27,-113.5 27,-188.5 369,-188.5 369,-113.5 27,-113.5"/>
<text text-anchor="middle" x="198" y="-173.3" font-family="monospace" font-size="14.00" fill="#00aaff">Hardware</text>
</g>
<g id="clust2" class="cluster">
<title>cluster_pw</title>
<polygon fill="#050515" stroke="#ff00ff" stroke-width="2" points="8,-8 8,-83 394,-83 394,-8 8,-8"/>
<text text-anchor="middle" x="201" y="-67.8" font-family="monospace" font-size="14.00" fill="#ff00ff">PipeWire Nodes</text>
</g>
<g id="clust3" class="cluster">
<title>cluster_cfg</title>
<polygon fill="#050515" stroke="#39ff14" stroke-width="2" points="377,-111 377,-191 585,-191 585,-111 377,-111"/>
<text text-anchor="middle" x="481" y="-175.8" font-family="monospace" font-size="14.00" fill="#39ff14">WirePlumber Config</text>
</g>
<!-- uc03in -->
<g id="node1" class="node">
<title>uc03in</title>
<polygon fill="#00001a" stroke="#00aaff" stroke-width="2" points="236.5,-157.5 159.5,-157.5 159.5,-121.5 236.5,-121.5 236.5,-157.5"/>
<text text-anchor="middle" x="198" y="-142.5" font-family="monospace" font-size="10.00" fill="#00aaff">UC03 In</text>
<text text-anchor="middle" x="198" y="-131.5" font-family="monospace" font-size="10.00" fill="#00aaff">32kHz mono</text>
</g>
<!-- src -->
<g id="node4" class="node">
<title>src</title>
<polygon fill="#0a000a" stroke="#ff00ff" stroke-width="2" points="272.5,-52 177.5,-52 177.5,-16 272.5,-16 272.5,-52"/>
<text text-anchor="middle" x="225" y="-37" font-family="monospace" font-size="10.00" fill="#ff00ff">source</text>
<text text-anchor="middle" x="225" y="-26" font-family="monospace" font-size="10.00" fill="#ff00ff">mono&#45;fallback</text>
</g>
<!-- uc03in&#45;&gt;src -->
<g id="edge1" class="edge">
<title>uc03in&#45;&gt;src</title>
<path fill="none" stroke="#ff00ff" stroke-width="1.5" d="M202.46,-121.41C206.68,-105.23 213.08,-80.68 217.99,-61.88"/>
<polygon fill="#ff00ff" stroke="#ff00ff" stroke-width="1.5" points="221.4,-62.68 220.53,-52.12 214.62,-60.91 221.4,-62.68"/>
</g>
<!-- uc03out -->
<g id="node2" class="node">
<title>uc03out</title>
<polygon fill="#00001a" stroke="#00ffcc" stroke-width="2" points="361.5,-157.5 254.5,-157.5 254.5,-121.5 361.5,-121.5 361.5,-157.5"/>
<text text-anchor="middle" x="308" y="-142.5" font-family="monospace" font-size="10.00" fill="#00ffcc">UC03 Out</text>
<text text-anchor="middle" x="308" y="-131.5" font-family="monospace" font-size="10.00" fill="#00ffcc">stereo playback</text>
</g>
<!-- sink -->
<g id="node5" class="node">
<title>sink</title>
<polygon fill="#0a000a" stroke="#ff1493" stroke-width="2" points="385.5,-52 290.5,-52 290.5,-16 385.5,-16 385.5,-52"/>
<text text-anchor="middle" x="338" y="-37" font-family="monospace" font-size="10.00" fill="#ff1493">sink</text>
<text text-anchor="middle" x="338" y="-26" font-family="monospace" font-size="10.00" fill="#ff1493">analog&#45;stereo</text>
</g>
<!-- uc03out&#45;&gt;sink -->
<g id="edge2" class="edge">
<title>uc03out&#45;&gt;sink</title>
<path fill="none" stroke="#ff1493" stroke-width="1.5" d="M312.95,-121.41C317.64,-105.23 324.76,-80.68 330.21,-61.88"/>
<polygon fill="#ff1493" stroke="#ff1493" stroke-width="1.5" points="333.62,-62.7 333.04,-52.12 326.89,-60.75 333.62,-62.7"/>
</g>
<!-- mobo -->
<g id="node3" class="node">
<title>mobo</title>
<polygon fill="#00001a" stroke="#555555" stroke-width="2" points="141.5,-157.5 34.5,-157.5 34.5,-121.5 141.5,-121.5 141.5,-157.5"/>
<text text-anchor="middle" x="88" y="-142.5" font-family="monospace" font-size="10.00" fill="#555555">Motherboard</text>
<text text-anchor="middle" x="88" y="-131.5" font-family="monospace" font-size="10.00" fill="#555555">audio (ignored)</text>
</g>
<!-- mon -->
<g id="node6" class="node">
<title>mon</title>
<polygon fill="#0a000a" stroke="#555555" stroke-width="2" points="159.5,-52 16.5,-52 16.5,-16 159.5,-16 159.5,-52"/>
<text text-anchor="middle" x="88" y="-37" font-family="monospace" font-size="10.00" fill="#555555">monitor</text>
<text text-anchor="middle" x="88" y="-26" font-family="monospace" font-size="10.00" fill="#555555">(loopback — disabled)</text>
</g>
<!-- mobo&#45;&gt;mon -->
<g id="edge3" class="edge">
<title>mobo&#45;&gt;mon</title>
<path fill="none" stroke="#555555" stroke-width="1.5" stroke-dasharray="5,2" d="M88,-121.41C88,-105.3 88,-80.91 88,-62.14"/>
<polygon fill="#555555" stroke="#555555" stroke-width="1.5" points="91.5,-62.12 88,-52.12 84.5,-62.12 91.5,-62.12"/>
</g>
<!-- wp -->
<g id="node7" class="node">
<title>wp</title>
<polygon fill="#001500" stroke="#39ff14" stroke-width="2" points="576.5,-160 385.5,-160 385.5,-119 576.5,-119 576.5,-160"/>
<text text-anchor="middle" x="481" y="-148" font-family="monospace" font-size="10.00" fill="#39ff14">51&#45;default&#45;audio.conf</text>
<text text-anchor="middle" x="481" y="-137" font-family="monospace" font-size="10.00" fill="#39ff14">default source: mono&#45;fallback</text>
<text text-anchor="middle" x="481" y="-126" font-family="monospace" font-size="10.00" fill="#39ff14">default sink: analog&#45;stereo</text>
</g>
<!-- wp&#45;&gt;src -->
<g id="edge4" class="edge">
<title>wp&#45;&gt;src</title>
<path fill="none" stroke="#39ff14" stroke-width="1.5" stroke-dasharray="5,2" d="M405,-118.96C353.68,-105.49 293.3,-88.97 282,-83 270.2,-76.77 258.66,-67.77 249.08,-59.24"/>
<polygon fill="#39ff14" stroke="#39ff14" stroke-width="1.5" points="251.25,-56.48 241.54,-52.26 246.5,-61.62 251.25,-56.48"/>
<text text-anchor="middle" x="362" y="-93.8" font-family="monospace" font-size="9.00">set default</text>
</g>
<!-- wp&#45;&gt;sink -->
<g id="edge5" class="edge">
<title>wp&#45;&gt;sink</title>
<path fill="none" stroke="#39ff14" stroke-width="1.5" stroke-dasharray="5,2" d="M465.99,-118.59C458.51,-109.5 448.96,-98.99 439,-91 422.62,-77.85 402.74,-66.09 384.96,-56.78"/>
<polygon fill="#39ff14" stroke="#39ff14" stroke-width="1.5" points="386.38,-53.57 375.89,-52.14 383.2,-59.81 386.38,-53.57"/>
<text text-anchor="middle" x="478" y="-93.8" font-family="monospace" font-size="9.00">set default</text>
</g>
</g>
</svg>
