<?xml version="1.0" encoding="UTF-8" standalone="no"?>
<!DOCTYPE svg PUBLIC "-//W3C//DTD SVG 1.1//EN"
 "http://www.w3.org/Graphics/SVG/1.1/DTD/svg11.dtd">
<!-- Generated by graphviz version 2.43.0 (0)
 -->
<!-- Title: %3 Pages: 1 -->
<svg width="378pt" height="395pt"
 viewBox="0.00 0.00 377.50 395.00" xmlns="http://www.w3.org/2000/svg" xmlns:xlink="http://www.w3.org/1999/xlink">
<g id="graph0" class="graph" transform="scale(1 1) rotate(0) translate(4 391)">
<title>%3</title>
<polygon fill="#080818" stroke="transparent" points="-4,4 -4,-391 373.5,-391 373.5,4 -4,4"/>
<!-- t0 -->
<g id="node1" class="node">
<title>t0</title>
<polygon fill="#001520" stroke="#00ffff" stroke-width="2" points="272.5,-387 159.5,-387 159.5,-346 272.5,-346 272.5,-387"/>
<text text-anchor="middle" x="216" y="-375" font-family="monospace" font-size="10.00" fill="#00ffff">t=0s</text>
<text text-anchor="middle" x="216" y="-364" font-family="monospace" font-size="10.00" fill="#00ffff">voice&#45;input runs</text>
<text text-anchor="middle" x="216" y="-353" font-family="monospace" font-size="10.00" fill="#00ffff">parec starts</text>
</g>
<!-- rec -->
<g id="node2" class="node">
<title>rec</title>
<polygon fill="#001520" stroke="#00ffcc" stroke-width="2" points="293.5,-309 138.5,-309 138.5,-257 293.5,-257 293.5,-309"/>
<text text-anchor="middle" x="216" y="-297" font-family="monospace" font-size="10.00" fill="#00ffcc">t=0..65s</text>
<text text-anchor="middle" x="216" y="-286" font-family="monospace" font-size="10.00" fill="#00ffcc">Recording window</text>
<text text-anchor="middle" x="216" y="-275" font-family="monospace" font-size="10.00" fill="#00ffcc">32kHz × 2 bytes × N sec</text>
<text text-anchor="middle" x="216" y="-264" font-family="monospace" font-size="10.00" fill="#00ffcc">= up to 4.0 MB raw</text>
</g>
<!-- t0&#45;&gt;rec -->
<g id="edge1" class="edge">
<title>t0&#45;&gt;rec</title>
<path fill="none" stroke="#00ffff" stroke-width="1.5" d="M216,-345.77C216,-337.76 216,-328.26 216,-319.14"/>
<polygon fill="#00ffff" stroke="#00ffff" stroke-width="1.5" points="219.5,-319.11 216,-309.11 212.5,-319.11 219.5,-319.11"/>
</g>
<!-- ent -->
<g id="node3" class="node">
<title>ent</title>
<polygon fill="#0d0d0d" stroke="#ff6600" stroke-width="2" points="119,-211 0,-181 119,-151 238,-181 119,-211"/>
<text text-anchor="middle" x="119" y="-184" font-family="monospace" font-size="10.00" fill="#ff6600">Enter pressed</text>
<text text-anchor="middle" x="119" y="-173" font-family="monospace" font-size="10.00" fill="#ff6600">(any time 0..65s)</text>
</g>
<!-- rec&#45;&gt;ent -->
<g id="edge2" class="edge">
<title>rec&#45;&gt;ent</title>
<path fill="none" stroke="#ff6600" stroke-width="1.5" d="M184.41,-256.99C177.78,-251.3 170.99,-245.12 165,-239 157.66,-231.5 150.28,-222.92 143.64,-214.72"/>
<polygon fill="#ff6600" stroke="#ff6600" stroke-width="1.5" points="146.23,-212.37 137.27,-206.72 140.75,-216.72 146.23,-212.37"/>
<text text-anchor="middle" x="220.5" y="-231.8" font-family="monospace" font-size="9.00">if user presses Enter</text>
</g>
<!-- t65 -->
<g id="node4" class="node">
<title>t65</title>
<polygon fill="#0d0d0d" stroke="#ff2244" stroke-width="2" points="369.5,-201.5 256.5,-201.5 256.5,-160.5 369.5,-160.5 369.5,-201.5"/>
<text text-anchor="middle" x="313" y="-189.5" font-family="monospace" font-size="10.00" fill="#ff2244">t=65s</text>
<text text-anchor="middle" x="313" y="-178.5" font-family="monospace" font-size="10.00" fill="#ff2244">Timer fires USR1</text>
<text text-anchor="middle" x="313" y="-167.5" font-family="monospace" font-size="10.00" fill="#ff2244">parec killed</text>
</g>
<!-- rec&#45;&gt;t65 -->
<g id="edge3" class="edge">
<title>rec&#45;&gt;t65</title>
<path fill="none" stroke="#ff2244" stroke-width="1.5" d="M255.5,-256.92C262.72,-251.47 269.89,-245.4 276,-239 284.17,-230.44 291.62,-219.84 297.66,-210.11"/>
<polygon fill="#ff2244" stroke="#ff2244" stroke-width="1.5" points="300.67,-211.89 302.78,-201.5 294.66,-208.3 300.67,-211.89"/>
<text text-anchor="middle" x="313" y="-231.8" font-family="monospace" font-size="9.00">if no input</text>
</g>
<!-- conv -->
<g id="node5" class="node">
<title>conv</title>
<polygon fill="#001a00" stroke="#39ff14" stroke-width="2" points="265.5,-114 164.5,-114 164.5,-78 265.5,-78 265.5,-114"/>
<text text-anchor="middle" x="215" y="-99" font-family="monospace" font-size="10.00" fill="#39ff14">sox conversion</text>
<text text-anchor="middle" x="215" y="-88" font-family="monospace" font-size="10.00" fill="#39ff14">~10&#45;50ms</text>
</g>
<!-- ent&#45;&gt;conv -->
<g id="edge4" class="edge">
<title>ent&#45;&gt;conv</title>
<path fill="none" stroke="#39ff14" stroke-width="1.5" d="M144.98,-157.54C158.04,-146.25 173.88,-132.56 187.18,-121.05"/>
<polygon fill="#39ff14" stroke="#39ff14" stroke-width="1.5" points="189.82,-123.4 195.09,-114.21 185.24,-118.1 189.82,-123.4"/>
</g>
<!-- t65&#45;&gt;conv -->
<g id="edge5" class="edge">
<title>t65&#45;&gt;conv</title>
<path fill="none" stroke="#39ff14" stroke-width="1.5" d="M289.78,-160.33C275.73,-148.44 257.75,-133.2 242.93,-120.66"/>
<polygon fill="#39ff14" stroke="#39ff14" stroke-width="1.5" points="244.97,-117.79 235.07,-114 240.44,-123.14 244.97,-117.79"/>
</g>
<!-- infer -->
<g id="node6" class="node">
<title>infer</title>
<polygon fill="#0a001a" stroke="#ff00ff" stroke-width="2" points="289.5,-41 140.5,-41 140.5,0 289.5,0 289.5,-41"/>
<text text-anchor="middle" x="215" y="-29" font-family="monospace" font-size="10.00" fill="#ff00ff">GPU inference</text>
<text text-anchor="middle" x="215" y="-18" font-family="monospace" font-size="10.00" fill="#ff00ff">1&#45;5s typical</text>
<text text-anchor="middle" x="215" y="-7" font-family="monospace" font-size="10.00" fill="#ff00ff">(model already loaded)</text>
</g>
<!-- conv&#45;&gt;infer -->
<g id="edge6" class="edge">
<title>conv&#45;&gt;infer</title>
<path fill="none" stroke="#ff00ff" stroke-width="1.5" d="M215,-77.95C215,-70.03 215,-60.37 215,-51.29"/>
<polygon fill="#ff00ff" stroke="#ff00ff" stroke-width="1.5" points="218.5,-51.05 215,-41.05 211.5,-51.05 218.5,-51.05"/>
</g>
</g>
</svg>
