<?xml version="1.0" encoding="UTF-8" standalone="no"?>
<!DOCTYPE svg PUBLIC "-//W3C//DTD SVG 1.1//EN"
 "http://www.w3.org/Graphics/SVG/1.1/DTD/svg11.dtd">
<!-- Generated by graphviz version 2.43.0 (0)
 -->
<!-- Title: %3 Pages: 1 -->
<svg width="1161pt" height="106pt"
 viewBox="0.00 0.00 1161.00 105.50" xmlns="http://www.w3.org/2000/svg" xmlns:xlink="http://www.w3.org/1999/xlink">
<g id="graph0" class="graph" transform="scale(1 1) rotate(0) translate(4 101.5)">
<title>%3</title>
<polygon fill="#0a0a1a" stroke="transparent" points="-4,4 -4,-101.5 1157,-101.5 1157,4 -4,4"/>
<!-- uc03 -->
<g id="node1" class="node">
<title>uc03</title>
<polygon fill="#001520" stroke="#00ffff" stroke-width="2" points="83,-95.5 0,-95.5 0,-59.5 83,-59.5 83,-95.5"/>
<text text-anchor="middle" x="41.5" y="-80.5" font-family="monospace" font-size="10.00" fill="#00ffff">UC03 native</text>
<text text-anchor="middle" x="41.5" y="-69.5" font-family="monospace" font-size="10.00" fill="#00ffff">32000 Hz</text>
</g>
<!-- pw32 -->
<g id="node2" class="node">
<title>pw32</title>
<polygon fill="#001520" stroke="#00ffcc" stroke-width="2" points="319,-95.5 200,-95.5 200,-59.5 319,-59.5 319,-95.5"/>
<text text-anchor="middle" x="259.5" y="-80.5" font-family="monospace" font-size="10.00" fill="#00ffcc">PipeWire</text>
<text text-anchor="middle" x="259.5" y="-69.5" font-family="monospace" font-size="10.00" fill="#00ffcc">32kHz passthrough</text>
</g>
<!-- uc03&#45;&gt;pw32 -->
<g id="edge1" class="edge">
<title>uc03&#45;&gt;pw32</title>
<path fill="none" stroke="#00ffff" stroke-width="1.5" d="M83.13,-77.5C113.05,-77.5 154.45,-77.5 189.52,-77.5"/>
<polygon fill="#00ffff" stroke="#00ffff" stroke-width="1.5" points="189.7,-81 199.7,-77.5 189.7,-74 189.7,-81"/>
<text text-anchor="middle" x="125" y="-90.3" font-family="monospace" font-size="9.00">USB audio</text>
<text text-anchor="middle" x="125" y="-80.3" font-family="monospace" font-size="9.00">32kHz</text>
</g>
<!-- parec -->
<g id="node3" class="node">
<title>parec</title>
<polygon fill="#001520" stroke="#39ff14" stroke-width="2" points="530,-54.5 441,-54.5 441,-18.5 530,-18.5 530,-54.5"/>
<text text-anchor="middle" x="485.5" y="-39.5" font-family="monospace" font-size="10.00" fill="#39ff14">parec</text>
<text text-anchor="middle" x="485.5" y="-28.5" font-family="monospace" font-size="10.00" fill="#39ff14">&#45;&#45;rate=32000</text>
</g>
<!-- pw32&#45;&gt;parec -->
<g id="edge2" class="edge">
<title>pw32&#45;&gt;parec</title>
<path fill="none" stroke="#00ffcc" stroke-width="1.5" d="M319.06,-66.78C353.6,-60.46 396.99,-52.52 430.67,-46.35"/>
<polygon fill="#00ffcc" stroke="#00ffcc" stroke-width="1.5" points="431.58,-49.74 440.79,-44.5 430.32,-42.86 431.58,-49.74"/>
<text text-anchor="middle" x="396.5" y="-59.3" font-family="monospace" font-size="9.00">PCM stream</text>
</g>
<!-- sox -->
<g id="node4" class="node">
<title>sox</title>
<polygon fill="#001520" stroke="#ccff00" stroke-width="2" points="739,-57 614,-57 614,-16 739,-16 739,-57"/>
<text text-anchor="middle" x="676.5" y="-45" font-family="monospace" font-size="10.00" fill="#ccff00">sox convert</text>
<text text-anchor="middle" x="676.5" y="-34" font-family="monospace" font-size="10.00" fill="#ccff00">&#45;r 32000 &#45;e signed</text>
<text text-anchor="middle" x="676.5" y="-23" font-family="monospace" font-size="10.00" fill="#ccff00">&#45;b 16 &#45;c 1</text>
</g>
<!-- parec&#45;&gt;sox -->
<g id="edge3" class="edge">
<title>parec&#45;&gt;sox</title>
<path fill="none" stroke="#39ff14" stroke-width="1.5" d="M530.34,-36.5C552.09,-36.5 578.93,-36.5 603.6,-36.5"/>
<polygon fill="#39ff14" stroke="#39ff14" stroke-width="1.5" points="603.65,-40 613.65,-36.5 603.65,-33 603.65,-40"/>
<text text-anchor="middle" x="572" y="-49.3" font-family="monospace" font-size="9.00">raw s16le</text>
<text text-anchor="middle" x="572" y="-39.3" font-family="monospace" font-size="9.00">32kHz</text>
</g>
<!-- wav -->
<g id="node5" class="node">
<title>wav</title>
<polygon fill="#001520" stroke="#ffff00" stroke-width="2" points="915,-54.5 802,-54.5 802,-18.5 915,-18.5 915,-54.5"/>
<text text-anchor="middle" x="858.5" y="-39.5" font-family="monospace" font-size="10.00" fill="#ffff00">WAV</text>
<text text-anchor="middle" x="858.5" y="-28.5" font-family="monospace" font-size="10.00" fill="#ffff00">32kHz mono s16le</text>
</g>
<!-- sox&#45;&gt;wav -->
<g id="edge4" class="edge">
<title>sox&#45;&gt;wav</title>
<path fill="none" stroke="#ccff00" stroke-width="1.5" d="M739.19,-36.5C756.05,-36.5 774.38,-36.5 791.47,-36.5"/>
<polygon fill="#ccff00" stroke="#ccff00" stroke-width="1.5" points="791.92,-40 801.92,-36.5 791.92,-33 791.92,-40"/>
<text text-anchor="middle" x="770.5" y="-39.3" font-family="monospace" font-size="9.00">write</text>
</g>
<!-- fw -->
<g id="node6" class="node">
<title>fw</title>
<polygon fill="#001520" stroke="#ff00ff" stroke-width="2" points="1153,-57 1004,-57 1004,-16 1153,-16 1153,-57"/>
<text text-anchor="middle" x="1078.5" y="-45" font-family="monospace" font-size="10.00" fill="#ff00ff">faster&#45;whisper</text>
<text text-anchor="middle" x="1078.5" y="-34" font-family="monospace" font-size="10.00" fill="#ff00ff">native 32kHz support</text>
<text text-anchor="middle" x="1078.5" y="-23" font-family="monospace" font-size="10.00" fill="#ff00ff">(no internal resample)</text>
</g>
<!-- wav&#45;&gt;fw -->
<g id="edge5" class="edge">
<title>wav&#45;&gt;fw</title>
<path fill="none" stroke="#ffff00" stroke-width="1.5" d="M915.07,-36.5C939.01,-36.5 967.52,-36.5 993.92,-36.5"/>
<polygon fill="#ffff00" stroke="#ffff00" stroke-width="1.5" points="993.92,-40 1003.92,-36.5 993.92,-33 993.92,-40"/>
<text text-anchor="middle" x="959.5" y="-39.3" font-family="monospace" font-size="9.00">transcribe</text>
</g>
<!-- bad -->
<g id="node7" class="node">
<title>bad</title>
<polygon fill="#1a0000" stroke="#ff2244" stroke-width="2" points="346,-41 167,-41 167,0 352,0 352,-35 346,-41"/>
<polyline fill="none" stroke="#ff2244" stroke-width="2" points="346,-41 346,-35 "/>
<polyline fill="none" stroke="#ff2244" stroke-width="2" points="352,-35 346,-35 "/>
<text text-anchor="middle" x="259.5" y="-29" font-family="monospace" font-size="10.00" fill="#ff2244">WRONG: &#45;&#45;rate=16000</text>
<text text-anchor="middle" x="259.5" y="-18" font-family="monospace" font-size="10.00" fill="#ff2244">→ PipeWire resampler</text>
<text text-anchor="middle" x="259.5" y="-7" font-family="monospace" font-size="10.00" fill="#ff2244">→ near&#45;silence (RMS ~0.0005)</text>
</g>
<!-- bad&#45;&gt;parec -->
<g id="edge6" class="edge">
<title>bad&#45;&gt;parec</title>
<path fill="none" stroke="#ff2244" stroke-width="1.5" stroke-dasharray="5,2" d="M352.26,-27.05C378.99,-28.96 407.31,-30.99 430.86,-32.67"/>
<polygon fill="#ff2244" stroke="#ff2244" stroke-width="1.5" points="430.76,-36.17 440.98,-33.39 431.26,-29.19 430.76,-36.17"/>
<text text-anchor="middle" x="396.5" y="-35.3" font-family="monospace" font-size="9.00">avoided</text>
</g>
</g>
</svg>
