<?xml version="1.0" encoding="UTF-8" standalone="no"?>
<!DOCTYPE svg PUBLIC "-//W3C//DTD SVG 1.1//EN"
 "http://www.w3.org/Graphics/SVG/1.1/DTD/svg11.dtd">
<!-- Generated by graphviz version 2.43.0 (0)
 -->
<!-- Title: %3 Pages: 1 -->
<svg width="1053pt" height="60pt"
 viewBox="0.00 0.00 1053.00 60.00" xmlns="http://www.w3.org/2000/svg" xmlns:xlink="http://www.w3.org/1999/xlink">
<g id="graph0" class="graph" transform="scale(1 1) rotate(0) translate(4 56)">
<title>%3</title>
<polygon fill="#0d0d0d" stroke="transparent" points="-4,4 -4,-56 1049,-56 1049,4 -4,4"/>
<!-- mic -->
<g id="node1" class="node">
<title>mic</title>
<polygon fill="#001520" stroke="#00ffff" stroke-width="2" points="113,-44 0,-44 0,-8 113,-8 113,-44"/>
<text text-anchor="middle" x="56.5" y="-29" font-family="monospace" font-size="10.00" fill="#00ffff">UC03 USB Mic</text>
<text text-anchor="middle" x="56.5" y="-18" font-family="monospace" font-size="10.00" fill="#00ffff">vendor e4b7:0812</text>
</g>
<!-- alsa -->
<g id="node2" class="node">
<title>alsa</title>
<polygon fill="#001520" stroke="#00aaff" stroke-width="2" points="251,-44 197,-44 197,-8 251,-8 251,-44"/>
<text text-anchor="middle" x="224" y="-29" font-family="monospace" font-size="10.00" fill="#00aaff">ALSA</text>
<text text-anchor="middle" x="224" y="-18" font-family="monospace" font-size="10.00" fill="#00aaff">card 3</text>
</g>
<!-- mic&#45;&gt;alsa -->
<g id="edge1" class="edge">
<title>mic&#45;&gt;alsa</title>
<path fill="none" stroke="#00ffff" stroke-width="1.5" d="M113.07,-26C137.28,-26 164.98,-26 186.52,-26"/>
<polygon fill="#00ffff" stroke="#00ffff" stroke-width="1.5" points="186.56,-29.5 196.56,-26 186.56,-22.5 186.56,-29.5"/>
<text text-anchor="middle" x="155" y="-28.8" font-family="monospace" font-size="9.00">USB audio</text>
</g>
<!-- pw -->
<g id="node3" class="node">
<title>pw</title>
<polygon fill="#001520" stroke="#00ffcc" stroke-width="2" points="445,-44 356,-44 356,-8 445,-8 445,-44"/>
<text text-anchor="middle" x="400.5" y="-29" font-family="monospace" font-size="10.00" fill="#00ffcc">PipeWire</text>
<text text-anchor="middle" x="400.5" y="-18" font-family="monospace" font-size="10.00" fill="#00ffcc">audio server</text>
</g>
<!-- alsa&#45;&gt;pw -->
<g id="edge2" class="edge">
<title>alsa&#45;&gt;pw</title>
<path fill="none" stroke="#00aaff" stroke-width="1.5" d="M251.12,-26C275.98,-26 314.14,-26 345.54,-26"/>
<polygon fill="#00aaff" stroke="#00aaff" stroke-width="1.5" points="345.9,-29.5 355.9,-26 345.9,-22.5 345.9,-29.5"/>
<text text-anchor="middle" x="303.5" y="-28.8" font-family="monospace" font-size="9.00">kernel driver</text>
</g>
<!-- pa -->
<g id="node4" class="node">
<title>pa</title>
<polygon fill="#001520" stroke="#9900ff" stroke-width="2" points="639,-44 550,-44 550,-8 639,-8 639,-44"/>
<text text-anchor="middle" x="594.5" y="-29" font-family="monospace" font-size="10.00" fill="#9900ff">PulseAudio</text>
<text text-anchor="middle" x="594.5" y="-18" font-family="monospace" font-size="10.00" fill="#9900ff">compat layer</text>
</g>
<!-- pw&#45;&gt;pa -->
<g id="edge3" class="edge">
<title>pw&#45;&gt;pa</title>
<path fill="none" stroke="#00ffcc" stroke-width="1.5" d="M445.07,-26C473.08,-26 509.68,-26 539.52,-26"/>
<polygon fill="#00ffcc" stroke="#00ffcc" stroke-width="1.5" points="539.77,-29.5 549.77,-26 539.77,-22.5 539.77,-29.5"/>
<text text-anchor="middle" x="497.5" y="-28.8" font-family="monospace" font-size="9.00">compat bridge</text>
</g>
<!-- src -->
<g id="node5" class="node">
<title>src</title>
<polygon fill="#001520" stroke="#ff00ff" stroke-width="2" points="855,-46.5 676,-46.5 676,-5.5 855,-5.5 855,-46.5"/>
<text text-anchor="middle" x="765.5" y="-34.5" font-family="monospace" font-size="10.00" fill="#ff00ff">PW source</text>
<text text-anchor="middle" x="765.5" y="-23.5" font-family="monospace" font-size="10.00" fill="#ff00ff">alsa_input.usb&#45;UC03_UC03&#45;00</text>
<text text-anchor="middle" x="765.5" y="-12.5" font-family="monospace" font-size="10.00" fill="#ff00ff">.mono&#45;fallback</text>
</g>
<!-- pa&#45;&gt;src -->
<g id="edge4" class="edge">
<title>pa&#45;&gt;src</title>
<path fill="none" stroke="#9900ff" stroke-width="1.5" d="M639.02,-26C647.35,-26 656.39,-26 665.66,-26"/>
<polygon fill="#9900ff" stroke="#9900ff" stroke-width="1.5" points="665.79,-29.5 675.79,-26 665.79,-22.5 665.79,-29.5"/>
</g>
<!-- parec -->
<g id="node6" class="node">
<title>parec</title>
<polygon fill="#001520" stroke="#39ff14" stroke-width="2" points="1045,-52 944,-52 944,0 1045,0 1045,-52"/>
<text text-anchor="middle" x="994.5" y="-40" font-family="monospace" font-size="10.00" fill="#39ff14">parec</text>
<text text-anchor="middle" x="994.5" y="-29" font-family="monospace" font-size="10.00" fill="#39ff14">&#45;&#45;format=s16le</text>
<text text-anchor="middle" x="994.5" y="-18" font-family="monospace" font-size="10.00" fill="#39ff14">&#45;&#45;rate=32000</text>
<text text-anchor="middle" x="994.5" y="-7" font-family="monospace" font-size="10.00" fill="#39ff14">&#45;&#45;channels=1</text>
</g>
<!-- src&#45;&gt;parec -->
<g id="edge5" class="edge">
<title>src&#45;&gt;parec</title>
<path fill="none" stroke="#39ff14" stroke-width="1.5" d="M855.24,-26C881.57,-26 909.77,-26 933.79,-26"/>
<polygon fill="#39ff14" stroke="#39ff14" stroke-width="1.5" points="933.81,-29.5 943.81,-26 933.81,-22.5 933.81,-29.5"/>
<text text-anchor="middle" x="899.5" y="-28.8" font-family="monospace" font-size="9.00">PCM stream</text>
</g>
</g>
</svg>
