<?xml version="1.0" encoding="UTF-8" standalone="no"?>
<!DOCTYPE svg PUBLIC "-//W3C//DTD SVG 1.1//EN"
 "http://www.w3.org/Graphics/SVG/1.1/DTD/svg11.dtd">
<!-- Generated by graphviz version 2.43.0 (0)
 -->
<!-- Title: %3 Pages: 1 -->
<svg width="496pt" height="210pt"
 viewBox="0.00 0.00 496.00 210.00" xmlns="http://www.w3.org/2000/svg" xmlns:xlink="http://www.w3.org/1999/xlink">
<g id="graph0" class="graph" transform="scale(1 1) rotate(0) translate(4 206)">
<title>%3</title>
<polygon fill="#0a0a1a" stroke="transparent" points="-4,4 -4,-206 492,-206 492,4 -4,4"/>
<!-- seg -->
<g id="node1" class="node">
<title>seg</title>
<polygon fill="#0a001a" stroke="#ff00ff" stroke-width="2" points="31,-165.5 31,-201.5 474,-201.5 474,-165.5 31,-165.5"/>
<text text-anchor="middle" x="252.5" y="-181" font-family="monospace" font-size="10.00" fill="#ff00ff">Segment────────────────.start float.end float.text str.words list[Word]</text>
</g>
<!-- word -->
<g id="node2" class="node">
<title>word</title>
<polygon fill="#001520" stroke="#00ffff" stroke-width="2" points="19,-82.5 19,-118.5 486,-118.5 486,-82.5 19,-82.5"/>
<text text-anchor="middle" x="252.5" y="-98" font-family="monospace" font-size="10.00" fill="#00ffff">Word────────────────.start float.end float.word str.probability float (0&#45;1)</text>
</g>
<!-- seg&#45;&gt;word -->
<g id="edge1" class="edge">
<title>seg&#45;&gt;word</title>
<path fill="none" stroke="#ff00ff" stroke-width="1.5" d="M252.5,-165.32C252.5,-154.69 252.5,-140.81 252.5,-128.7"/>
<polygon fill="#ff00ff" stroke="#ff00ff" stroke-width="1.5" points="256,-128.65 252.5,-118.65 249,-128.65 256,-128.65"/>
<text text-anchor="middle" x="260.5" y="-139.8" font-family="monospace" font-size="9.00">1:N</text>
</g>
<!-- prob_hi -->
<g id="node3" class="node">
<title>prob_hi</title>
<polygon fill="#001a00" stroke="#39ff14" stroke-width="2" points="101,-36 0,-36 0,0 101,0 101,-36"/>
<text text-anchor="middle" x="50.5" y="-21" font-family="monospace" font-size="10.00" fill="#39ff14">prob ≥ 0.92</text>
<text text-anchor="middle" x="50.5" y="-10" font-family="monospace" font-size="10.00" fill="#39ff14">→ bright white</text>
</g>
<!-- word&#45;&gt;prob_hi -->
<g id="edge2" class="edge">
<title>word&#45;&gt;prob_hi</title>
<path fill="none" stroke="#39ff14" stroke-width="1.5" d="M196.78,-82.44C180.13,-76.96 161.94,-70.59 145.5,-64 128.08,-57.02 109.33,-48.38 93.13,-40.55"/>
<polygon fill="#39ff14" stroke="#39ff14" stroke-width="1.5" points="94.43,-37.29 83.91,-36.05 91.36,-43.58 94.43,-37.29"/>
<text text-anchor="middle" x="177.5" y="-56.8" font-family="monospace" font-size="9.00">.probability</text>
</g>
<!-- prob_mid -->
<g id="node4" class="node">
<title>prob_mid</title>
<polygon fill="#0d0d0d" stroke="#e0e0e0" stroke-width="2" points="244,-36 119,-36 119,0 244,0 244,-36"/>
<text text-anchor="middle" x="181.5" y="-21" font-family="monospace" font-size="10.00" fill="#e0e0e0">0.75 ≤ prob &lt; 0.92</text>
<text text-anchor="middle" x="181.5" y="-10" font-family="monospace" font-size="10.00" fill="#e0e0e0">→ normal</text>
</g>
<!-- word&#45;&gt;prob_mid -->
<g id="edge3" class="edge">
<title>word&#45;&gt;prob_mid</title>
<path fill="none" stroke="#e0e0e0" stroke-width="1.5" d="M237.44,-82.43C227.56,-71.22 214.47,-56.38 203.43,-43.87"/>
<polygon fill="#e0e0e0" stroke="#e0e0e0" stroke-width="1.5" points="205.78,-41.23 196.54,-36.05 200.53,-45.86 205.78,-41.23"/>
</g>
<!-- prob_unc -->
<g id="node5" class="node">
<title>prob_unc</title>
<polygon fill="#1a1a00" stroke="#ffff00" stroke-width="2" points="387,-36 262,-36 262,0 387,0 387,-36"/>
<text text-anchor="middle" x="324.5" y="-21" font-family="monospace" font-size="10.00" fill="#ffff00">0.50 ≤ prob &lt; 0.75</text>
<text text-anchor="middle" x="324.5" y="-10" font-family="monospace" font-size="10.00" fill="#ffff00">→ yellow</text>
</g>
<!-- word&#45;&gt;prob_unc -->
<g id="edge4" class="edge">
<title>word&#45;&gt;prob_unc</title>
<path fill="none" stroke="#ffff00" stroke-width="1.5" d="M267.77,-82.43C277.89,-71.11 291.32,-56.1 302.58,-43.51"/>
<polygon fill="#ffff00" stroke="#ffff00" stroke-width="1.5" points="305.19,-45.83 309.25,-36.05 299.98,-41.17 305.19,-45.83"/>
</g>
<!-- prob_lo -->
<g id="node6" class="node">
<title>prob_lo</title>
<polygon fill="#1a0000" stroke="#ff2244" stroke-width="2" points="488,-36 405,-36 405,0 488,0 488,-36"/>
<text text-anchor="middle" x="446.5" y="-21" font-family="monospace" font-size="10.00" fill="#ff2244">prob &lt; 0.50</text>
<text text-anchor="middle" x="446.5" y="-10" font-family="monospace" font-size="10.00" fill="#ff2244">→ red</text>
</g>
<!-- word&#45;&gt;prob_lo -->
<g id="edge5" class="edge">
<title>word&#45;&gt;prob_lo</title>
<path fill="none" stroke="#ff2244" stroke-width="1.5" d="M293.64,-82.43C323.48,-70.05 364.01,-53.23 395.84,-40.02"/>
<polygon fill="#ff2244" stroke="#ff2244" stroke-width="1.5" points="397.52,-43.11 405.42,-36.05 394.84,-36.65 397.52,-43.11"/>
</g>
</g>
</svg>
