<?xml version="1.0" encoding="UTF-8" standalone="no"?>
<!DOCTYPE svg PUBLIC "-//W3C//DTD SVG 1.1//EN"
 "http://www.w3.org/Graphics/SVG/1.1/DTD/svg11.dtd">
<!-- Generated by graphviz version 2.43.0 (0)
 -->
<!-- Title: %3 Pages: 1 -->
<svg width="227pt" height="473pt"
 viewBox="0.00 0.00 226.58 472.50" xmlns="http://www.w3.org/2000/svg" xmlns:xlink="http://www.w3.org/1999/xlink">
<g id="graph0" class="graph" transform="scale(1 1) rotate(0) translate(4 468.5)">
<title>%3</title>
<polygon fill="#080818" stroke="transparent" points="-4,4 -4,-468.5 222.58,-468.5 222.58,4 -4,4"/>
<!-- inv -->
<g id="node1" class="node">
<title>inv</title>
<polygon fill="#001520" stroke="#00ffff" stroke-width="2" points="201,-464.5 58,-464.5 58,-428.5 201,-428.5 201,-464.5"/>
<text text-anchor="middle" x="129.5" y="-444" font-family="monospace" font-size="10.00" fill="#00ffff">transcribe.py invoked</text>
</g>
<!-- chk -->
<g id="node3" class="node">
<title>chk</title>
<polygon fill="#0d0d0d" stroke="#ffff00" stroke-width="2" points="129.5,-391.5 40.35,-373.5 129.5,-355.5 218.65,-373.5 129.5,-391.5"/>
<text text-anchor="middle" x="129.5" y="-371" font-family="monospace" font-size="10.00" fill="#ffff00">Already cached?</text>
</g>
<!-- inv&#45;&gt;chk -->
<g id="edge1" class="edge">
<title>inv&#45;&gt;chk</title>
<path fill="none" stroke="#00ffff" stroke-width="1.5" d="M129.5,-428.31C129.5,-420.29 129.5,-410.55 129.5,-401.57"/>
<polygon fill="#00ffff" stroke="#00ffff" stroke-width="1.5" points="133,-401.53 129.5,-391.53 126,-401.53 133,-401.53"/>
</g>
<!-- cache -->
<g id="node2" class="node">
<title>cache</title>
<path fill="#0a001a" stroke="#ff00ff" stroke-width="2" d="M143,-215.8C143,-219.36 110.95,-222.25 71.5,-222.25 32.05,-222.25 0,-219.36 0,-215.8 0,-215.8 0,-157.7 0,-157.7 0,-154.14 32.05,-151.25 71.5,-151.25 110.95,-151.25 143,-154.14 143,-157.7 143,-157.7 143,-215.8 143,-215.8"/>
<path fill="none" stroke="#ff00ff" stroke-width="2" d="M143,-215.8C143,-212.24 110.95,-209.34 71.5,-209.34 32.05,-209.34 0,-212.24 0,-215.8"/>
<text text-anchor="middle" x="71.5" y="-200.75" font-family="monospace" font-size="10.00" fill="#ff00ff">~/.cache/huggingface/</text>
<text text-anchor="middle" x="71.5" y="-189.75" font-family="monospace" font-size="10.00" fill="#ff00ff">hub/models&#45;&#45;Systran&#45;&#45;</text>
<text text-anchor="middle" x="71.5" y="-178.75" font-family="monospace" font-size="10.00" fill="#ff00ff">faster&#45;whisper&#45;medium</text>
<text text-anchor="middle" x="71.5" y="-167.75" font-family="monospace" font-size="10.00" fill="#ff00ff">(~1.5 GB)</text>
</g>
<!-- vram -->
<g id="node5" class="node">
<title>vram</title>
<polygon fill="#1a0000" stroke="#ff2244" stroke-width="2" points="172,-114 71,-114 71,-73 172,-73 172,-114"/>
<text text-anchor="middle" x="121.5" y="-102" font-family="monospace" font-size="10.00" fill="#ff2244">Load into VRAM</text>
<text text-anchor="middle" x="121.5" y="-91" font-family="monospace" font-size="10.00" fill="#ff2244">float16</text>
<text text-anchor="middle" x="121.5" y="-80" font-family="monospace" font-size="10.00" fill="#ff2244">~1.5GB</text>
</g>
<!-- cache&#45;&gt;vram -->
<g id="edge5" class="edge">
<title>cache&#45;&gt;vram</title>
<path fill="none" stroke="#ff2244" stroke-width="1.5" d="M90.55,-150.99C95.63,-141.72 101.05,-131.82 105.92,-122.93"/>
<polygon fill="#ff2244" stroke="#ff2244" stroke-width="1.5" points="109.02,-124.56 110.76,-114.11 102.88,-121.19 109.02,-124.56"/>
</g>
<!-- dl -->
<g id="node4" class="node">
<title>dl</title>
<polygon fill="#1a0a00" stroke="#ff6600" stroke-width="2" points="139,-309.5 26,-309.5 26,-268.5 139,-268.5 139,-309.5"/>
<text text-anchor="middle" x="82.5" y="-297.5" font-family="monospace" font-size="10.00" fill="#ff6600">Download from</text>
<text text-anchor="middle" x="82.5" y="-286.5" font-family="monospace" font-size="10.00" fill="#ff6600">HuggingFace Hub</text>
<text text-anchor="middle" x="82.5" y="-275.5" font-family="monospace" font-size="10.00" fill="#ff6600">(first run only)</text>
</g>
<!-- chk&#45;&gt;dl -->
<g id="edge2" class="edge">
<title>chk&#45;&gt;dl</title>
<path fill="none" stroke="#ff6600" stroke-width="1.5" d="M120.66,-356.98C114.5,-346.17 106.1,-331.42 98.74,-318.51"/>
<polygon fill="#ff6600" stroke="#ff6600" stroke-width="1.5" points="101.61,-316.48 93.62,-309.53 95.53,-319.95 101.61,-316.48"/>
<text text-anchor="middle" x="115" y="-330.3" font-family="monospace" font-size="9.00">no</text>
</g>
<!-- chk&#45;&gt;vram -->
<g id="edge3" class="edge">
<title>chk&#45;&gt;vram</title>
<path fill="none" stroke="#39ff14" stroke-width="1.5" d="M135.22,-356.42C139.42,-343.83 144.84,-325.78 147.5,-309.5 158.87,-239.96 168.53,-219.38 151.5,-151 149.12,-141.42 144.77,-131.69 140.12,-123.06"/>
<polygon fill="#39ff14" stroke="#39ff14" stroke-width="1.5" points="143.04,-121.11 135.02,-114.19 136.97,-124.6 143.04,-121.11"/>
<text text-anchor="middle" x="167.5" y="-243.3" font-family="monospace" font-size="9.00">yes</text>
</g>
<!-- dl&#45;&gt;cache -->
<g id="edge4" class="edge">
<title>dl&#45;&gt;cache</title>
<path fill="none" stroke="#ff6600" stroke-width="1.5" d="M80.33,-268.19C79.21,-258.03 77.8,-245.2 76.44,-232.79"/>
<polygon fill="#ff6600" stroke="#ff6600" stroke-width="1.5" points="79.89,-232.09 75.32,-222.54 72.93,-232.86 79.89,-232.09"/>
<text text-anchor="middle" x="89.5" y="-243.3" font-family="monospace" font-size="9.00">save</text>
</g>
<!-- ready -->
<g id="node6" class="node">
<title>ready</title>
<polygon fill="#001500" stroke="#39ff14" stroke-width="2" points="172,-36 71,-36 71,0 172,0 172,-36"/>
<text text-anchor="middle" x="121.5" y="-21" font-family="monospace" font-size="10.00" fill="#39ff14">Model ready</text>
<text text-anchor="middle" x="121.5" y="-10" font-family="monospace" font-size="10.00" fill="#39ff14">→ transcribe()</text>
</g>
<!-- vram&#45;&gt;ready -->
<g id="edge6" class="edge">
<title>vram&#45;&gt;ready</title>
<path fill="none" stroke="#39ff14" stroke-width="1.5" d="M121.5,-72.8C121.5,-64.7 121.5,-55.18 121.5,-46.41"/>
<polygon fill="#39ff14" stroke="#39ff14" stroke-width="1.5" points="125,-46.25 121.5,-36.25 118,-46.25 125,-46.25"/>
</g>
</g>
</svg>
