<?xml version="1.0" encoding="UTF-8" standalone="no"?>
<!DOCTYPE svg PUBLIC "-//W3C//DTD SVG 1.1//EN"
 "http://www.w3.org/Graphics/SVG/1.1/DTD/svg11.dtd">
<!-- Generated by graphviz version 2.43.0 (0)
 -->
<!-- Title: %3 Pages: 1 -->
<svg width="247pt" height="347pt"
 viewBox="0.00 0.00 247.00 347.00" xmlns="http://www.w3.org/2000/svg" xmlns:xlink="http://www.w3.org/1999/xlink">
<g id="graph0" class="graph" transform="scale(1 1) rotate(0) translate(4 343)">
<title>%3</title>
<polygon fill="#111827" stroke="transparent" points="-4,4 -4,-343 243,-343 243,4 -4,4"/>
<!-- vram -->
<g id="node1" class="node">
<title>vram</title>
<polygon fill="#0a0000" stroke="#ff2244" stroke-width="2" points="191,-41 48,-41 48,0 191,0 191,-41"/>
<text text-anchor="middle" x="119.5" y="-29" font-family="monospace" font-size="10.00" fill="#ff2244">NVIDIA VRAM</text>
<text text-anchor="middle" x="119.5" y="-18" font-family="monospace" font-size="10.00" fill="#ff2244">~1.5GB (medium model)</text>
<text text-anchor="middle" x="119.5" y="-7" font-family="monospace" font-size="10.00" fill="#ff2244">RTX 3060 + RTX 3080</text>
</g>
<!-- cuda -->
<g id="node2" class="node">
<title>cuda</title>
<polygon fill="#1a0000" stroke="#ff6600" stroke-width="2" points="182,-118 57,-118 57,-77 182,-77 182,-118"/>
<text text-anchor="middle" x="119.5" y="-106" font-family="monospace" font-size="10.00" fill="#ff6600">CUDA 12 runtime</text>
<text text-anchor="middle" x="119.5" y="-95" font-family="monospace" font-size="10.00" fill="#ff6600">libcublas.so.12</text>
<text text-anchor="middle" x="119.5" y="-84" font-family="monospace" font-size="10.00" fill="#ff6600">(/usr/lib/ollama/)</text>
</g>
<!-- vram&#45;&gt;cuda -->
<g id="edge1" class="edge">
<title>vram&#45;&gt;cuda</title>
<path fill="none" stroke="#ff2244" stroke-width="1.5" d="M119.5,-41.21C119.5,-49.04 119.5,-58.23 119.5,-66.84"/>
<polygon fill="#ff2244" stroke="#ff2244" stroke-width="1.5" points="116,-66.93 119.5,-76.93 123,-66.93 116,-66.93"/>
</g>
<!-- ct2 -->
<g id="node3" class="node">
<title>ct2</title>
<polygon fill="#1a0010" stroke="#ff1493" stroke-width="2" points="197,-190 42,-190 42,-154 197,-154 197,-190"/>
<text text-anchor="middle" x="119.5" y="-175" font-family="monospace" font-size="10.00" fill="#ff1493">ctranslate2</text>
<text text-anchor="middle" x="119.5" y="-164" font-family="monospace" font-size="10.00" fill="#ff1493">(fast inference engine)</text>
</g>
<!-- cuda&#45;&gt;ct2 -->
<g id="edge2" class="edge">
<title>cuda&#45;&gt;ct2</title>
<path fill="none" stroke="#ff6600" stroke-width="1.5" d="M119.5,-118.31C119.5,-126.09 119.5,-135.16 119.5,-143.55"/>
<polygon fill="#ff6600" stroke="#ff6600" stroke-width="1.5" points="116,-143.68 119.5,-153.68 123,-143.68 116,-143.68"/>
</g>
<!-- fw -->
<g id="node4" class="node">
<title>fw</title>
<polygon fill="#0a001a" stroke="#ff00ff" stroke-width="2" points="176,-262 63,-262 63,-226 176,-226 176,-262"/>
<text text-anchor="middle" x="119.5" y="-247" font-family="monospace" font-size="10.00" fill="#ff00ff">faster&#45;whisper</text>
<text text-anchor="middle" x="119.5" y="-236" font-family="monospace" font-size="10.00" fill="#ff00ff">(Python wrapper)</text>
</g>
<!-- ct2&#45;&gt;fw -->
<g id="edge3" class="edge">
<title>ct2&#45;&gt;fw</title>
<path fill="none" stroke="#ff1493" stroke-width="1.5" d="M119.5,-190.3C119.5,-198.02 119.5,-207.29 119.5,-215.89"/>
<polygon fill="#ff1493" stroke="#ff1493" stroke-width="1.5" points="116,-215.9 119.5,-225.9 123,-215.9 116,-215.9"/>
</g>
<!-- py -->
<g id="node5" class="node">
<title>py</title>
<polygon fill="#001520" stroke="#00ffff" stroke-width="2" points="239,-339 0,-339 0,-298 239,-298 239,-339"/>
<text text-anchor="middle" x="119.5" y="-327" font-family="monospace" font-size="10.00" fill="#00ffff">transcribe.py</text>
<text text-anchor="middle" x="119.5" y="-316" font-family="monospace" font-size="10.00" fill="#00ffff">WhisperModel(&#39;medium&#39;, device=&#39;cuda&#39;,</text>
<text text-anchor="middle" x="119.5" y="-305" font-family="monospace" font-size="10.00" fill="#00ffff">compute_type=&#39;float16&#39;)</text>
</g>
<!-- fw&#45;&gt;py -->
<g id="edge4" class="edge">
<title>fw&#45;&gt;py</title>
<path fill="none" stroke="#ff00ff" stroke-width="1.5" d="M119.5,-262.18C119.5,-269.8 119.5,-279 119.5,-287.68"/>
<polygon fill="#ff00ff" stroke="#ff00ff" stroke-width="1.5" points="116,-287.88 119.5,-297.88 123,-287.88 116,-287.88"/>
</g>
</g>
</svg>
