<?xml version="1.0" encoding="UTF-8" standalone="no"?>
<!DOCTYPE svg PUBLIC "-//W3C//DTD SVG 1.1//EN"
 "http://www.w3.org/Graphics/SVG/1.1/DTD/svg11.dtd">
<!-- Generated by graphviz version 2.43.0 (0)
 -->
<!-- Title: %3 Pages: 1 -->
<svg width="193pt" height="422pt"
 viewBox="0.00 0.00 193.00 422.00" xmlns="http://www.w3.org/2000/svg" xmlns:xlink="http://www.w3.org/1999/xlink">
<g id="graph0" class="graph" transform="scale(1 1) rotate(0) translate(4 418)">
<title>%3</title>
<polygon fill="#0f0f0f" stroke="transparent" points="-4,4 -4,-418 189,-418 189,4 -4,4"/>
<!-- load -->
<g id="node1" class="node">
<title>load</title>
<polygon fill="#0a001a" stroke="#ff00ff" stroke-width="2" points="176,-414 9,-414 9,-362 176,-362 176,-414"/>
<text text-anchor="middle" x="92.5" y="-402" font-family="monospace" font-size="10.00" fill="#ff00ff">WhisperModel(&#39;medium&#39;,</text>
<text text-anchor="middle" x="92.5" y="-391" font-family="monospace" font-size="10.00" fill="#ff00ff"> &#160;device=&#39;cuda&#39;,</text>
<text text-anchor="middle" x="92.5" y="-380" font-family="monospace" font-size="10.00" fill="#ff00ff"> &#160;compute_type=&#39;float16&#39;)</text>
<text text-anchor="middle" x="92.5" y="-369" font-family="monospace" font-size="10.00" fill="#ff00ff">→ loads to VRAM once</text>
</g>
<!-- call -->
<g id="node2" class="node">
<title>call</title>
<polygon fill="#001520" stroke="#00ffff" stroke-width="2" points="167,-316 18,-316 18,-242 167,-242 167,-316"/>
<text text-anchor="middle" x="92.5" y="-304" font-family="monospace" font-size="10.00" fill="#00ffff">model.transcribe(</text>
<text text-anchor="middle" x="92.5" y="-293" font-family="monospace" font-size="10.00" fill="#00ffff"> &#160;wav_path,</text>
<text text-anchor="middle" x="92.5" y="-282" font-family="monospace" font-size="10.00" fill="#00ffff"> &#160;beam_size=5,</text>
<text text-anchor="middle" x="92.5" y="-271" font-family="monospace" font-size="10.00" fill="#00ffff"> &#160;language=&#39;en&#39;,</text>
<text text-anchor="middle" x="92.5" y="-260" font-family="monospace" font-size="10.00" fill="#00ffff"> &#160;word_timestamps=True</text>
<text text-anchor="middle" x="92.5" y="-249" font-family="monospace" font-size="10.00" fill="#00ffff">)</text>
</g>
<!-- load&#45;&gt;call -->
<g id="edge1" class="edge">
<title>load&#45;&gt;call</title>
<path fill="none" stroke="#00ffff" stroke-width="1.5" d="M92.5,-361.91C92.5,-351.3 92.5,-338.58 92.5,-326.36"/>
<polygon fill="#00ffff" stroke="#00ffff" stroke-width="1.5" points="96,-326.28 92.5,-316.28 89,-326.28 96,-326.28"/>
<text text-anchor="middle" x="137.5" y="-336.8" font-family="monospace" font-size="9.00">call transcribe()</text>
</g>
<!-- gen -->
<g id="node3" class="node">
<title>gen</title>
<polygon fill="#001a00" stroke="#39ff14" stroke-width="2" points="179,-196 6,-196 6,-155 179,-155 179,-196"/>
<text text-anchor="middle" x="92.5" y="-184" font-family="monospace" font-size="10.00" fill="#39ff14">generator yields</text>
<text text-anchor="middle" x="92.5" y="-173" font-family="monospace" font-size="10.00" fill="#39ff14">Segment objects</text>
<text text-anchor="middle" x="92.5" y="-162" font-family="monospace" font-size="10.00" fill="#39ff14">(streaming — not buffered)</text>
</g>
<!-- call&#45;&gt;gen -->
<g id="edge2" class="edge">
<title>call&#45;&gt;gen</title>
<path fill="none" stroke="#39ff14" stroke-width="1.5" d="M92.5,-241.93C92.5,-230.27 92.5,-217.48 92.5,-206.33"/>
<polygon fill="#39ff14" stroke="#39ff14" stroke-width="1.5" points="96,-206.22 92.5,-196.22 89,-206.22 96,-206.22"/>
<text text-anchor="middle" x="137.5" y="-216.8" font-family="monospace" font-size="9.00">returns generator</text>
</g>
<!-- loop -->
<g id="node4" class="node">
<title>loop</title>
<polygon fill="#001500" stroke="#ccff00" stroke-width="2" points="185,-109 0,-109 0,-73 185,-73 185,-109"/>
<text text-anchor="middle" x="92.5" y="-94" font-family="monospace" font-size="10.00" fill="#ccff00">for segment in segments:</text>
<text text-anchor="middle" x="92.5" y="-83" font-family="monospace" font-size="10.00" fill="#ccff00"> &#160;for word in segment.words:</text>
</g>
<!-- gen&#45;&gt;loop -->
<g id="edge3" class="edge">
<title>gen&#45;&gt;loop</title>
<path fill="none" stroke="#ccff00" stroke-width="1.5" d="M92.5,-154.95C92.5,-144.3 92.5,-130.94 92.5,-119.28"/>
<polygon fill="#ccff00" stroke="#ccff00" stroke-width="1.5" points="96,-119.17 92.5,-109.17 89,-119.17 96,-119.17"/>
<text text-anchor="middle" x="111" y="-129.8" font-family="monospace" font-size="9.00">iterate</text>
</g>
<!-- out -->
<g id="node5" class="node">
<title>out</title>
<polygon fill="#1a001a" stroke="#ff1493" stroke-width="2" points="143,-36 42,-36 42,0 143,0 143,-36"/>
<text text-anchor="middle" x="92.5" y="-21" font-family="monospace" font-size="10.00" fill="#ff1493">animate_word()</text>
<text text-anchor="middle" x="92.5" y="-10" font-family="monospace" font-size="10.00" fill="#ff1493">or print()</text>
</g>
<!-- loop&#45;&gt;out -->
<g id="edge4" class="edge">
<title>loop&#45;&gt;out</title>
<path fill="none" stroke="#ff1493" stroke-width="1.5" d="M92.5,-72.81C92.5,-64.79 92.5,-55.05 92.5,-46.07"/>
<polygon fill="#ff1493" stroke="#ff1493" stroke-width="1.5" points="96,-46.03 92.5,-36.03 89,-46.03 96,-46.03"/>
</g>
</g>
</svg>
