<?xml version="1.0" encoding="UTF-8" standalone="no"?>
<!DOCTYPE svg PUBLIC "-//W3C//DTD SVG 1.1//EN"
 "http://www.w3.org/Graphics/SVG/1.1/DTD/svg11.dtd">
<!-- Generated by graphviz version 2.43.0 (0)
 -->
<!-- Title: %3 Pages: 1 -->
<svg width="1032pt" height="49pt"
 viewBox="0.00 0.00 1032.00 49.00" xmlns="http://www.w3.org/2000/svg" xmlns:xlink="http://www.w3.org/1999/xlink">
<g id="graph0" class="graph" transform="scale(1 1) rotate(0) translate(4 45)">
<title>%3</title>
<polygon fill="#0d0d0d" stroke="transparent" points="-4,4 -4,-45 1028,-45 1028,4 -4,4"/>
<!-- wav -->
<g id="node1" class="node">
<title>wav</title>
<polygon fill="#001520" stroke="#00ffff" stroke-width="2" points="77,-38.5 0,-38.5 0,-2.5 77,-2.5 77,-38.5"/>
<text text-anchor="middle" x="38.5" y="-23.5" font-family="monospace" font-size="10.00" fill="#00ffff">WAV file</text>
<text text-anchor="middle" x="38.5" y="-12.5" font-family="monospace" font-size="10.00" fill="#00ffff">32kHz mono</text>
</g>
<!-- mel -->
<g id="node2" class="node">
<title>mel</title>
<polygon fill="#001520" stroke="#00aaff" stroke-width="2" points="249,-41 166,-41 166,0 249,0 249,-41"/>
<text text-anchor="middle" x="207.5" y="-29" font-family="monospace" font-size="10.00" fill="#00aaff">Log&#45;Mel</text>
<text text-anchor="middle" x="207.5" y="-18" font-family="monospace" font-size="10.00" fill="#00aaff">Spectrogram</text>
<text text-anchor="middle" x="207.5" y="-7" font-family="monospace" font-size="10.00" fill="#00aaff">(80 bins)</text>
</g>
<!-- wav&#45;&gt;mel -->
<g id="edge1" class="edge">
<title>wav&#45;&gt;mel</title>
<path fill="none" stroke="#00ffff" stroke-width="1.5" d="M77.39,-20.5C100.57,-20.5 130.51,-20.5 155.72,-20.5"/>
<polygon fill="#00ffff" stroke="#00ffff" stroke-width="1.5" points="155.84,-24 165.84,-20.5 155.84,-17 155.84,-24"/>
<text text-anchor="middle" x="121.5" y="-23.3" font-family="monospace" font-size="9.00">librosa/av</text>
</g>
<!-- enc -->
<g id="node3" class="node">
<title>enc</title>
<polygon fill="#0a001a" stroke="#9900ff" stroke-width="2" points="417,-41 322,-41 322,0 417,0 417,-41"/>
<text text-anchor="middle" x="369.5" y="-29" font-family="monospace" font-size="10.00" fill="#9900ff">Whisper</text>
<text text-anchor="middle" x="369.5" y="-18" font-family="monospace" font-size="10.00" fill="#9900ff">Encoder</text>
<text text-anchor="middle" x="369.5" y="-7" font-family="monospace" font-size="10.00" fill="#9900ff">(transformer)</text>
</g>
<!-- mel&#45;&gt;enc -->
<g id="edge2" class="edge">
<title>mel&#45;&gt;enc</title>
<path fill="none" stroke="#9900ff" stroke-width="1.5" d="M249.29,-20.5C268.22,-20.5 291.04,-20.5 311.63,-20.5"/>
<polygon fill="#9900ff" stroke="#9900ff" stroke-width="1.5" points="311.84,-24 321.84,-20.5 311.84,-17 311.84,-24"/>
<text text-anchor="middle" x="285.5" y="-33.3" font-family="monospace" font-size="9.00">float16</text>
<text text-anchor="middle" x="285.5" y="-23.3" font-family="monospace" font-size="9.00">CUDA</text>
</g>
<!-- dec -->
<g id="node4" class="node">
<title>dec</title>
<polygon fill="#0a001a" stroke="#ff00ff" stroke-width="2" points="645,-41 532,-41 532,0 645,0 645,-41"/>
<text text-anchor="middle" x="588.5" y="-29" font-family="monospace" font-size="10.00" fill="#ff00ff">Whisper</text>
<text text-anchor="middle" x="588.5" y="-18" font-family="monospace" font-size="10.00" fill="#ff00ff">Decoder</text>
<text text-anchor="middle" x="588.5" y="-7" font-family="monospace" font-size="10.00" fill="#ff00ff">(autoregressive)</text>
</g>
<!-- enc&#45;&gt;dec -->
<g id="edge3" class="edge">
<title>enc&#45;&gt;dec</title>
<path fill="none" stroke="#ff00ff" stroke-width="1.5" d="M417.05,-20.5C447.52,-20.5 487.8,-20.5 521.55,-20.5"/>
<polygon fill="#ff00ff" stroke="#ff00ff" stroke-width="1.5" points="521.8,-24 531.8,-20.5 521.8,-17 521.8,-24"/>
<text text-anchor="middle" x="474.5" y="-23.3" font-family="monospace" font-size="9.00">key&#45;value cache</text>
</g>
<!-- tok -->
<g id="node5" class="node">
<title>tok</title>
<polygon fill="#0a001a" stroke="#ff1493" stroke-width="2" points="804,-38.5 739,-38.5 739,-2.5 804,-2.5 804,-38.5"/>
<text text-anchor="middle" x="771.5" y="-23.5" font-family="monospace" font-size="10.00">Token</text>
<text text-anchor="middle" x="771.5" y="-12.5" font-family="monospace" font-size="10.00">sequence</text>
</g>
<!-- dec&#45;&gt;tok -->
<g id="edge4" class="edge">
<title>dec&#45;&gt;tok</title>
<path fill="none" stroke="#ff1493" stroke-width="1.5" d="M645.28,-20.5C672.19,-20.5 703.91,-20.5 728.7,-20.5"/>
<polygon fill="#ff1493" stroke="#ff1493" stroke-width="1.5" points="728.86,-24 738.86,-20.5 728.86,-17 728.86,-24"/>
<text text-anchor="middle" x="692" y="-23.3" font-family="monospace" font-size="9.00">beam_size=5</text>
</g>
<!-- text -->
<g id="node6" class="node">
<title>text</title>
<polygon fill="#001500" stroke="#39ff14" stroke-width="2" points="1024,-41 893,-41 893,0 1024,0 1024,-41"/>
<text text-anchor="middle" x="958.5" y="-29" font-family="monospace" font-size="10.00" fill="#39ff14">Text</text>
<text text-anchor="middle" x="958.5" y="-18" font-family="monospace" font-size="10.00" fill="#39ff14">segments + words</text>
<text text-anchor="middle" x="958.5" y="-7" font-family="monospace" font-size="10.00" fill="#39ff14">+ timestamps + prob</text>
</g>
<!-- tok&#45;&gt;text -->
<g id="edge5" class="edge">
<title>tok&#45;&gt;text</title>
<path fill="none" stroke="#39ff14" stroke-width="1.5" d="M804.3,-20.5C825.83,-20.5 855.21,-20.5 882.49,-20.5"/>
<polygon fill="#39ff14" stroke="#39ff14" stroke-width="1.5" points="882.82,-24 892.82,-20.5 882.82,-17 882.82,-24"/>
<text text-anchor="middle" x="848.5" y="-23.3" font-family="monospace" font-size="9.00">detokenize</text>
</g>
</g>
</svg>
