<?xml version="1.0" encoding="UTF-8" standalone="no"?>
<!DOCTYPE svg PUBLIC "-//W3C//DTD SVG 1.1//EN"
 "http://www.w3.org/Graphics/SVG/1.1/DTD/svg11.dtd">
<!-- Generated by graphviz version 2.43.0 (0)
 -->
<!-- Title: %3 Pages: 1 -->
<svg width="444pt" height="436pt"
 viewBox="0.00 0.00 444.30 436.00" xmlns="http://www.w3.org/2000/svg" xmlns:xlink="http://www.w3.org/1999/xlink">
<g id="graph0" class="graph" transform="scale(1 1) rotate(0) translate(4 432)">
<title>%3</title>
<polygon fill="#0d0d0d" stroke="transparent" points="-4,4 -4,-432 440.3,-432 440.3,4 -4,4"/>
<!-- args -->
<g id="node1" class="node">
<title>args</title>
<polygon fill="#001520" stroke="#00ffff" stroke-width="2" points="383.4,-428 78.61,-428 0.2,-368 304.99,-368 383.4,-428"/>
<text text-anchor="middle" x="191.8" y="-401" font-family="monospace" font-size="10.00" fill="#00ffff">CLI args parsed</text>
<text text-anchor="middle" x="191.8" y="-390" font-family="monospace" font-size="10.00" fill="#00ffff">&#45;&#45;print / &#45;&#45;clip / (default)</text>
</g>
<!-- fancy -->
<g id="node2" class="node">
<title>fancy</title>
<polygon fill="#0d0d0d" stroke="#9900ff" stroke-width="2" points="191.8,-331 108.8,-301 191.8,-271 274.8,-301 191.8,-331"/>
<text text-anchor="middle" x="191.8" y="-304" font-family="monospace" font-size="10.00" fill="#9900ff">FANCY flag</text>
<text text-anchor="middle" x="191.8" y="-293" font-family="monospace" font-size="10.00" fill="#9900ff">&#45;&#45;no&#45;fancy?</text>
</g>
<!-- args&#45;&gt;fancy -->
<g id="edge1" class="edge">
<title>args&#45;&gt;fancy</title>
<path fill="none" stroke="#00ffff" stroke-width="1.5" d="M191.8,-367.98C191.8,-359.59 191.8,-350.28 191.8,-341.37"/>
<polygon fill="#00ffff" stroke="#00ffff" stroke-width="1.5" points="195.3,-341.17 191.8,-331.17 188.3,-341.17 195.3,-341.17"/>
</g>
<!-- f_print -->
<g id="node3" class="node">
<title>f_print</title>
<polygon fill="#0a001a" stroke="#ff00ff" stroke-width="2" points="195.3,-225 70.3,-225 70.3,-184 195.3,-184 195.3,-225"/>
<text text-anchor="middle" x="132.8" y="-213" font-family="monospace" font-size="10.00" fill="#ff00ff">fancy_transcribe()</text>
<text text-anchor="middle" x="132.8" y="-202" font-family="monospace" font-size="10.00" fill="#ff00ff">stream animation</text>
<text text-anchor="middle" x="132.8" y="-191" font-family="monospace" font-size="10.00" fill="#ff00ff">→ exit</text>
</g>
<!-- fancy&#45;&gt;f_print -->
<g id="edge2" class="edge">
<title>fancy&#45;&gt;f_print</title>
<path fill="none" stroke="#ff00ff" stroke-width="1.5" d="M175.79,-276.24C170.9,-268.85 165.56,-260.63 160.8,-253 156.99,-246.89 153,-240.27 149.26,-233.96"/>
<polygon fill="#ff00ff" stroke="#ff00ff" stroke-width="1.5" points="152.11,-231.9 144.02,-225.05 146.07,-235.44 152.11,-231.9"/>
<text text-anchor="middle" x="195.3" y="-245.8" font-family="monospace" font-size="9.00">fancy + print</text>
</g>
<!-- p_text -->
<g id="node4" class="node">
<title>p_text</title>
<polygon fill="#001500" stroke="#39ff14" stroke-width="2" points="344.3,-222.5 213.3,-222.5 213.3,-186.5 344.3,-186.5 344.3,-222.5"/>
<text text-anchor="middle" x="278.8" y="-207.5" font-family="monospace" font-size="10.00" fill="#39ff14">plain_transcribe()</text>
<text text-anchor="middle" x="278.8" y="-196.5" font-family="monospace" font-size="10.00" fill="#39ff14">TEXT=capture stdout</text>
</g>
<!-- fancy&#45;&gt;p_text -->
<g id="edge3" class="edge">
<title>fancy&#45;&gt;p_text</title>
<path fill="none" stroke="#39ff14" stroke-width="1.5" d="M211.98,-278.08C225.23,-263.69 242.58,-244.84 256.28,-229.96"/>
<polygon fill="#39ff14" stroke="#39ff14" stroke-width="1.5" points="258.87,-232.31 263.07,-222.59 253.72,-227.57 258.87,-232.31"/>
<text text-anchor="middle" x="298.3" y="-245.8" font-family="monospace" font-size="9.00">no&#45;fancy OR clip/type</text>
</g>
<!-- mode -->
<g id="node5" class="node">
<title>mode</title>
<polygon fill="#0d0d0d" stroke="#ffff00" stroke-width="2" points="278.8,-147 147.8,-117 278.8,-87 409.8,-117 278.8,-147"/>
<text text-anchor="middle" x="278.8" y="-120" font-family="monospace" font-size="10.00" fill="#ffff00">MODE switch</text>
<text text-anchor="middle" x="278.8" y="-109" font-family="monospace" font-size="10.00" fill="#ffff00">type / clip / print</text>
</g>
<!-- p_text&#45;&gt;mode -->
<g id="edge4" class="edge">
<title>p_text&#45;&gt;mode</title>
<path fill="none" stroke="#ffff00" stroke-width="1.5" d="M278.8,-186.2C278.8,-177.78 278.8,-167.29 278.8,-157.09"/>
<polygon fill="#ffff00" stroke="#ffff00" stroke-width="1.5" points="282.3,-157.06 278.8,-147.06 275.3,-157.06 282.3,-157.06"/>
</g>
<!-- type_ -->
<g id="node6" class="node">
<title>type_</title>
<polygon fill="#001520" stroke="#00aaff" stroke-width="2" points="192.3,-41 79.3,-41 79.3,0 192.3,0 192.3,-41"/>
<text text-anchor="middle" x="135.8" y="-29" font-family="monospace" font-size="10.00" fill="#00aaff">xdotool type</text>
<text text-anchor="middle" x="135.8" y="-18" font-family="monospace" font-size="10.00" fill="#00aaff">&#45;&#45;clearmodifiers</text>
<text text-anchor="middle" x="135.8" y="-7" font-family="monospace" font-size="10.00" fill="#00aaff">&#45;&#45;delay 20</text>
</g>
<!-- mode&#45;&gt;type_ -->
<g id="edge5" class="edge">
<title>mode&#45;&gt;type_</title>
<path fill="none" stroke="#00aaff" stroke-width="1.5" d="M245.99,-94.32C224.59,-80.18 196.57,-61.66 174.14,-46.84"/>
<polygon fill="#00aaff" stroke="#00aaff" stroke-width="1.5" points="175.81,-43.74 165.53,-41.15 171.95,-49.58 175.81,-43.74"/>
<text text-anchor="middle" x="217.8" y="-61.8" font-family="monospace" font-size="9.00">type</text>
</g>
<!-- clip -->
<g id="node7" class="node">
<title>clip</title>
<polygon fill="#001520" stroke="#00ffcc" stroke-width="2" points="347.3,-38.5 210.3,-38.5 210.3,-2.5 347.3,-2.5 347.3,-38.5"/>
<text text-anchor="middle" x="278.8" y="-23.5" font-family="monospace" font-size="10.00" fill="#00ffcc">echo &#45;n | xclip</text>
<text text-anchor="middle" x="278.8" y="-12.5" font-family="monospace" font-size="10.00" fill="#00ffcc">&#45;selection clipboard</text>
</g>
<!-- mode&#45;&gt;clip -->
<g id="edge6" class="edge">
<title>mode&#45;&gt;clip</title>
<path fill="none" stroke="#00ffcc" stroke-width="1.5" d="M278.8,-86.88C278.8,-74.75 278.8,-60.75 278.8,-48.82"/>
<polygon fill="#00ffcc" stroke="#00ffcc" stroke-width="1.5" points="282.3,-48.57 278.8,-38.57 275.3,-48.57 282.3,-48.57"/>
<text text-anchor="middle" x="289.8" y="-61.8" font-family="monospace" font-size="9.00">clip</text>
</g>
<!-- print -->
<g id="node8" class="node">
<title>print</title>
<polygon fill="#001520" stroke="#ccff00" stroke-width="2" points="436.3,-38.5 365.3,-38.5 365.3,-2.5 436.3,-2.5 436.3,-38.5"/>
<text text-anchor="middle" x="400.8" y="-23.5" font-family="monospace" font-size="10.00" fill="#ccff00">echo TEXT</text>
<text text-anchor="middle" x="400.8" y="-12.5" font-family="monospace" font-size="10.00" fill="#ccff00">→ stdout</text>
</g>
<!-- mode&#45;&gt;print -->
<g id="edge7" class="edge">
<title>mode&#45;&gt;print</title>
<path fill="none" stroke="#ccff00" stroke-width="1.5" d="M307.71,-93.6C326.62,-78.96 351.27,-59.87 370.46,-45"/>
<polygon fill="#ccff00" stroke="#ccff00" stroke-width="1.5" points="372.82,-47.6 378.58,-38.71 368.53,-42.07 372.82,-47.6"/>
<text text-anchor="middle" x="363.3" y="-61.8" font-family="monospace" font-size="9.00">print</text>
</g>
</g>
</svg>
