<?xml version="1.0" encoding="UTF-8" standalone="no"?>
<!DOCTYPE svg PUBLIC "-//W3C//DTD SVG 1.1//EN"
 "http://www.w3.org/Graphics/SVG/1.1/DTD/svg11.dtd">
<!-- Generated by graphviz version 2.43.0 (0)
 -->
<!-- Title: %3 Pages: 1 -->
<svg width="804pt" height="166pt"
 viewBox="0.00 0.00 804.00 166.00" xmlns="http://www.w3.org/2000/svg" xmlns:xlink="http://www.w3.org/1999/xlink">
<g id="graph0" class="graph" transform="scale(1 1) rotate(0) translate(4 162)">
<title>%3</title>
<polygon fill="#080818" stroke="transparent" points="-4,4 -4,-162 800,-162 800,4 -4,4"/>
<!-- UC03 -->
<g id="node1" class="node">
<title>UC03</title>
<polygon fill="#001520" stroke="#00ffff" stroke-width="2" points="54,-126 0,-126 0,-90 54,-90 54,-126"/>
<text text-anchor="middle" x="27" y="-110.8" font-family="monospace" font-size="9.00" fill="#00ffff">UC03</text>
<text text-anchor="middle" x="27" y="-100.8" font-family="monospace" font-size="9.00" fill="#00ffff">Mic</text>
</g>
<!-- parec -->
<g id="node2" class="node">
<title>parec</title>
<polygon fill="#001520" stroke="#00aaff" stroke-width="2" points="145,-126 91,-126 91,-90 145,-90 145,-126"/>
<text text-anchor="middle" x="118" y="-110.8" font-family="monospace" font-size="9.00" fill="#00aaff">parec</text>
<text text-anchor="middle" x="118" y="-100.8" font-family="monospace" font-size="9.00" fill="#00aaff">32kHz</text>
</g>
<!-- UC03&#45;&gt;parec -->
<g id="edge1" class="edge">
<title>UC03&#45;&gt;parec</title>
<path fill="none" stroke="black" stroke-width="1.5" d="M54.22,-108C62.55,-108 71.91,-108 80.82,-108"/>
<polygon fill="black" stroke="black" stroke-width="1.5" points="80.97,-111.5 90.97,-108 80.97,-104.5 80.97,-111.5"/>
</g>
<!-- raw -->
<g id="node3" class="node">
<title>raw</title>
<path fill="#0d0d0d" stroke="#555555" stroke-width="2" d="M236,-123.55C236,-125.45 223.9,-127 209,-127 194.1,-127 182,-125.45 182,-123.55 182,-123.55 182,-92.45 182,-92.45 182,-90.55 194.1,-89 209,-89 223.9,-89 236,-90.55 236,-92.45 236,-92.45 236,-123.55 236,-123.55"/>
<path fill="none" stroke="#555555" stroke-width="2" d="M236,-123.55C236,-121.64 223.9,-120.09 209,-120.09 194.1,-120.09 182,-121.64 182,-123.55"/>
<text text-anchor="middle" x="209" y="-110.8" font-family="monospace" font-size="9.00" fill="#555555">.raw</text>
<text text-anchor="middle" x="209" y="-100.8" font-family="monospace" font-size="9.00" fill="#555555">PCM</text>
</g>
<!-- parec&#45;&gt;raw -->
<g id="edge2" class="edge">
<title>parec&#45;&gt;raw</title>
<path fill="none" stroke="black" stroke-width="1.5" d="M145.22,-108C153.55,-108 162.91,-108 171.82,-108"/>
<polygon fill="black" stroke="black" stroke-width="1.5" points="171.97,-111.5 181.97,-108 171.97,-104.5 171.97,-111.5"/>
</g>
<!-- sox -->
<g id="node4" class="node">
<title>sox</title>
<polygon fill="#001a00" stroke="#39ff14" stroke-width="2" points="327,-126 273,-126 273,-90 327,-90 327,-126"/>
<text text-anchor="middle" x="300" y="-110.8" font-family="monospace" font-size="9.00" fill="#39ff14">sox</text>
<text text-anchor="middle" x="300" y="-100.8" font-family="monospace" font-size="9.00" fill="#39ff14">convert</text>
</g>
<!-- raw&#45;&gt;sox -->
<g id="edge3" class="edge">
<title>raw&#45;&gt;sox</title>
<path fill="none" stroke="black" stroke-width="1.5" d="M236.22,-108C244.55,-108 253.91,-108 262.82,-108"/>
<polygon fill="black" stroke="black" stroke-width="1.5" points="262.97,-111.5 272.97,-108 262.97,-104.5 262.97,-111.5"/>
</g>
<!-- wav -->
<g id="node5" class="node">
<title>wav</title>
<path fill="#0d0d0d" stroke="#555555" stroke-width="2" d="M418,-122.73C418,-124.53 405.9,-126 391,-126 376.1,-126 364,-124.53 364,-122.73 364,-122.73 364,-93.27 364,-93.27 364,-91.47 376.1,-90 391,-90 405.9,-90 418,-91.47 418,-93.27 418,-93.27 418,-122.73 418,-122.73"/>
<path fill="none" stroke="#555555" stroke-width="2" d="M418,-122.73C418,-120.92 405.9,-119.45 391,-119.45 376.1,-119.45 364,-120.92 364,-122.73"/>
<text text-anchor="middle" x="391" y="-105.8" font-family="monospace" font-size="9.00" fill="#555555">.wav</text>
</g>
<!-- sox&#45;&gt;wav -->
<g id="edge4" class="edge">
<title>sox&#45;&gt;wav</title>
<path fill="none" stroke="black" stroke-width="1.5" d="M327.22,-108C335.55,-108 344.91,-108 353.82,-108"/>
<polygon fill="black" stroke="black" stroke-width="1.5" points="353.97,-111.5 363.97,-108 353.97,-104.5 353.97,-111.5"/>
</g>
<!-- fw -->
<g id="node6" class="node">
<title>fw</title>
<polygon fill="#0a001a" stroke="#ff00ff" stroke-width="2" points="509,-127 455,-127 455,-89 509,-89 509,-127"/>
<text text-anchor="middle" x="482" y="-115.8" font-family="monospace" font-size="9.00" fill="#ff00ff">faster&#45;</text>
<text text-anchor="middle" x="482" y="-105.8" font-family="monospace" font-size="9.00" fill="#ff00ff">whisper</text>
<text text-anchor="middle" x="482" y="-95.8" font-family="monospace" font-size="9.00" fill="#ff00ff">GPU</text>
</g>
<!-- wav&#45;&gt;fw -->
<g id="edge5" class="edge">
<title>wav&#45;&gt;fw</title>
<path fill="none" stroke="black" stroke-width="1.5" d="M418.22,-108C426.55,-108 435.91,-108 444.82,-108"/>
<polygon fill="black" stroke="black" stroke-width="1.5" points="444.97,-111.5 454.97,-108 444.97,-104.5 444.97,-111.5"/>
</g>
<!-- fancy_out -->
<g id="node7" class="node">
<title>fancy_out</title>
<polygon fill="#0a001a" stroke="#ff1493" stroke-width="2" points="650,-158 591,-158 591,-122 650,-122 650,-158"/>
<text text-anchor="middle" x="620.5" y="-142.8" font-family="monospace" font-size="9.00" fill="#ff1493">animated</text>
<text text-anchor="middle" x="620.5" y="-132.8" font-family="monospace" font-size="9.00" fill="#ff1493">terminal</text>
</g>
<!-- fw&#45;&gt;fancy_out -->
<g id="edge6" class="edge">
<title>fw&#45;&gt;fancy_out</title>
<path fill="none" stroke="#ff1493" stroke-width="1.5" d="M509.32,-114.17C529.7,-118.95 558.22,-125.63 581.14,-131.01"/>
<polygon fill="#ff1493" stroke="#ff1493" stroke-width="1.5" points="580.37,-134.42 590.91,-133.3 581.97,-127.61 580.37,-134.42"/>
<text text-anchor="middle" x="550" y="-130.6" font-family="monospace" font-size="8.00">&#45;&#45;fancy</text>
</g>
<!-- plain_out -->
<g id="node8" class="node">
<title>plain_out</title>
<polygon fill="#001500" stroke="#39ff14" stroke-width="2" points="647.5,-99 593.5,-99 593.5,-63 647.5,-63 647.5,-99"/>
<text text-anchor="middle" x="620.5" y="-83.8" font-family="monospace" font-size="9.00" fill="#39ff14">TEXT</text>
<text text-anchor="middle" x="620.5" y="-73.8" font-family="monospace" font-size="9.00" fill="#39ff14">string</text>
</g>
<!-- fw&#45;&gt;plain_out -->
<g id="edge7" class="edge">
<title>fw&#45;&gt;plain_out</title>
<path fill="none" stroke="#39ff14" stroke-width="1.5" d="M509.02,-101.9C514.92,-100.57 521.17,-99.2 527,-98 545.41,-94.22 565.97,-90.4 583.02,-87.34"/>
<polygon fill="#39ff14" stroke="#39ff14" stroke-width="1.5" points="583.9,-90.74 593.13,-85.55 582.67,-83.85 583.9,-90.74"/>
<text text-anchor="middle" x="550" y="-100.6" font-family="monospace" font-size="8.00">&#45;&#45;no&#45;fancy</text>
</g>
<!-- print -->
<g id="node11" class="node">
<title>print</title>
<polygon fill="#001520" stroke="#ccff00" stroke-width="2" points="791,-154 737,-154 737,-118 791,-118 791,-154"/>
<text text-anchor="middle" x="764" y="-138.8" font-family="monospace" font-size="9.00" fill="#ccff00">stdout</text>
<text text-anchor="middle" x="764" y="-128.8" font-family="monospace" font-size="9.00" fill="#ccff00">print</text>
</g>
<!-- fancy_out&#45;&gt;print -->
<g id="edge11" class="edge">
<title>fancy_out&#45;&gt;print</title>
<path fill="none" stroke="#ff00ff" stroke-width="1.5" d="M650.13,-139.19C672.22,-138.57 702.92,-137.7 726.73,-137.03"/>
<polygon fill="#ff00ff" stroke="#ff00ff" stroke-width="1.5" points="726.9,-140.52 736.79,-136.74 726.7,-133.52 726.9,-140.52"/>
<text text-anchor="middle" x="691" y="-140.6" font-family="monospace" font-size="8.00">&#45;&#45;print</text>
</g>
<!-- type_ -->
<g id="node9" class="node">
<title>type_</title>
<polygon fill="#001520" stroke="#ffff00" stroke-width="2" points="791,-90 737,-90 737,-54 791,-54 791,-90"/>
<text text-anchor="middle" x="764" y="-74.8" font-family="monospace" font-size="9.00" fill="#ffff00">xdotool</text>
<text text-anchor="middle" x="764" y="-64.8" font-family="monospace" font-size="9.00" fill="#ffff00">type</text>
</g>
<!-- plain_out&#45;&gt;type_ -->
<g id="edge8" class="edge">
<title>plain_out&#45;&gt;type_</title>
<path fill="none" stroke="#ffff00" stroke-width="1.5" d="M647.96,-75.69C654.49,-74.6 661.47,-73.59 668,-73 687.18,-71.26 708.63,-70.9 726.28,-71.02"/>
<polygon fill="#ffff00" stroke="#ffff00" stroke-width="1.5" points="726.69,-74.53 736.73,-71.15 726.78,-67.53 726.69,-74.53"/>
<text text-anchor="middle" x="691" y="-75.6" font-family="monospace" font-size="8.00">(default)</text>
</g>
<!-- clip -->
<g id="node10" class="node">
<title>clip</title>
<polygon fill="#001520" stroke="#00ffcc" stroke-width="2" points="796,-36 732,-36 732,0 796,0 796,-36"/>
<text text-anchor="middle" x="764" y="-20.8" font-family="monospace" font-size="9.00" fill="#00ffcc">xclip</text>
<text text-anchor="middle" x="764" y="-10.8" font-family="monospace" font-size="9.00" fill="#00ffcc">clipboard</text>
</g>
<!-- plain_out&#45;&gt;clip -->
<g id="edge9" class="edge">
<title>plain_out&#45;&gt;clip</title>
<path fill="none" stroke="#00ffcc" stroke-width="1.5" d="M647.98,-68.28C654.51,-65.2 661.49,-61.94 668,-59 685.65,-51.02 705.29,-42.49 722.11,-35.28"/>
<polygon fill="#00ffcc" stroke="#00ffcc" stroke-width="1.5" points="723.82,-38.36 731.65,-31.21 721.07,-31.92 723.82,-38.36"/>
<text text-anchor="middle" x="691" y="-61.6" font-family="monospace" font-size="8.00">&#45;&#45;clip</text>
</g>
<!-- plain_out&#45;&gt;print -->
<g id="edge10" class="edge">
<title>plain_out&#45;&gt;print</title>
<path fill="none" stroke="#ccff00" stroke-width="1.5" d="M647.56,-90.16C666.17,-96.81 691.74,-106.15 714,-115 718.44,-116.77 723.09,-118.68 727.67,-120.6"/>
<polygon fill="#ccff00" stroke="#ccff00" stroke-width="1.5" points="726.34,-123.83 736.91,-124.52 729.07,-117.39 726.34,-123.83"/>
<text text-anchor="middle" x="691" y="-126.6" font-family="monospace" font-size="8.00">&#45;&#45;print</text>
<text text-anchor="middle" x="691" y="-117.6" font-family="monospace" font-size="8.00">&#45;&#45;no&#45;fancy</text>
</g>
</g>
</svg>
