<?xml version="1.0" encoding="UTF-8" standalone="no"?>
<!DOCTYPE svg PUBLIC "-//W3C//DTD SVG 1.1//EN"
 "http://www.w3.org/Graphics/SVG/1.1/DTD/svg11.dtd">
<!-- Generated by graphviz version 2.43.0 (0)
 -->
<!-- Title: %3 Pages: 1 -->
<svg width="374pt" height="259pt"
 viewBox="0.00 0.00 374.00 259.00" xmlns="http://www.w3.org/2000/svg" xmlns:xlink="http://www.w3.org/1999/xlink">
<g id="graph0" class="graph" transform="scale(1 1) rotate(0) translate(4 255)">
<title>%3</title>
<polygon fill="#111827" stroke="transparent" points="-4,4 -4,-255 370,-255 370,4 -4,4"/>
<g id="clust1" class="cluster">
<title>cluster_fancy</title>
<polygon fill="#050515" stroke="#ff00ff" stroke-width="2" points="8,-8 8,-243 190,-243 190,-8 8,-8"/>
<text text-anchor="middle" x="99" y="-227.8" font-family="monospace" font-size="14.00" fill="#ff00ff">fancy mode (default)</text>
</g>
<g id="clust2" class="cluster">
<title>cluster_plain</title>
<polygon fill="#051505" stroke="#39ff14" stroke-width="2" points="198,-8 198,-243 358,-243 358,-8 198,-8"/>
<text text-anchor="middle" x="278" y="-227.8" font-family="monospace" font-size="14.00" fill="#39ff14">&#45;&#45;no&#45;fancy mode</text>
</g>
<!-- fw_f -->
<g id="node1" class="node">
<title>fw_f</title>
<polygon fill="#0a001a" stroke="#ff00ff" stroke-width="2" points="167.5,-212 30.5,-212 30.5,-176 167.5,-176 167.5,-212"/>
<text text-anchor="middle" x="99" y="-191.5" font-family="monospace" font-size="10.00" fill="#ff00ff">word_timestamps=True</text>
</g>
<!-- anim -->
<g id="node2" class="node">
<title>anim</title>
<polygon fill="#0a001a" stroke="#ff1493" stroke-width="2" points="161.5,-140 36.5,-140 36.5,-88 161.5,-88 161.5,-140"/>
<text text-anchor="middle" x="99" y="-128" font-family="monospace" font-size="10.00" fill="#ff1493">animate_word()</text>
<text text-anchor="middle" x="99" y="-117" font-family="monospace" font-size="10.00" fill="#ff1493">scramble → resolve</text>
<text text-anchor="middle" x="99" y="-106" font-family="monospace" font-size="10.00" fill="#ff1493">+ confidence color</text>
<text text-anchor="middle" x="99" y="-95" font-family="monospace" font-size="10.00" fill="#ff1493">+ dim timestamp</text>
</g>
<!-- fw_f&#45;&gt;anim -->
<g id="edge1" class="edge">
<title>fw_f&#45;&gt;anim</title>
<path fill="none" stroke="#ff00ff" stroke-width="1.5" d="M99,-175.69C99,-168.21 99,-159.16 99,-150.36"/>
<polygon fill="#ff00ff" stroke="#ff00ff" stroke-width="1.5" points="102.5,-150.26 99,-140.26 95.5,-150.26 102.5,-150.26"/>
</g>
<!-- stream -->
<g id="node3" class="node">
<title>stream</title>
<polygon fill="#0a001a" stroke="#9900ff" stroke-width="2" points="170.5,-52 27.5,-52 27.5,-16 170.5,-16 170.5,-52"/>
<text text-anchor="middle" x="99" y="-37" font-family="monospace" font-size="10.00" fill="#9900ff">streams live to tty</text>
<text text-anchor="middle" x="99" y="-26" font-family="monospace" font-size="10.00" fill="#9900ff">(no capture into $())</text>
</g>
<!-- anim&#45;&gt;stream -->
<g id="edge2" class="edge">
<title>anim&#45;&gt;stream</title>
<path fill="none" stroke="#ff1493" stroke-width="1.5" d="M99,-87.89C99,-79.84 99,-70.88 99,-62.66"/>
<polygon fill="#ff1493" stroke="#ff1493" stroke-width="1.5" points="102.5,-62.41 99,-52.41 95.5,-62.41 102.5,-62.41"/>
</g>
<!-- fw_p -->
<g id="node4" class="node">
<title>fw_p</title>
<polygon fill="#001500" stroke="#39ff14" stroke-width="2" points="349.5,-212 206.5,-212 206.5,-176 349.5,-176 349.5,-212"/>
<text text-anchor="middle" x="278" y="-197" font-family="monospace" font-size="10.00" fill="#39ff14">word_timestamps=False</text>
<text text-anchor="middle" x="278" y="-186" font-family="monospace" font-size="10.00" fill="#39ff14">(faster)</text>
</g>
<!-- join -->
<g id="node5" class="node">
<title>join</title>
<polygon fill="#001500" stroke="#ccff00" stroke-width="2" points="340.5,-132 215.5,-132 215.5,-96 340.5,-96 340.5,-132"/>
<text text-anchor="middle" x="278" y="-111.5" font-family="monospace" font-size="10.00" fill="#ccff00">&#39; &#39;.join(seg.text)</text>
</g>
<!-- fw_p&#45;&gt;join -->
<g id="edge3" class="edge">
<title>fw_p&#45;&gt;join</title>
<path fill="none" stroke="#39ff14" stroke-width="1.5" d="M278,-175.69C278,-165.89 278,-153.42 278,-142.33"/>
<polygon fill="#39ff14" stroke="#39ff14" stroke-width="1.5" points="281.5,-142.26 278,-132.26 274.5,-142.26 281.5,-142.26"/>
</g>
<!-- cap -->
<g id="node6" class="node">
<title>cap</title>
<polygon fill="#001500" stroke="#00ffcc" stroke-width="2" points="340.5,-52 215.5,-52 215.5,-16 340.5,-16 340.5,-52"/>
<text text-anchor="middle" x="278" y="-37" font-family="monospace" font-size="10.00" fill="#00ffcc">captured into TEXT</text>
<text text-anchor="middle" x="278" y="-26" font-family="monospace" font-size="10.00" fill="#00ffcc">for dispatch</text>
</g>
<!-- join&#45;&gt;cap -->
<g id="edge4" class="edge">
<title>join&#45;&gt;cap</title>
<path fill="none" stroke="#ccff00" stroke-width="1.5" d="M278,-95.69C278,-85.89 278,-73.42 278,-62.33"/>
<polygon fill="#ccff00" stroke="#ccff00" stroke-width="1.5" points="281.5,-62.26 278,-52.26 274.5,-62.26 281.5,-62.26"/>
</g>
</g>
</svg>
