<?xml version="1.0" encoding="UTF-8" standalone="no"?>
<!DOCTYPE svg PUBLIC "-//W3C//DTD SVG 1.1//EN"
 "http://www.w3.org/Graphics/SVG/1.1/DTD/svg11.dtd">
<!-- Generated by graphviz version 2.43.0 (0)
 -->
<!-- Title: %3 Pages: 1 -->
<svg width="410pt" height="447pt"
 viewBox="0.00 0.00 410.09 447.00" xmlns="http://www.w3.org/2000/svg" xmlns:xlink="http://www.w3.org/1999/xlink">
<g id="graph0" class="graph" transform="scale(1 1) rotate(0) translate(4 443)">
<title>%3</title>
<polygon fill="#111827" stroke="transparent" points="-4,4 -4,-443 406.09,-443 406.09,4 -4,4"/>
<!-- enter -->
<g id="node1" class="node">
<title>enter</title>
<polygon fill="#001520" stroke="#00ffff" stroke-width="2" points="259.28,-293 52.98,-293 -0.09,-233 206.21,-233 259.28,-293"/>
<text text-anchor="middle" x="129.59" y="-266" font-family="monospace" font-size="10.00" fill="#00ffff">User presses Enter</text>
<text text-anchor="middle" x="129.59" y="-255" font-family="monospace" font-size="10.00" fill="#00ffff">(read &lt; /dev/tty)</text>
</g>
<!-- read_unblock -->
<g id="node6" class="node">
<title>read_unblock</title>
<polygon fill="#0d0d0d" stroke="#ffff00" stroke-width="2" points="194.59,-187 110.43,-169 194.59,-151 278.76,-169 194.59,-187"/>
<text text-anchor="middle" x="194.59" y="-166.5" font-family="monospace" font-size="10.00" fill="#ffff00">read unblocked</text>
</g>
<!-- enter&#45;&gt;read_unblock -->
<g id="edge1" class="edge">
<title>enter&#45;&gt;read_unblock</title>
<path fill="none" stroke="#00ffff" stroke-width="1.5" d="M150.16,-232.89C159.26,-220.01 169.81,-205.08 178.34,-193"/>
<polygon fill="#00ffff" stroke="#00ffff" stroke-width="1.5" points="181.24,-194.97 184.15,-184.78 175.52,-190.93 181.24,-194.97"/>
<text text-anchor="middle" x="186.59" y="-207.8" font-family="monospace" font-size="9.00">direct</text>
</g>
<!-- timer -->
<g id="node2" class="node">
<title>timer</title>
<polygon fill="#1a0a00" stroke="#ff6600" stroke-width="2" points="286.09,-439 143.09,-439 143.09,-403 286.09,-403 286.09,-439"/>
<text text-anchor="middle" x="214.59" y="-424" font-family="monospace" font-size="10.00" fill="#ff6600">65s timer fires</text>
<text text-anchor="middle" x="214.59" y="-413" font-family="monospace" font-size="10.00" fill="#ff6600">(background subshell)</text>
</g>
<!-- kill_p -->
<g id="node3" class="node">
<title>kill_p</title>
<polygon fill="#0d0d0d" stroke="#ff2244" stroke-width="2" points="253.09,-366 152.09,-366 152.09,-330 253.09,-330 253.09,-366"/>
<text text-anchor="middle" x="202.59" y="-345.5" font-family="monospace" font-size="10.00" fill="#ff2244">kill PAREC_PID</text>
</g>
<!-- timer&#45;&gt;kill_p -->
<g id="edge2" class="edge">
<title>timer&#45;&gt;kill_p</title>
<path fill="none" stroke="#ff6600" stroke-width="1.5" d="M211.69,-402.81C210.33,-394.79 208.69,-385.05 207.17,-376.07"/>
<polygon fill="#ff6600" stroke="#ff6600" stroke-width="1.5" points="210.59,-375.31 205.47,-366.03 203.69,-376.47 210.59,-375.31"/>
</g>
<!-- usr1 -->
<g id="node4" class="node">
<title>usr1</title>
<polygon fill="#0d0d0d" stroke="#ff2244" stroke-width="2" points="402.09,-366 271.09,-366 271.09,-330 402.09,-330 402.09,-366"/>
<text text-anchor="middle" x="336.59" y="-345.5" font-family="monospace" font-size="10.00" fill="#ff2244">kill &#45;USR1 MAIN_PID</text>
</g>
<!-- timer&#45;&gt;usr1 -->
<g id="edge3" class="edge">
<title>timer&#45;&gt;usr1</title>
<path fill="none" stroke="#ff6600" stroke-width="1.5" d="M243.82,-402.99C260.14,-393.49 280.69,-381.54 298.29,-371.29"/>
<polygon fill="#ff6600" stroke="#ff6600" stroke-width="1.5" points="300.31,-374.17 307.19,-366.11 296.78,-368.12 300.31,-374.17"/>
</g>
<!-- trap -->
<g id="node5" class="node">
<title>trap</title>
<polygon fill="#001a00" stroke="#39ff14" stroke-width="2" points="396.09,-281 277.09,-281 277.09,-245 396.09,-245 396.09,-281"/>
<text text-anchor="middle" x="336.59" y="-266" font-family="monospace" font-size="10.00" fill="#39ff14">trap &#39;true&#39; USR1</text>
<text text-anchor="middle" x="336.59" y="-255" font-family="monospace" font-size="10.00" fill="#39ff14">(interrupts read)</text>
</g>
<!-- usr1&#45;&gt;trap -->
<g id="edge4" class="edge">
<title>usr1&#45;&gt;trap</title>
<path fill="none" stroke="#ff2244" stroke-width="1.5" d="M336.59,-329.8C336.59,-318.67 336.59,-303.94 336.59,-291.24"/>
<polygon fill="#ff2244" stroke="#ff2244" stroke-width="1.5" points="340.09,-291.18 336.59,-281.18 333.09,-291.18 340.09,-291.18"/>
</g>
<!-- trap&#45;&gt;read_unblock -->
<g id="edge5" class="edge">
<title>trap&#45;&gt;read_unblock</title>
<path fill="none" stroke="#39ff14" stroke-width="1.5" d="M310.22,-244.91C285.39,-228.83 248.33,-204.81 222.9,-188.34"/>
<polygon fill="#39ff14" stroke="#39ff14" stroke-width="1.5" points="224.72,-185.35 214.42,-182.85 220.91,-191.22 224.72,-185.35"/>
<text text-anchor="middle" x="288.09" y="-207.8" font-family="monospace" font-size="9.00">via signal</text>
</g>
<!-- kill_t -->
<g id="node7" class="node">
<title>kill_t</title>
<polygon fill="#001520" stroke="#00ffff" stroke-width="2" points="245.09,-114 144.09,-114 144.09,-73 245.09,-73 245.09,-114"/>
<text text-anchor="middle" x="194.59" y="-102" font-family="monospace" font-size="10.00" fill="#00ffff">kill TIMER_PID</text>
<text text-anchor="middle" x="194.59" y="-91" font-family="monospace" font-size="10.00" fill="#00ffff">kill PAREC_PID</text>
<text text-anchor="middle" x="194.59" y="-80" font-family="monospace" font-size="10.00" fill="#00ffff">wait PAREC_PID</text>
</g>
<!-- read_unblock&#45;&gt;kill_t -->
<g id="edge6" class="edge">
<title>read_unblock&#45;&gt;kill_t</title>
<path fill="none" stroke="#ffff00" stroke-width="1.5" d="M194.59,-150.95C194.59,-143.03 194.59,-133.37 194.59,-124.29"/>
<polygon fill="#ffff00" stroke="#ffff00" stroke-width="1.5" points="198.09,-124.05 194.59,-114.05 191.09,-124.05 198.09,-124.05"/>
</g>
<!-- cont -->
<g id="node8" class="node">
<title>cont</title>
<ellipse fill="#001500" stroke="#ccff00" stroke-width="2" cx="194.59" cy="-18" rx="108.81" ry="18"/>
<text text-anchor="middle" x="194.59" y="-15.5" font-family="monospace" font-size="10.00" fill="#ccff00">Continue to sox + transcribe</text>
</g>
<!-- kill_t&#45;&gt;cont -->
<g id="edge7" class="edge">
<title>kill_t&#45;&gt;cont</title>
<path fill="none" stroke="#ccff00" stroke-width="1.5" d="M194.59,-72.8C194.59,-64.7 194.59,-55.18 194.59,-46.41"/>
<polygon fill="#ccff00" stroke="#ccff00" stroke-width="1.5" points="198.09,-46.25 194.59,-36.25 191.09,-46.25 198.09,-46.25"/>
</g>
</g>
</svg>
