<?xml version="1.0" encoding="UTF-8" standalone="no"?>
<!DOCTYPE svg PUBLIC "-//W3C//DTD SVG 1.1//EN"
 "http://www.w3.org/Graphics/SVG/1.1/DTD/svg11.dtd">
<!-- Generated by graphviz version 2.43.0 (0)
 -->
<!-- Title: %3 Pages: 1 -->
<svg width="490pt" height="361pt"
 viewBox="0.00 0.00 490.00 361.00" xmlns="http://www.w3.org/2000/svg" xmlns:xlink="http://www.w3.org/1999/xlink">
<g id="graph0" class="graph" transform="scale(1 1) rotate(0) translate(4 357)">
<title>%3</title>
<polygon fill="#0f0f0f" stroke="transparent" points="-4,4 -4,-357 486,-357 486,4 -4,4"/>
<!-- start -->
<g id="node1" class="node">
<title>start</title>
<polygon fill="#001520" stroke="#00ffff" stroke-width="2" points="318.5,-353 133.5,-353 133.5,-312 318.5,-312 318.5,-353"/>
<text text-anchor="middle" x="226" y="-341" font-family="monospace" font-size="10.00" fill="#00ffff">parec &amp; (PAREC_PID)</text>
<text text-anchor="middle" x="226" y="-330" font-family="monospace" font-size="10.00" fill="#00ffff">timer subshell &amp; (TIMER_PID)</text>
<text text-anchor="middle" x="226" y="-319" font-family="monospace" font-size="10.00" fill="#00ffff">trap &#39;true&#39; USR1</text>
</g>
<!-- read -->
<g id="node2" class="node">
<title>read</title>
<polygon fill="#001a00" stroke="#39ff14" stroke-width="2" points="294.5,-275 157.5,-275 157.5,-239 294.5,-239 294.5,-275"/>
<text text-anchor="middle" x="226" y="-260" font-family="monospace" font-size="10.00" fill="#39ff14">read &#45;r _ &lt; /dev/tty</text>
<text text-anchor="middle" x="226" y="-249" font-family="monospace" font-size="10.00" fill="#39ff14">(blocks here)</text>
</g>
<!-- start&#45;&gt;read -->
<g id="edge1" class="edge">
<title>start&#45;&gt;read</title>
<path fill="none" stroke="#00ffff" stroke-width="1.5" d="M226,-311.8C226,-303.7 226,-294.18 226,-285.41"/>
<polygon fill="#00ffff" stroke="#00ffff" stroke-width="1.5" points="229.5,-285.25 226,-275.25 222.5,-285.25 229.5,-285.25"/>
</g>
<!-- path_e -->
<g id="node3" class="node">
<title>path_e</title>
<polygon fill="#0d0d0d" stroke="#ffff00" stroke-width="2" points="101,-171 0,-141 101,-111 202,-141 101,-171"/>
<text text-anchor="middle" x="101" y="-144" font-family="monospace" font-size="10.00" fill="#ffff00">Enter key</text>
<text text-anchor="middle" x="101" y="-133" font-family="monospace" font-size="10.00" fill="#ffff00">(read returns)</text>
</g>
<!-- read&#45;&gt;path_e -->
<g id="edge2" class="edge">
<title>read&#45;&gt;path_e</title>
<path fill="none" stroke="#ffff00" stroke-width="1.5" d="M207.29,-238.93C187.58,-220.96 156.21,-192.35 132.65,-170.86"/>
<polygon fill="#ffff00" stroke="#ffff00" stroke-width="1.5" points="134.73,-168.03 124.99,-163.88 130.02,-173.2 134.73,-168.03"/>
<text text-anchor="middle" x="199.5" y="-213.8" font-family="monospace" font-size="9.00">Enter</text>
</g>
<!-- path_t -->
<g id="node4" class="node">
<title>path_t</title>
<polygon fill="#0d0d0d" stroke="#ff6600" stroke-width="2" points="351,-193 220,-141 351,-89 482,-141 351,-193"/>
<text text-anchor="middle" x="351" y="-155" font-family="monospace" font-size="10.00" fill="#ff6600">65s elapsed:</text>
<text text-anchor="middle" x="351" y="-144" font-family="monospace" font-size="10.00" fill="#ff6600">kill PAREC_PID</text>
<text text-anchor="middle" x="351" y="-133" font-family="monospace" font-size="10.00" fill="#ff6600">kill &#45;USR1 MAIN_PID</text>
<text text-anchor="middle" x="351" y="-122" font-family="monospace" font-size="10.00" fill="#ff6600">(read interrupted)</text>
</g>
<!-- read&#45;&gt;path_t -->
<g id="edge3" class="edge">
<title>read&#45;&gt;path_t</title>
<path fill="none" stroke="#ff6600" stroke-width="1.5" d="M244.71,-238.93C260.48,-224.55 283.73,-203.35 304.46,-184.44"/>
<polygon fill="#ff6600" stroke="#ff6600" stroke-width="1.5" points="306.94,-186.92 311.97,-177.59 302.22,-181.75 306.94,-186.92"/>
<text text-anchor="middle" x="302" y="-213.8" font-family="monospace" font-size="9.00">USR1 signal</text>
</g>
<!-- cleanup -->
<g id="node5" class="node">
<title>cleanup</title>
<polygon fill="#001a00" stroke="#ccff00" stroke-width="2" points="275.5,-52 174.5,-52 174.5,0 275.5,0 275.5,-52"/>
<text text-anchor="middle" x="225" y="-40" font-family="monospace" font-size="10.00" fill="#ccff00">trap &#45; USR1</text>
<text text-anchor="middle" x="225" y="-29" font-family="monospace" font-size="10.00" fill="#ccff00">kill TIMER_PID</text>
<text text-anchor="middle" x="225" y="-18" font-family="monospace" font-size="10.00" fill="#ccff00">kill PAREC_PID</text>
<text text-anchor="middle" x="225" y="-7" font-family="monospace" font-size="10.00" fill="#ccff00">wait PAREC_PID</text>
</g>
<!-- path_e&#45;&gt;cleanup -->
<g id="edge4" class="edge">
<title>path_e&#45;&gt;cleanup</title>
<path fill="none" stroke="#ccff00" stroke-width="1.5" d="M125.2,-117.94C143.58,-101.2 169.11,-77.93 189.75,-59.12"/>
<polygon fill="#ccff00" stroke="#ccff00" stroke-width="1.5" points="192.37,-61.47 197.4,-52.15 187.65,-56.3 192.37,-61.47"/>
</g>
<!-- path_t&#45;&gt;cleanup -->
<g id="edge5" class="edge">
<title>path_t&#45;&gt;cleanup</title>
<path fill="none" stroke="#ccff00" stroke-width="1.5" d="M311.48,-104.56C295.23,-89.98 276.55,-73.23 260.71,-59.03"/>
<polygon fill="#ccff00" stroke="#ccff00" stroke-width="1.5" points="262.98,-56.36 253.19,-52.29 258.3,-61.57 262.98,-56.36"/>
</g>
</g>
</svg>
