<?xml version="1.0" encoding="UTF-8" standalone="no"?>
<!DOCTYPE svg PUBLIC "-//W3C//DTD SVG 1.1//EN"
 "http://www.w3.org/Graphics/SVG/1.1/DTD/svg11.dtd">
<!-- Generated by graphviz version 2.43.0 (0)
 -->
<!-- Title: %3 Pages: 1 -->
<svg width="178pt" height="605pt"
 viewBox="0.00 0.00 178.40 604.51" xmlns="http://www.w3.org/2000/svg" xmlns:xlink="http://www.w3.org/1999/xlink">
<g id="graph0" class="graph" transform="scale(1 1) rotate(0) translate(4 600.51)">
<title>%3</title>
<polygon fill="#0a0a1a" stroke="transparent" points="-4,4 -4,-600.51 174.4,-600.51 174.4,4 -4,4"/>
<!-- IDLE -->
<g id="node1" class="node">
<title>IDLE</title>
<ellipse fill="#001520" stroke="#00ffff" stroke-width="2" cx="59.4" cy="-578.51" rx="27" ry="18"/>
<text text-anchor="middle" x="59.4" y="-575.71" font-family="monospace" font-size="11.00" fill="#00ffff">IDLE</text>
</g>
<!-- REC -->
<g id="node2" class="node">
<title>REC</title>
<ellipse fill="#001a00" stroke="#39ff14" stroke-width="2" cx="59.4" cy="-476.51" rx="46.11" ry="18"/>
<text text-anchor="middle" x="59.4" y="-473.71" font-family="monospace" font-size="11.00" fill="#39ff14">RECORDING</text>
</g>
<!-- IDLE&#45;&gt;REC -->
<g id="edge1" class="edge">
<title>IDLE&#45;&gt;REC</title>
<path fill="none" stroke="#00ffff" stroke-width="1.5" d="M59.4,-560.09C59.4,-544.89 59.4,-522.58 59.4,-504.97"/>
<polygon fill="#00ffff" stroke="#00ffff" stroke-width="1.5" points="62.9,-504.73 59.4,-494.73 55.9,-504.73 62.9,-504.73"/>
<text text-anchor="middle" x="114.9" y="-535.31" font-family="monospace" font-size="9.00">voice&#45;input runs</text>
<text text-anchor="middle" x="114.9" y="-525.31" font-family="monospace" font-size="9.00">parec + timer started</text>
<text text-anchor="middle" x="114.9" y="-515.31" font-family="monospace" font-size="9.00">beep(480Hz)</text>
</g>
<!-- STOP -->
<g id="node3" class="node">
<title>STOP</title>
<ellipse fill="#1a0a00" stroke="#ff6600" stroke-width="2" cx="59.4" cy="-384.51" rx="42.89" ry="18"/>
<text text-anchor="middle" x="59.4" y="-381.71" font-family="monospace" font-size="11.00" fill="#ff6600">STOPPING</text>
</g>
<!-- REC&#45;&gt;STOP -->
<g id="edge2" class="edge">
<title>REC&#45;&gt;STOP</title>
<path fill="none" stroke="#ff6600" stroke-width="1.5" d="M59.4,-458.16C59.4,-445.33 59.4,-427.62 59.4,-412.89"/>
<polygon fill="#ff6600" stroke="#ff6600" stroke-width="1.5" points="62.9,-412.81 59.4,-402.81 55.9,-412.81 62.9,-412.81"/>
<text text-anchor="middle" x="93.9" y="-433.31" font-family="monospace" font-size="9.00">Enter pressed</text>
<text text-anchor="middle" x="93.9" y="-423.31" font-family="monospace" font-size="9.00">OR 65s USR1</text>
</g>
<!-- CONV -->
<g id="node4" class="node">
<title>CONV</title>
<ellipse fill="#0a001a" stroke="#9900ff" stroke-width="2" cx="59.4" cy="-277.88" rx="59.29" ry="22.76"/>
<text text-anchor="middle" x="59.4" y="-281.08" font-family="monospace" font-size="11.00" fill="#9900ff">CONVERTING</text>
<text text-anchor="middle" x="59.4" y="-269.08" font-family="monospace" font-size="11.00" fill="#9900ff">(sox)</text>
</g>
<!-- STOP&#45;&gt;CONV -->
<g id="edge3" class="edge">
<title>STOP&#45;&gt;CONV</title>
<path fill="none" stroke="#9900ff" stroke-width="1.5" d="M59.4,-366.23C59.4,-351.19 59.4,-329 59.4,-310.75"/>
<polygon fill="#9900ff" stroke="#9900ff" stroke-width="1.5" points="62.9,-310.54 59.4,-300.54 55.9,-310.54 62.9,-310.54"/>
<text text-anchor="middle" x="91.4" y="-341.31" font-family="monospace" font-size="9.00">parec killed</text>
<text text-anchor="middle" x="91.4" y="-331.31" font-family="monospace" font-size="9.00">timer killed</text>
<text text-anchor="middle" x="91.4" y="-321.31" font-family="monospace" font-size="9.00">beep(880Hz)</text>
</g>
<!-- INFER -->
<g id="node5" class="node">
<title>INFER</title>
<ellipse fill="#1a0020" stroke="#ff00ff" stroke-width="2" cx="59.4" cy="-186.63" rx="54.39" ry="22.76"/>
<text text-anchor="middle" x="59.4" y="-189.83" font-family="monospace" font-size="11.00" fill="#ff00ff">INFERRING</text>
<text text-anchor="middle" x="59.4" y="-177.83" font-family="monospace" font-size="11.00" fill="#ff00ff">(GPU)</text>
</g>
<!-- CONV&#45;&gt;INFER -->
<g id="edge4" class="edge">
<title>CONV&#45;&gt;INFER</title>
<path fill="none" stroke="#ff00ff" stroke-width="1.5" d="M59.4,-254.82C59.4,-244.23 59.4,-231.33 59.4,-219.68"/>
<polygon fill="#ff00ff" stroke="#ff00ff" stroke-width="1.5" points="62.9,-219.44 59.4,-209.44 55.9,-219.44 62.9,-219.44"/>
<text text-anchor="middle" x="88.4" y="-230.05" font-family="monospace" font-size="9.00">WAV written</text>
</g>
<!-- OUT -->
<g id="node6" class="node">
<title>OUT</title>
<ellipse fill="#001500" stroke="#ccff00" stroke-width="2" cx="59.4" cy="-100" rx="34.05" ry="18"/>
<text text-anchor="middle" x="59.4" y="-97.2" font-family="monospace" font-size="11.00" fill="#ccff00">OUTPUT</text>
</g>
<!-- INFER&#45;&gt;OUT -->
<g id="edge5" class="edge">
<title>INFER&#45;&gt;OUT</title>
<path fill="none" stroke="#ccff00" stroke-width="1.5" d="M59.4,-163.83C59.4,-153.07 59.4,-139.97 59.4,-128.52"/>
<polygon fill="#ccff00" stroke="#ccff00" stroke-width="1.5" points="62.9,-128.18 59.4,-118.18 55.9,-128.18 62.9,-128.18"/>
<text text-anchor="middle" x="101.9" y="-138.8" font-family="monospace" font-size="9.00">transcript ready</text>
</g>
<!-- DONE -->
<g id="node7" class="node">
<title>DONE</title>
<ellipse fill="#0d0d0d" stroke="#555555" stroke-width="2" cx="59.4" cy="-18" rx="54.94" ry="18"/>
<text text-anchor="middle" x="59.4" y="-15.2" font-family="monospace" font-size="11.00" fill="#555555">DONE / EXIT</text>
</g>
<!-- OUT&#45;&gt;DONE -->
<g id="edge6" class="edge">
<title>OUT&#45;&gt;DONE</title>
<path fill="none" stroke="#555555" stroke-width="1.5" d="M59.4,-81.64C59.4,-71.3 59.4,-57.94 59.4,-46.22"/>
<polygon fill="#555555" stroke="#555555" stroke-width="1.5" points="62.9,-46.05 59.4,-36.05 55.9,-46.05 62.9,-46.05"/>
<text text-anchor="middle" x="109.4" y="-56.8" font-family="monospace" font-size="9.00">type / clip / print</text>
</g>
</g>
</svg>
