<?xml version="1.0" encoding="UTF-8" standalone="no"?>
<!DOCTYPE svg PUBLIC "-//W3C//DTD SVG 1.1//EN"
 "http://www.w3.org/Graphics/SVG/1.1/DTD/svg11.dtd">
<!-- Generated by graphviz version 2.43.0 (0)
 -->
<!-- Title: %3 Pages: 1 -->
<svg width="695pt" height="214pt"
 viewBox="0.00 0.00 695.40 214.43" xmlns="http://www.w3.org/2000/svg" xmlns:xlink="http://www.w3.org/1999/xlink">
<g id="graph0" class="graph" transform="scale(1 1) rotate(0) translate(4 210.43)">
<title>%3</title>
<polygon fill="#080818" stroke="transparent" points="-4,4 -4,-210.43 691.4,-210.43 691.4,4 -4,4"/>
<!-- trap_exit -->
<g id="node1" class="node">
<title>trap_exit</title>
<polygon fill="#001520" stroke="#00ffff" stroke-width="2" points="155,-206.43 0,-206.43 0,-170.43 155,-170.43 155,-206.43"/>
<text text-anchor="middle" x="77.5" y="-191.43" font-family="monospace" font-size="10.00" fill="#00ffff">trap cleanup EXIT</text>
<text text-anchor="middle" x="77.5" y="-180.43" font-family="monospace" font-size="10.00" fill="#00ffff">(registered at startup)</text>
</g>
<!-- fn_clean -->
<g id="node2" class="node">
<title>fn_clean</title>
<polygon fill="#001a00" stroke="#39ff14" stroke-width="2" points="128,-123.71 27,-123.71 27,-82.71 128,-82.71 128,-123.71"/>
<text text-anchor="middle" x="77.5" y="-111.71" font-family="monospace" font-size="10.00" fill="#39ff14">cleanup()</text>
<text text-anchor="middle" x="77.5" y="-100.71" font-family="monospace" font-size="10.00" fill="#39ff14"> &#160;rm &#45;f TMPRAW</text>
<text text-anchor="middle" x="77.5" y="-89.71" font-family="monospace" font-size="10.00" fill="#39ff14"> &#160;rm &#45;f TMPWAV</text>
</g>
<!-- trap_exit&#45;&gt;fn_clean -->
<g id="edge4" class="edge">
<title>trap_exit&#45;&gt;fn_clean</title>
<path fill="none" stroke="#00ffff" stroke-width="1.5" stroke-dasharray="5,2" d="M77.5,-170.18C77.5,-159.73 77.5,-146.1 77.5,-133.95"/>
<polygon fill="#00ffff" stroke="#00ffff" stroke-width="1.5" points="81,-133.77 77.5,-123.77 74,-133.77 81,-133.77"/>
<text text-anchor="middle" x="112" y="-145.23" font-family="monospace" font-size="9.00">registered to</text>
</g>
<!-- cleanup_run -->
<g id="node6" class="node">
<title>cleanup_run</title>
<polygon fill="#0a001a" stroke="#ff00ff" stroke-width="2" points="398,-36 261,-36 261,0 398,0 398,-36"/>
<text text-anchor="middle" x="329.5" y="-21" font-family="monospace" font-size="10.00" fill="#ff00ff">cleanup() runs</text>
<text text-anchor="middle" x="329.5" y="-10" font-family="monospace" font-size="10.00" fill="#ff00ff">→ temp files deleted</text>
</g>
<!-- fn_clean&#45;&gt;cleanup_run -->
<g id="edge5" class="edge">
<title>fn_clean&#45;&gt;cleanup_run</title>
<path fill="none" stroke="#39ff14" stroke-width="1.5" stroke-dasharray="5,2" d="M128.23,-85.09C131.37,-84.04 134.48,-83.01 137.5,-82 180.89,-67.57 229.88,-51.5 267.51,-39.2"/>
<polygon fill="#39ff14" stroke="#39ff14" stroke-width="1.5" points="268.89,-42.43 277.31,-36 266.72,-35.78 268.89,-42.43"/>
<text text-anchor="middle" x="244" y="-56.8" font-family="monospace" font-size="9.00">executes</text>
</g>
<!-- normal -->
<g id="node3" class="node">
<title>normal</title>
<ellipse fill="#001500" stroke="#ccff00" stroke-width="2" cx="234.5" cy="-103.21" rx="88.28" ry="21.43"/>
<text text-anchor="middle" x="234.5" y="-106.21" font-family="monospace" font-size="10.00" fill="#ccff00">Normal exit</text>
<text text-anchor="middle" x="234.5" y="-95.21" font-family="monospace" font-size="10.00" fill="#ccff00">(text output done)</text>
</g>
<!-- normal&#45;&gt;cleanup_run -->
<g id="edge1" class="edge">
<title>normal&#45;&gt;cleanup_run</title>
<path fill="none" stroke="#ccff00" stroke-width="1.5" d="M257.01,-82.49C270.62,-70.57 288.06,-55.3 302.42,-42.72"/>
<polygon fill="#ccff00" stroke="#ccff00" stroke-width="1.5" points="304.82,-45.27 310.04,-36.04 300.21,-40 304.82,-45.27"/>
</g>
<!-- err -->
<g id="node4" class="node">
<title>err</title>
<ellipse fill="#1a0000" stroke="#ff2244" stroke-width="2" cx="425.5" cy="-103.21" rx="84.29" ry="21.43"/>
<text text-anchor="middle" x="425.5" y="-106.21" font-family="monospace" font-size="10.00" fill="#ff2244">set &#45;euo pipefail</text>
<text text-anchor="middle" x="425.5" y="-95.21" font-family="monospace" font-size="10.00" fill="#ff2244">(any error exits)</text>
</g>
<!-- err&#45;&gt;cleanup_run -->
<g id="edge2" class="edge">
<title>err&#45;&gt;cleanup_run</title>
<path fill="none" stroke="#ff2244" stroke-width="1.5" d="M402.75,-82.49C389,-70.57 371.37,-55.3 356.86,-42.72"/>
<polygon fill="#ff2244" stroke="#ff2244" stroke-width="1.5" points="359.01,-39.95 349.16,-36.04 354.43,-45.24 359.01,-39.95"/>
</g>
<!-- sig -->
<g id="node5" class="node">
<title>sig</title>
<ellipse fill="#1a0a00" stroke="#ff6600" stroke-width="2" cx="607.5" cy="-103.21" rx="79.81" ry="21.43"/>
<text text-anchor="middle" x="607.5" y="-106.21" font-family="monospace" font-size="10.00" fill="#ff6600">SIGINT / SIGTERM</text>
<text text-anchor="middle" x="607.5" y="-95.21" font-family="monospace" font-size="10.00" fill="#ff6600">(Ctrl+C)</text>
</g>
<!-- sig&#45;&gt;cleanup_run -->
<g id="edge3" class="edge">
<title>sig&#45;&gt;cleanup_run</title>
<path fill="none" stroke="#ff6600" stroke-width="1.5" d="M556.19,-86.85C511.18,-73.38 445.44,-53.7 396.33,-39.01"/>
<polygon fill="#ff6600" stroke="#ff6600" stroke-width="1.5" points="397.33,-35.65 386.74,-36.14 395.32,-42.36 397.33,-35.65"/>
</g>
</g>
</svg>
