<?xml version="1.0" encoding="UTF-8" standalone="no"?>
<!DOCTYPE svg PUBLIC "-//W3C//DTD SVG 1.1//EN"
 "http://www.w3.org/Graphics/SVG/1.1/DTD/svg11.dtd">
<!-- Generated by graphviz version 2.43.0 (0)
 -->
<!-- Title: %3 Pages: 1 -->
<svg width="550pt" height="204pt"
 viewBox="0.00 0.00 550.00 204.00" xmlns="http://www.w3.org/2000/svg" xmlns:xlink="http://www.w3.org/1999/xlink">
<g id="graph0" class="graph" transform="scale(1 1) rotate(0) translate(4 200)">
<title>%3</title>
<polygon fill="#0d0d0d" stroke="transparent" points="-4,4 -4,-200 546,-200 546,4 -4,4"/>
<!-- shell -->
<g id="node1" class="node">
<title>shell</title>
<polygon fill="#0a000a" stroke="#9900ff" stroke-width="2" points="311,-196 210,-196 210,-160 311,-160 311,-196"/>
<text text-anchor="middle" x="260.5" y="-181" font-family="monospace" font-size="10.00" fill="#9900ff">zsh / bash</text>
<text text-anchor="middle" x="260.5" y="-170" font-family="monospace" font-size="10.00" fill="#9900ff">(user&#39;s shell)</text>
</g>
<!-- main -->
<g id="node2" class="node">
<title>main</title>
<polygon fill="#001520" stroke="#00ffff" stroke-width="2" points="311,-123 210,-123 210,-87 311,-87 311,-123"/>
<text text-anchor="middle" x="260.5" y="-108" font-family="monospace" font-size="10.00" fill="#00ffff">voice&#45;input.sh</text>
<text text-anchor="middle" x="260.5" y="-97" font-family="monospace" font-size="10.00" fill="#00ffff">(MAIN_PID=$$)</text>
</g>
<!-- shell&#45;&gt;main -->
<g id="edge1" class="edge">
<title>shell&#45;&gt;main</title>
<path fill="none" stroke="#9900ff" stroke-width="1.5" d="M260.5,-159.81C260.5,-151.79 260.5,-142.05 260.5,-133.07"/>
<polygon fill="#9900ff" stroke="#9900ff" stroke-width="1.5" points="264,-133.03 260.5,-123.03 257,-133.03 264,-133.03"/>
</g>
<!-- parec -->
<g id="node3" class="node">
<title>parec</title>
<polygon fill="#001a00" stroke="#39ff14" stroke-width="2" points="101,-41 0,-41 0,0 101,0 101,-41"/>
<text text-anchor="middle" x="50.5" y="-29" font-family="monospace" font-size="10.00" fill="#39ff14">parec</text>
<text text-anchor="middle" x="50.5" y="-18" font-family="monospace" font-size="10.00" fill="#39ff14">(PAREC_PID)</text>
<text text-anchor="middle" x="50.5" y="-7" font-family="monospace" font-size="10.00" fill="#39ff14">writes raw PCM</text>
</g>
<!-- main&#45;&gt;parec -->
<g id="edge2" class="edge">
<title>main&#45;&gt;parec</title>
<path fill="none" stroke="#39ff14" stroke-width="1.5" d="M209.88,-90.81C189.31,-84.91 165.5,-77.4 144.5,-69 127.75,-62.3 109.96,-53.71 94.4,-45.69"/>
<polygon fill="#39ff14" stroke="#39ff14" stroke-width="1.5" points="96.02,-42.58 85.53,-41.04 92.77,-48.78 96.02,-42.58"/>
<text text-anchor="middle" x="181.5" y="-61.8" font-family="monospace" font-size="9.00">&amp; (background)</text>
</g>
<!-- timer -->
<g id="node4" class="node">
<title>timer</title>
<polygon fill="#1a0a00" stroke="#ff6600" stroke-width="2" points="262,-41 119,-41 119,0 262,0 262,-41"/>
<text text-anchor="middle" x="190.5" y="-29" font-family="monospace" font-size="10.00" fill="#ff6600">( sleep 65; kill... )</text>
<text text-anchor="middle" x="190.5" y="-18" font-family="monospace" font-size="10.00" fill="#ff6600">(TIMER_PID)</text>
<text text-anchor="middle" x="190.5" y="-7" font-family="monospace" font-size="10.00" fill="#ff6600">subshell background</text>
</g>
<!-- main&#45;&gt;timer -->
<g id="edge3" class="edge">
<title>main&#45;&gt;timer</title>
<path fill="none" stroke="#ff6600" stroke-width="1.5" d="M246,-86.91C236.73,-75.99 224.51,-61.58 213.9,-49.07"/>
<polygon fill="#ff6600" stroke="#ff6600" stroke-width="1.5" points="216.34,-46.54 207.2,-41.18 211,-51.07 216.34,-46.54"/>
<text text-anchor="middle" x="266.5" y="-61.8" font-family="monospace" font-size="9.00">&amp; (background)</text>
</g>
<!-- beep -->
<g id="node5" class="node">
<title>beep</title>
<polygon fill="#0a0a0a" stroke="#00ffcc" stroke-width="2" points="381,-41 280,-41 280,0 381,0 381,-41"/>
<text text-anchor="middle" x="330.5" y="-29" font-family="monospace" font-size="10.00" fill="#00ffcc">paplay</text>
<text text-anchor="middle" x="330.5" y="-18" font-family="monospace" font-size="10.00" fill="#00ffcc">(background &amp;)</text>
<text text-anchor="middle" x="330.5" y="-7" font-family="monospace" font-size="10.00" fill="#00ffcc">beep tones</text>
</g>
<!-- main&#45;&gt;beep -->
<g id="edge4" class="edge">
<title>main&#45;&gt;beep</title>
<path fill="none" stroke="#00ffcc" stroke-width="1.5" d="M288.27,-86.75C295.12,-81.62 302.05,-75.59 307.5,-69 312.05,-63.5 315.96,-56.94 319.2,-50.48"/>
<polygon fill="#00ffcc" stroke="#00ffcc" stroke-width="1.5" points="322.46,-51.78 323.46,-41.23 316.1,-48.85 322.46,-51.78"/>
<text text-anchor="middle" x="353" y="-61.8" font-family="monospace" font-size="9.00">&amp; (fire&#45;forget)</text>
</g>
<!-- py -->
<g id="node6" class="node">
<title>py</title>
<polygon fill="#0a001a" stroke="#ff00ff" stroke-width="2" points="542,-38.5 399,-38.5 399,-2.5 542,-2.5 542,-38.5"/>
<text text-anchor="middle" x="470.5" y="-23.5" font-family="monospace" font-size="10.00" fill="#ff00ff">python3 transcribe.py</text>
<text text-anchor="middle" x="470.5" y="-12.5" font-family="monospace" font-size="10.00" fill="#ff00ff">(inline, waits)</text>
</g>
<!-- main&#45;&gt;py -->
<g id="edge5" class="edge">
<title>main&#45;&gt;py</title>
<path fill="none" stroke="#ff00ff" stroke-width="1.5" d="M311.19,-94.97C337.33,-89.33 369.35,-80.84 396.5,-69 411.39,-62.5 426.7,-53.2 439.49,-44.54"/>
<polygon fill="#ff00ff" stroke="#ff00ff" stroke-width="1.5" points="441.69,-47.27 447.91,-38.7 437.7,-41.52 441.69,-47.27"/>
<text text-anchor="middle" x="452.5" y="-61.8" font-family="monospace" font-size="9.00">waits for exit</text>
</g>
</g>
</svg>
