<?xml version="1.0" encoding="UTF-8" standalone="no"?>
<!DOCTYPE svg PUBLIC "-//W3C//DTD SVG 1.1//EN"
 "http://www.w3.org/Graphics/SVG/1.1/DTD/svg11.dtd">
<!-- Generated by graphviz version 2.43.0 (0)
 -->
<!-- Title: %3 Pages: 1 -->
<svg width="242pt" height="577pt"
 viewBox="0.00 0.00 242.00 576.50" xmlns="http://www.w3.org/2000/svg" xmlns:xlink="http://www.w3.org/1999/xlink">
<g id="graph0" class="graph" transform="scale(1 1) rotate(0) translate(4 572.5)">
<title>%3</title>
<polygon fill="#111827" stroke="transparent" points="-4,4 -4,-572.5 238,-572.5 238,4 -4,4"/>
<g id="clust1" class="cluster">
<title>cluster_capture</title>
<polygon fill="#0a0a0a" stroke="#00ffff" stroke-width="2" points="15,-287 15,-560.5 191,-560.5 191,-287 15,-287"/>
<text text-anchor="middle" x="103" y="-545.3" font-family="monospace" font-size="14.00" fill="#00ffff">Audio Capture</text>
</g>
<g id="clust2" class="cluster">
<title>cluster_infer</title>
<polygon fill="#0a0a0a" stroke="#ff00ff" stroke-width="2" points="42,-111 42,-259 164,-259 164,-111 42,-111"/>
<text text-anchor="middle" x="103" y="-243.8" font-family="monospace" font-size="14.00" fill="#ff00ff">Inference</text>
</g>
<g id="clust3" class="cluster">
<title>cluster_out</title>
<polygon fill="#0a0a0a" stroke="#39ff14" stroke-width="2" points="8,-8 8,-83 226,-83 226,-8 8,-8"/>
<text text-anchor="middle" x="117" y="-67.8" font-family="monospace" font-size="14.00" fill="#39ff14">Output</text>
</g>
<!-- mic -->
<g id="node1" class="node">
<title>mic</title>
<polygon fill="#0d1b2a" stroke="#00ffff" stroke-width="2" points="182.66,-529.5 55.94,-529.5 23.34,-469.5 150.06,-469.5 182.66,-529.5"/>
<text text-anchor="middle" x="103" y="-502.5" font-family="monospace" font-size="10.00" fill="#00ffff">Mic Input</text>
<text text-anchor="middle" x="103" y="-491.5" font-family="monospace" font-size="10.00" fill="#00ffff">32kHz mono</text>
</g>
<!-- raw -->
<g id="node2" class="node">
<title>raw</title>
<path fill="#0d1b2a" stroke="#00ffff" stroke-width="2" d="M159.5,-419.85C159.5,-421.93 134.18,-423.63 103,-423.63 71.82,-423.63 46.5,-421.93 46.5,-419.85 46.5,-419.85 46.5,-385.9 46.5,-385.9 46.5,-383.82 71.82,-382.12 103,-382.12 134.18,-382.12 159.5,-383.82 159.5,-385.9 159.5,-385.9 159.5,-419.85 159.5,-419.85"/>
<path fill="none" stroke="#00ffff" stroke-width="2" d="M159.5,-419.85C159.5,-417.77 134.18,-416.08 103,-416.08 71.82,-416.08 46.5,-417.77 46.5,-419.85"/>
<text text-anchor="middle" x="103" y="-405.88" font-family="monospace" font-size="10.00" fill="#00ffcc">/tmp/voice&#45;*.raw</text>
<text text-anchor="middle" x="103" y="-394.88" font-family="monospace" font-size="10.00" fill="#00ffcc">raw s16le PCM</text>
</g>
<!-- mic&#45;&gt;raw -->
<g id="edge1" class="edge">
<title>mic&#45;&gt;raw</title>
<path fill="none" stroke="#00ffff" stroke-width="1.5" d="M103,-469.34C103,-458.06 103,-445.17 103,-433.82"/>
<polygon fill="#00ffff" stroke="#00ffff" stroke-width="1.5" points="106.5,-433.51 103,-423.51 99.5,-433.51 106.5,-433.51"/>
<text text-anchor="middle" x="116.5" y="-444.3" font-family="monospace" font-size="9.00">parec</text>
</g>
<!-- wav -->
<g id="node3" class="node">
<title>wav</title>
<path fill="#0d1b2a" stroke="#00ffff" stroke-width="2" d="M159.5,-332.6C159.5,-334.68 134.18,-336.38 103,-336.38 71.82,-336.38 46.5,-334.68 46.5,-332.6 46.5,-332.6 46.5,-298.65 46.5,-298.65 46.5,-296.57 71.82,-294.87 103,-294.87 134.18,-294.87 159.5,-296.57 159.5,-298.65 159.5,-298.65 159.5,-332.6 159.5,-332.6"/>
<path fill="none" stroke="#00ffff" stroke-width="2" d="M159.5,-332.6C159.5,-330.52 134.18,-328.83 103,-328.83 71.82,-328.83 46.5,-330.52 46.5,-332.6"/>
<text text-anchor="middle" x="103" y="-318.62" font-family="monospace" font-size="10.00" fill="#00ffcc">/tmp/voice&#45;*.wav</text>
<text text-anchor="middle" x="103" y="-307.62" font-family="monospace" font-size="10.00" fill="#00ffcc">standard WAV</text>
</g>
<!-- raw&#45;&gt;wav -->
<g id="edge2" class="edge">
<title>raw&#45;&gt;wav</title>
<path fill="none" stroke="#00ffff" stroke-width="1.5" d="M103,-382.1C103,-371.56 103,-358.36 103,-346.59"/>
<polygon fill="#00ffff" stroke="#00ffff" stroke-width="1.5" points="106.5,-346.29 103,-336.29 99.5,-346.29 106.5,-346.29"/>
<text text-anchor="middle" x="111" y="-357.05" font-family="monospace" font-size="9.00">sox</text>
</g>
<!-- model -->
<g id="node4" class="node">
<title>model</title>
<polygon fill="#1a001a" stroke="#ff00ff" stroke-width="2" points="153.5,-228 52.5,-228 52.5,-192 153.5,-192 153.5,-228"/>
<text text-anchor="middle" x="103" y="-213" font-family="monospace" font-size="10.00" fill="#ff00ff">faster&#45;whisper</text>
<text text-anchor="middle" x="103" y="-202" font-family="monospace" font-size="10.00" fill="#ff00ff">medium float16</text>
</g>
<!-- wav&#45;&gt;model -->
<g id="edge3" class="edge">
<title>wav&#45;&gt;model</title>
<path fill="none" stroke="#ff00ff" stroke-width="1.5" d="M103,-294.65C103,-278.67 103,-256.1 103,-238.43"/>
<polygon fill="#ff00ff" stroke="#ff00ff" stroke-width="1.5" points="106.5,-238.17 103,-228.17 99.5,-238.17 106.5,-238.17"/>
<text text-anchor="middle" x="137.5" y="-269.8" font-family="monospace" font-size="9.00">transcribe.py</text>
</g>
<!-- segs -->
<g id="node5" class="node">
<title>segs</title>
<polygon fill="#1a001a" stroke="#ff00ff" stroke-width="2" points="150.5,-155 49.5,-155 49.5,-119 156.5,-119 156.5,-149 150.5,-155"/>
<polyline fill="none" stroke="#ff00ff" stroke-width="2" points="150.5,-155 150.5,-149 "/>
<polyline fill="none" stroke="#ff00ff" stroke-width="2" points="156.5,-149 150.5,-149 "/>
<text text-anchor="middle" x="103" y="-140" font-family="monospace" font-size="10.00" fill="#ff1493">Segments +</text>
<text text-anchor="middle" x="103" y="-129" font-family="monospace" font-size="10.00" fill="#ff1493">Word timestamps</text>
</g>
<!-- model&#45;&gt;segs -->
<g id="edge4" class="edge">
<title>model&#45;&gt;segs</title>
<path fill="none" stroke="#ff00ff" stroke-width="1.5" d="M103,-191.81C103,-183.79 103,-174.05 103,-165.07"/>
<polygon fill="#ff00ff" stroke="#ff00ff" stroke-width="1.5" points="106.5,-165.03 103,-155.03 99.5,-165.03 106.5,-165.03"/>
</g>
<!-- text -->
<g id="node6" class="node">
<title>text</title>
<polygon fill="#001a00" stroke="#39ff14" stroke-width="2" points="93.5,-52 16.5,-52 16.5,-16 93.5,-16 93.5,-52"/>
<text text-anchor="middle" x="55" y="-31.5" font-family="monospace" font-size="10.00" fill="#39ff14">Plain text</text>
</g>
<!-- segs&#45;&gt;text -->
<g id="edge5" class="edge">
<title>segs&#45;&gt;text</title>
<path fill="none" stroke="#39ff14" stroke-width="1.5" d="M91.38,-118.92C87.82,-113.34 84.04,-107.02 81,-101 74.66,-88.46 68.81,-74 64.27,-61.81"/>
<polygon fill="#39ff14" stroke="#39ff14" stroke-width="1.5" points="67.48,-60.4 60.78,-52.2 60.9,-62.79 67.48,-60.4"/>
<text text-anchor="middle" x="107.5" y="-93.8" font-family="monospace" font-size="9.00">&#45;&#45;no&#45;fancy</text>
</g>
<!-- anim -->
<g id="node7" class="node">
<title>anim</title>
<polygon fill="#001a00" stroke="#39ff14" stroke-width="2" points="218.5,-52 111.5,-52 111.5,-16 218.5,-16 218.5,-52"/>
<text text-anchor="middle" x="165" y="-37" font-family="monospace" font-size="10.00" fill="#ccff00">Animated</text>
<text text-anchor="middle" x="165" y="-26" font-family="monospace" font-size="10.00" fill="#ccff00">terminal render</text>
</g>
<!-- segs&#45;&gt;anim -->
<g id="edge6" class="edge">
<title>segs&#45;&gt;anim</title>
<path fill="none" stroke="#ccff00" stroke-width="1.5" d="M119.81,-118.99C124.74,-113.51 129.9,-107.24 134,-101 142.07,-88.73 149.19,-74.03 154.57,-61.62"/>
<polygon fill="#ccff00" stroke="#ccff00" stroke-width="1.5" points="157.86,-62.83 158.49,-52.25 151.4,-60.13 157.86,-62.83"/>
<text text-anchor="middle" x="157.5" y="-93.8" font-family="monospace" font-size="9.00">&#45;&#45;fancy</text>
</g>
</g>
</svg>
