<?xml version="1.0" encoding="UTF-8" standalone="no"?>
<!DOCTYPE svg PUBLIC "-//W3C//DTD SVG 1.1//EN"
 "http://www.w3.org/Graphics/SVG/1.1/DTD/svg11.dtd">
<!-- Generated by graphviz version 2.43.0 (0)
 -->
<!-- Title: %3 Pages: 1 -->
<svg width="210pt" height="513pt"
 viewBox="0.00 0.00 210.00 512.85" xmlns="http://www.w3.org/2000/svg" xmlns:xlink="http://www.w3.org/1999/xlink">
<g id="graph0" class="graph" transform="scale(1 1) rotate(0) translate(4 508.85)">
<title>%3</title>
<polygon fill="#0f0f0f" stroke="transparent" points="-4,4 -4,-508.85 206,-508.85 206,4 -4,4"/>
<!-- start -->
<g id="node1" class="node">
<title>start</title>
<ellipse fill="#001a00" stroke="#39ff14" stroke-width="2" cx="101" cy="-483.64" rx="58.88" ry="21.43"/>
<text text-anchor="middle" x="101" y="-486.64" font-family="monospace" font-size="10.00" fill="#39ff14">Run</text>
<text text-anchor="middle" x="101" y="-475.64" font-family="monospace" font-size="10.00" fill="#39ff14">voice&#45;input</text>
</g>
<!-- beep1 -->
<g id="node2" class="node">
<title>beep1</title>
<polygon fill="#0d0d0d" stroke="#00ffff" stroke-width="2" points="163.5,-426.43 38.5,-426.43 38.5,-390.43 163.5,-390.43 163.5,-426.43"/>
<text text-anchor="middle" x="101" y="-411.43" font-family="monospace" font-size="10.00" fill="#00ffff">Low beep</text>
<text text-anchor="middle" x="101" y="-400.43" font-family="monospace" font-size="10.00" fill="#00ffff">(recording starts)</text>
</g>
<!-- start&#45;&gt;beep1 -->
<g id="edge1" class="edge">
<title>start&#45;&gt;beep1</title>
<path fill="none" stroke="#39ff14" stroke-width="1.5" d="M101,-462.25C101,-454.39 101,-445.29 101,-436.88"/>
<polygon fill="#39ff14" stroke="#39ff14" stroke-width="1.5" points="104.5,-436.74 101,-426.74 97.5,-436.74 104.5,-436.74"/>
</g>
<!-- speak -->
<g id="node3" class="node">
<title>speak</title>
<polygon fill="#0d0d0d" stroke="#ffff00" stroke-width="2" points="172.77,-354.43 58.6,-354.43 29.23,-318.43 143.4,-318.43 172.77,-354.43"/>
<text text-anchor="middle" x="101" y="-333.93" font-family="monospace" font-size="10.00" fill="#ffff00">User speaks</text>
</g>
<!-- beep1&#45;&gt;speak -->
<g id="edge2" class="edge">
<title>beep1&#45;&gt;speak</title>
<path fill="none" stroke="#00ffff" stroke-width="1.5" d="M101,-390.12C101,-382.41 101,-373.14 101,-364.54"/>
<polygon fill="#00ffff" stroke="#00ffff" stroke-width="1.5" points="104.5,-364.53 101,-354.53 97.5,-364.53 104.5,-364.53"/>
</g>
<!-- enter -->
<g id="node4" class="node">
<title>enter</title>
<polygon fill="#0d0d0d" stroke="#ff6600" stroke-width="2" points="101,-282.43 0,-252.43 101,-222.43 202,-252.43 101,-282.43"/>
<text text-anchor="middle" x="101" y="-255.43" font-family="monospace" font-size="10.00" fill="#ff6600">Press Enter</text>
<text text-anchor="middle" x="101" y="-244.43" font-family="monospace" font-size="10.00" fill="#ff6600">or 65s timeout</text>
</g>
<!-- speak&#45;&gt;enter -->
<g id="edge3" class="edge">
<title>speak&#45;&gt;enter</title>
<path fill="none" stroke="#ffff00" stroke-width="1.5" d="M101,-318.04C101,-310.67 101,-301.76 101,-292.94"/>
<polygon fill="#ffff00" stroke="#ffff00" stroke-width="1.5" points="104.5,-292.73 101,-282.73 97.5,-292.73 104.5,-292.73"/>
</g>
<!-- beep2 -->
<g id="node5" class="node">
<title>beep2</title>
<polygon fill="#0d0d0d" stroke="#ff00ff" stroke-width="2" points="136.5,-186.43 65.5,-186.43 65.5,-150.43 136.5,-150.43 136.5,-186.43"/>
<text text-anchor="middle" x="101" y="-171.43" font-family="monospace" font-size="10.00" fill="#ff00ff">High beep</text>
<text text-anchor="middle" x="101" y="-160.43" font-family="monospace" font-size="10.00" fill="#ff00ff">(stopped)</text>
</g>
<!-- enter&#45;&gt;beep2 -->
<g id="edge4" class="edge">
<title>enter&#45;&gt;beep2</title>
<path fill="none" stroke="#ff6600" stroke-width="1.5" d="M101,-222.29C101,-213.96 101,-204.93 101,-196.72"/>
<polygon fill="#ff6600" stroke="#ff6600" stroke-width="1.5" points="104.5,-196.54 101,-186.54 97.5,-196.54 104.5,-196.54"/>
</g>
<!-- wait -->
<g id="node6" class="node">
<title>wait</title>
<polygon fill="#0d0d0d" stroke="#ff00ff" stroke-width="2" points="154.5,-114.43 47.5,-114.43 47.5,-78.43 154.5,-78.43 154.5,-114.43"/>
<text text-anchor="middle" x="101" y="-99.43" font-family="monospace" font-size="10.00" fill="#ff1493">Transcribing...</text>
<text text-anchor="middle" x="101" y="-88.43" font-family="monospace" font-size="10.00" fill="#ff1493">(GPU inference)</text>
</g>
<!-- beep2&#45;&gt;wait -->
<g id="edge5" class="edge">
<title>beep2&#45;&gt;wait</title>
<path fill="none" stroke="#ff00ff" stroke-width="1.5" d="M101,-150.12C101,-142.41 101,-133.14 101,-124.54"/>
<polygon fill="#ff00ff" stroke="#ff00ff" stroke-width="1.5" points="104.5,-124.53 101,-114.53 97.5,-124.53 104.5,-124.53"/>
</g>
<!-- result -->
<g id="node7" class="node">
<title>result</title>
<ellipse fill="#001500" stroke="#ccff00" stroke-width="2" cx="101" cy="-21.21" rx="92.76" ry="21.43"/>
<text text-anchor="middle" x="101" y="-24.21" font-family="monospace" font-size="10.00" fill="#ccff00">Text output</text>
<text text-anchor="middle" x="101" y="-13.21" font-family="monospace" font-size="10.00" fill="#ccff00">print / clip / type</text>
</g>
<!-- wait&#45;&gt;result -->
<g id="edge6" class="edge">
<title>wait&#45;&gt;result</title>
<path fill="none" stroke="#ccff00" stroke-width="1.5" d="M101,-78.08C101,-70.5 101,-61.39 101,-52.74"/>
<polygon fill="#ccff00" stroke="#ccff00" stroke-width="1.5" points="104.5,-52.56 101,-42.56 97.5,-52.56 104.5,-52.56"/>
</g>
</g>
</svg>
