<?xml version="1.0" encoding="UTF-8" standalone="no"?>
<!DOCTYPE svg PUBLIC "-//W3C//DTD SVG 1.1//EN"
 "http://www.w3.org/Graphics/SVG/1.1/DTD/svg11.dtd">
<!-- Generated by graphviz version 2.43.0 (0)
 -->
<!-- Title: %3 Pages: 1 -->
<svg width="759pt" height="104pt"
 viewBox="0.00 0.00 759.00 104.00" xmlns="http://www.w3.org/2000/svg" xmlns:xlink="http://www.w3.org/1999/xlink">
<g id="graph0" class="graph" transform="scale(1 1) rotate(0) translate(4 100)">
<title>%3</title>
<polygon fill="#0d0d0d" stroke="transparent" points="-4,4 -4,-100 755,-100 755,4 -4,4"/>
<!-- UC03 -->
<g id="node1" class="node">
<title>UC03</title>
<polygon fill="#1a1a2e" stroke="#00ffff" stroke-width="2" points="71,-69 0,-69 0,-33 71,-33 71,-69"/>
<text text-anchor="middle" x="35.5" y="-54.2" font-family="monospace" font-size="11.00" fill="#00ffff">UC03 USB</text>
<text text-anchor="middle" x="35.5" y="-42.2" font-family="monospace" font-size="11.00" fill="#00ffff">Headset</text>
</g>
<!-- script -->
<g id="node2" class="node">
<title>script</title>
<polygon fill="#1a1a2e" stroke="#39ff14" stroke-width="2" points="266,-69 155,-69 155,-33 266,-33 266,-69"/>
<text text-anchor="middle" x="210.5" y="-48.2" font-family="monospace" font-size="11.00" fill="#39ff14">voice&#45;input.sh</text>
</g>
<!-- UC03&#45;&gt;script -->
<g id="edge1" class="edge">
<title>UC03&#45;&gt;script</title>
<path fill="none" stroke="#00ffff" stroke-width="1.5" d="M71.09,-51C92.15,-51 119.73,-51 144.71,-51"/>
<polygon fill="#00ffff" stroke="#00ffff" stroke-width="1.5" points="144.87,-54.5 154.87,-51 144.87,-47.5 144.87,-54.5"/>
<text text-anchor="middle" x="113" y="-53.8" font-family="monospace" font-size="9.00">32kHz PCM</text>
</g>
<!-- py -->
<g id="node3" class="node">
<title>py</title>
<polygon fill="#1a1a2e" stroke="#ff00ff" stroke-width="2" points="479.5,-96 375.5,-96 375.5,-60 479.5,-60 479.5,-96"/>
<text text-anchor="middle" x="427.5" y="-75.2" font-family="monospace" font-size="11.00" fill="#ff00ff">transcribe.py</text>
</g>
<!-- script&#45;&gt;py -->
<g id="edge2" class="edge">
<title>script&#45;&gt;py</title>
<path fill="none" stroke="#39ff14" stroke-width="1.5" d="M266.1,-59.52C272.13,-60.39 278.19,-61.23 284,-62 310.57,-65.51 340,-68.89 365.18,-71.64"/>
<polygon fill="#39ff14" stroke="#39ff14" stroke-width="1.5" points="365.01,-75.14 375.33,-72.74 365.76,-68.18 365.01,-75.14"/>
<text text-anchor="middle" x="310.5" y="-70.8" font-family="monospace" font-size="9.00">WAV file</text>
</g>
<!-- out -->
<g id="node5" class="node">
<title>out</title>
<polygon fill="#1a1a2e" stroke="#ff6600" stroke-width="2" points="500,-36 355,-36 355,0 500,0 500,-36"/>
<text text-anchor="middle" x="427.5" y="-21.2" font-family="monospace" font-size="11.00" fill="#ff6600">Output</text>
<text text-anchor="middle" x="427.5" y="-9.2" font-family="monospace" font-size="11.00" fill="#ff6600">type / clip / print</text>
</g>
<!-- script&#45;&gt;out -->
<g id="edge6" class="edge">
<title>script&#45;&gt;out</title>
<path fill="none" stroke="#ff6600" stroke-width="1.5" d="M266.35,-36.53C272.28,-35.22 278.25,-34.01 284,-33 303.6,-29.55 324.86,-26.8 344.83,-24.63"/>
<polygon fill="#ff6600" stroke="#ff6600" stroke-width="1.5" points="345.25,-28.11 354.83,-23.59 344.52,-21.15 345.25,-28.11"/>
<text text-anchor="middle" x="310.5" y="-35.8" font-family="monospace" font-size="9.00">text</text>
</g>
<!-- py&#45;&gt;script -->
<g id="edge5" class="edge">
<title>py&#45;&gt;script</title>
<path fill="none" stroke="#ff00ff" stroke-width="1.5" d="M375.97,-59.95C363.4,-56.24 349.84,-52.9 337,-51 317.36,-48.1 295.8,-47.27 276.18,-47.39"/>
<polygon fill="#ff00ff" stroke="#ff00ff" stroke-width="1.5" points="276.06,-43.89 266.11,-47.54 276.17,-50.89 276.06,-43.89"/>
<text text-anchor="middle" x="310.5" y="-53.8" font-family="monospace" font-size="9.00">transcript</text>
</g>
<!-- gpu -->
<g id="node4" class="node">
<title>gpu</title>
<polygon fill="#1a1a2e" stroke="#ffff00" stroke-width="2" points="751,-95 626,-95 626,-59 751,-59 751,-95"/>
<text text-anchor="middle" x="688.5" y="-80.2" font-family="monospace" font-size="11.00" fill="#ffff00">NVIDIA GPU</text>
<text text-anchor="middle" x="688.5" y="-68.2" font-family="monospace" font-size="11.00" fill="#ffff00">(faster&#45;whisper)</text>
</g>
<!-- py&#45;&gt;gpu -->
<g id="edge3" class="edge">
<title>py&#45;&gt;gpu</title>
<path fill="none" stroke="#ff00ff" stroke-width="1.5" d="M479.67,-77.8C518.57,-77.65 572.57,-77.44 615.77,-77.28"/>
<polygon fill="#ff00ff" stroke="#ff00ff" stroke-width="1.5" points="615.96,-80.78 625.94,-77.24 615.93,-73.78 615.96,-80.78"/>
<text text-anchor="middle" x="563" y="-79.8" font-family="monospace" font-size="9.00">float16 inference</text>
</g>
<!-- gpu&#45;&gt;py -->
<g id="edge4" class="edge">
<title>gpu&#45;&gt;py</title>
<path fill="none" stroke="#ffff00" stroke-width="1.5" d="M625.58,-65.02C619.65,-64.2 613.72,-63.5 608,-63 568.15,-59.52 557.86,-59.68 518,-63 508.89,-63.76 499.31,-64.94 489.95,-66.32"/>
<polygon fill="#ffff00" stroke="#ffff00" stroke-width="1.5" points="489.25,-62.89 479.9,-67.88 490.32,-69.81 489.25,-62.89"/>
<text text-anchor="middle" x="563" y="-65.8" font-family="monospace" font-size="9.00">segments + words</text>
</g>
</g>
</svg>
