<?xml version="1.0" encoding="UTF-8" standalone="no"?>
<!DOCTYPE svg PUBLIC "-//W3C//DTD SVG 1.1//EN"
 "http://www.w3.org/Graphics/SVG/1.1/DTD/svg11.dtd">
<!-- Generated by graphviz version 2.43.0 (0)
 -->
<!-- Title: %3 Pages: 1 -->
<svg width="482pt" height="372pt"
 viewBox="0.00 0.00 481.50 372.00" xmlns="http://www.w3.org/2000/svg" xmlns:xlink="http://www.w3.org/1999/xlink">
<g id="graph0" class="graph" transform="scale(1 1) rotate(0) translate(4 368)">
<title>%3</title>
<polygon fill="#080818" stroke="transparent" points="-4,4 -4,-368 477.5,-368 477.5,4 -4,4"/>
<!-- vi -->
<g id="node1" class="node">
<title>vi</title>
<polygon fill="#001a00" stroke="#39ff14" stroke-width="2" points="312,-364 211,-364 211,-360 207,-360 207,-356 211,-356 211,-336 207,-336 207,-332 211,-332 211,-328 312,-328 312,-364"/>
<polyline fill="none" stroke="#39ff14" stroke-width="2" points="211,-360 215,-360 215,-356 211,-356 "/>
<polyline fill="none" stroke="#39ff14" stroke-width="2" points="211,-336 215,-336 215,-332 211,-332 "/>
<text text-anchor="middle" x="261.5" y="-343.5" font-family="monospace" font-size="10.00" fill="#39ff14">voice&#45;input.sh</text>
</g>
<!-- tr -->
<g id="node2" class="node">
<title>tr</title>
<polygon fill="#0a001a" stroke="#ff00ff" stroke-width="2" points="107,-282 12,-282 12,-278 8,-278 8,-274 12,-274 12,-254 8,-254 8,-250 12,-250 12,-246 107,-246 107,-282"/>
<polyline fill="none" stroke="#ff00ff" stroke-width="2" points="12,-278 16,-278 16,-274 12,-274 "/>
<polyline fill="none" stroke="#ff00ff" stroke-width="2" points="12,-254 16,-254 16,-250 12,-250 "/>
<text text-anchor="middle" x="59.5" y="-261.5" font-family="monospace" font-size="10.00" fill="#ff00ff">transcribe.py</text>
</g>
<!-- vi&#45;&gt;tr -->
<g id="edge3" class="edge">
<title>vi&#45;&gt;tr</title>
<path fill="none" stroke="#ff00ff" stroke-width="1.5" d="M210.8,-331.27C191.09,-325.42 168.49,-318.08 148.5,-310 132.02,-303.34 114.44,-294.78 99.29,-286.92"/>
<polygon fill="#ff00ff" stroke="#ff00ff" stroke-width="1.5" points="100.69,-283.7 90.21,-282.14 97.43,-289.89 100.69,-283.7"/>
<text text-anchor="middle" x="164.5" y="-302.8" font-family="monospace" font-size="9.00">invoke</text>
</g>
<!-- par -->
<g id="node5" class="node">
<title>par</title>
<polygon fill="#0a0a0a" stroke="#00aaff" stroke-width="2" points="179.5,-282 125.5,-282 125.5,-278 121.5,-278 121.5,-274 125.5,-274 125.5,-254 121.5,-254 121.5,-250 125.5,-250 125.5,-246 179.5,-246 179.5,-282"/>
<polyline fill="none" stroke="#00aaff" stroke-width="2" points="125.5,-278 129.5,-278 129.5,-274 125.5,-274 "/>
<polyline fill="none" stroke="#00aaff" stroke-width="2" points="125.5,-254 129.5,-254 129.5,-250 125.5,-250 "/>
<text text-anchor="middle" x="152.5" y="-261.5" font-family="monospace" font-size="10.00" fill="#00aaff">parec</text>
</g>
<!-- vi&#45;&gt;par -->
<g id="edge1" class="edge">
<title>vi&#45;&gt;par</title>
<path fill="none" stroke="#00aaff" stroke-width="1.5" d="M224.26,-327.92C214.52,-322.75 204.29,-316.65 195.5,-310 187.65,-304.06 179.95,-296.65 173.28,-289.57"/>
<polygon fill="#00aaff" stroke="#00aaff" stroke-width="1.5" points="175.8,-287.15 166.49,-282.1 170.62,-291.86 175.8,-287.15"/>
<text text-anchor="middle" x="214" y="-302.8" font-family="monospace" font-size="9.00">capture</text>
</g>
<!-- sox -->
<g id="node6" class="node">
<title>sox</title>
<polygon fill="#0a0a0a" stroke="#00aaff" stroke-width="2" points="251.5,-282 197.5,-282 197.5,-278 193.5,-278 193.5,-274 197.5,-274 197.5,-254 193.5,-254 193.5,-250 197.5,-250 197.5,-246 251.5,-246 251.5,-282"/>
<polyline fill="none" stroke="#00aaff" stroke-width="2" points="197.5,-278 201.5,-278 201.5,-274 197.5,-274 "/>
<polyline fill="none" stroke="#00aaff" stroke-width="2" points="197.5,-254 201.5,-254 201.5,-250 197.5,-250 "/>
<text text-anchor="middle" x="224.5" y="-261.5" font-family="monospace" font-size="10.00" fill="#00aaff">sox</text>
</g>
<!-- vi&#45;&gt;sox -->
<g id="edge2" class="edge">
<title>vi&#45;&gt;sox</title>
<path fill="none" stroke="#00aaff" stroke-width="1.5" d="M250.33,-327.93C246.93,-322.34 243.34,-316.02 240.5,-310 237.82,-304.33 235.33,-298.09 233.15,-292.1"/>
<polygon fill="#00aaff" stroke="#00aaff" stroke-width="1.5" points="236.38,-290.72 229.79,-282.42 229.76,-293.01 236.38,-290.72"/>
<text text-anchor="middle" x="259" y="-302.8" font-family="monospace" font-size="9.00">convert</text>
</g>
<!-- xdo -->
<g id="node7" class="node">
<title>xdo</title>
<polygon fill="#0a0a0a" stroke="#ffff00" stroke-width="2" points="329,-282 270,-282 270,-278 266,-278 266,-274 270,-274 270,-254 266,-254 266,-250 270,-250 270,-246 329,-246 329,-282"/>
<polyline fill="none" stroke="#ffff00" stroke-width="2" points="270,-278 274,-278 274,-274 270,-274 "/>
<polyline fill="none" stroke="#ffff00" stroke-width="2" points="270,-254 274,-254 274,-250 270,-250 "/>
<text text-anchor="middle" x="299.5" y="-261.5" font-family="monospace" font-size="10.00" fill="#ffff00">xdotool</text>
</g>
<!-- vi&#45;&gt;xdo -->
<g id="edge4" class="edge">
<title>vi&#45;&gt;xdo</title>
<path fill="none" stroke="#ffff00" stroke-width="1.5" d="M269.75,-327.64C274.81,-316.98 281.39,-303.12 287.08,-291.15"/>
<polygon fill="#ffff00" stroke="#ffff00" stroke-width="1.5" points="290.27,-292.58 291.4,-282.05 283.95,-289.58 290.27,-292.58"/>
<text text-anchor="middle" x="307.5" y="-302.8" font-family="monospace" font-size="9.00">type mode</text>
</g>
<!-- xcl -->
<g id="node8" class="node">
<title>xcl</title>
<polygon fill="#0a0a0a" stroke="#ffff00" stroke-width="2" points="401.5,-282 347.5,-282 347.5,-278 343.5,-278 343.5,-274 347.5,-274 347.5,-254 343.5,-254 343.5,-250 347.5,-250 347.5,-246 401.5,-246 401.5,-282"/>
<polyline fill="none" stroke="#ffff00" stroke-width="2" points="347.5,-278 351.5,-278 351.5,-274 347.5,-274 "/>
<polyline fill="none" stroke="#ffff00" stroke-width="2" points="347.5,-254 351.5,-254 351.5,-250 347.5,-250 "/>
<text text-anchor="middle" x="374.5" y="-261.5" font-family="monospace" font-size="10.00" fill="#ffff00">xclip</text>
</g>
<!-- vi&#45;&gt;xcl -->
<g id="edge5" class="edge">
<title>vi&#45;&gt;xcl</title>
<path fill="none" stroke="#ffff00" stroke-width="1.5" d="M305.5,-327.86C315.82,-322.87 326.44,-316.87 335.5,-310 342.84,-304.43 349.8,-297.28 355.75,-290.33"/>
<polygon fill="#ffff00" stroke="#ffff00" stroke-width="1.5" points="358.63,-292.34 362.23,-282.37 353.2,-287.92 358.63,-292.34"/>
<text text-anchor="middle" x="370.5" y="-302.8" font-family="monospace" font-size="9.00">clip mode</text>
</g>
<!-- pap -->
<g id="node9" class="node">
<title>pap</title>
<polygon fill="#0a0a0a" stroke="#00ffcc" stroke-width="2" points="473.5,-282 419.5,-282 419.5,-278 415.5,-278 415.5,-274 419.5,-274 419.5,-254 415.5,-254 415.5,-250 419.5,-250 419.5,-246 473.5,-246 473.5,-282"/>
<polyline fill="none" stroke="#00ffcc" stroke-width="2" points="419.5,-278 423.5,-278 423.5,-274 419.5,-274 "/>
<polyline fill="none" stroke="#00ffcc" stroke-width="2" points="419.5,-254 423.5,-254 423.5,-250 419.5,-250 "/>
<text text-anchor="middle" x="446.5" y="-261.5" font-family="monospace" font-size="10.00" fill="#00ffcc">paplay</text>
</g>
<!-- vi&#45;&gt;pap -->
<g id="edge6" class="edge">
<title>vi&#45;&gt;pap</title>
<path fill="none" stroke="#00ffcc" stroke-width="1.5" d="M312.25,-338.29C339.1,-333.24 371.92,-324.58 398.5,-310 408.11,-304.73 417.27,-297.08 424.95,-289.58"/>
<polygon fill="#00ffcc" stroke="#00ffcc" stroke-width="1.5" points="427.65,-291.83 432.11,-282.23 422.63,-286.95 427.65,-291.83"/>
<text text-anchor="middle" x="425" y="-302.8" font-family="monospace" font-size="9.00">beeps</text>
</g>
<!-- fw -->
<g id="node3" class="node">
<title>fw</title>
<polygon fill="#1a0a00" stroke="#ff6600" stroke-width="2" points="110,-200 9,-200 9,-196 5,-196 5,-192 9,-192 9,-172 5,-172 5,-168 9,-168 9,-164 110,-164 110,-200"/>
<polyline fill="none" stroke="#ff6600" stroke-width="2" points="9,-196 13,-196 13,-192 9,-192 "/>
<polyline fill="none" stroke="#ff6600" stroke-width="2" points="9,-172 13,-172 13,-168 9,-168 "/>
<text text-anchor="middle" x="59.5" y="-179.5" font-family="monospace" font-size="10.00" fill="#ff6600">faster&#45;whisper</text>
</g>
<!-- tr&#45;&gt;fw -->
<g id="edge7" class="edge">
<title>tr&#45;&gt;fw</title>
<path fill="none" stroke="#ff6600" stroke-width="1.5" d="M59.5,-245.64C59.5,-235.3 59.5,-221.94 59.5,-210.22"/>
<polygon fill="#ff6600" stroke="#ff6600" stroke-width="1.5" points="63,-210.05 59.5,-200.05 56,-210.05 63,-210.05"/>
<text text-anchor="middle" x="75.5" y="-220.8" font-family="monospace" font-size="9.00">import</text>
</g>
<!-- ct -->
<g id="node4" class="node">
<title>ct</title>
<polygon fill="#001a1a" stroke="#00ffff" stroke-width="2" points="101,-118 18,-118 18,-114 14,-114 14,-110 18,-110 18,-90 14,-90 14,-86 18,-86 18,-82 101,-82 101,-118"/>
<polyline fill="none" stroke="#00ffff" stroke-width="2" points="18,-114 22,-114 22,-110 18,-110 "/>
<polyline fill="none" stroke="#00ffff" stroke-width="2" points="18,-90 22,-90 22,-86 18,-86 "/>
<text text-anchor="middle" x="59.5" y="-97.5" font-family="monospace" font-size="10.00" fill="#00ffff">ctranslate2</text>
</g>
<!-- fw&#45;&gt;ct -->
<g id="edge8" class="edge">
<title>fw&#45;&gt;ct</title>
<path fill="none" stroke="#00ffff" stroke-width="1.5" d="M59.5,-163.64C59.5,-153.3 59.5,-139.94 59.5,-128.22"/>
<polygon fill="#00ffff" stroke="#00ffff" stroke-width="1.5" points="63,-128.05 59.5,-118.05 56,-128.05 63,-128.05"/>
<text text-anchor="middle" x="78" y="-138.8" font-family="monospace" font-size="9.00">backend</text>
</g>
<!-- cu -->
<g id="node10" class="node">
<title>cu</title>
<polygon fill="#1a0000" stroke="#ff2244" stroke-width="2" points="119,-36 0,-36 0,-32 -4,-32 -4,-28 0,-28 0,-8 -4,-8 -4,-4 0,-4 0,0 119,0 119,-36"/>
<polyline fill="none" stroke="#ff2244" stroke-width="2" points="0,-32 4,-32 4,-28 0,-28 "/>
<polyline fill="none" stroke="#ff2244" stroke-width="2" points="0,-8 4,-8 4,-4 0,-4 "/>
<text text-anchor="middle" x="59.5" y="-21" font-family="monospace" font-size="10.00" fill="#ff2244">libcublas.so.12</text>
<text text-anchor="middle" x="59.5" y="-10" font-family="monospace" font-size="10.00" fill="#ff2244">(/usr/lib/ollama)</text>
</g>
<!-- ct&#45;&gt;cu -->
<g id="edge9" class="edge">
<title>ct&#45;&gt;cu</title>
<path fill="none" stroke="#ff2244" stroke-width="1.5" d="M59.5,-81.64C59.5,-71.3 59.5,-57.94 59.5,-46.22"/>
<polygon fill="#ff2244" stroke="#ff2244" stroke-width="1.5" points="63,-46.05 59.5,-36.05 56,-46.05 63,-46.05"/>
<text text-anchor="middle" x="70.5" y="-56.8" font-family="monospace" font-size="9.00">CUDA</text>
</g>
</g>
</svg>
