<?xml version="1.0" encoding="UTF-8" standalone="no"?>
<!DOCTYPE svg PUBLIC "-//W3C//DTD SVG 1.1//EN"
 "http://www.w3.org/Graphics/SVG/1.1/DTD/svg11.dtd">
<!-- Generated by graphviz version 2.43.0 (0)
 -->
<!-- Title: %3 Pages: 1 -->
<svg width="295pt" height="404pt"
 viewBox="0.00 0.00 295.00 404.00" xmlns="http://www.w3.org/2000/svg" xmlns:xlink="http://www.w3.org/1999/xlink">
<g id="graph0" class="graph" transform="scale(1 1) rotate(0) translate(4 400)">
<title>%3</title>
<polygon fill="#0a0a1a" stroke="transparent" points="-4,4 -4,-400 291,-400 291,4 -4,4"/>
<!-- hw -->
<g id="node1" class="node">
<title>hw</title>
<polygon fill="#0a0015" stroke="#9900ff" stroke-width="2" points="245,-36 42,-36 42,0 245,0 245,-36"/>
<text text-anchor="middle" x="143.5" y="-21" font-family="monospace" font-size="10.00" fill="#9900ff">Hardware Layer</text>
<text text-anchor="middle" x="143.5" y="-10" font-family="monospace" font-size="10.00" fill="#9900ff">UC03 USB · NVIDIA RTX 3060/3080</text>
</g>
<!-- os -->
<g id="node2" class="node">
<title>os</title>
<polygon fill="#00000f" stroke="#00aaff" stroke-width="2" points="239,-108 48,-108 48,-72 239,-72 239,-108"/>
<text text-anchor="middle" x="143.5" y="-93" font-family="monospace" font-size="10.00" fill="#00aaff">OS / Kernel Layer</text>
<text text-anchor="middle" x="143.5" y="-82" font-family="monospace" font-size="10.00" fill="#00aaff">ALSA · PipeWire · CUDA Driver</text>
</g>
<!-- hw&#45;&gt;os -->
<g id="edge1" class="edge">
<title>hw&#45;&gt;os</title>
<path fill="none" stroke="#9900ff" stroke-width="1.5" stroke-dasharray="5,2" d="M143.5,-36.3C143.5,-44.02 143.5,-53.29 143.5,-61.89"/>
<polygon fill="#9900ff" stroke="#9900ff" stroke-width="1.5" points="140,-61.9 143.5,-71.9 147,-61.9 140,-61.9"/>
</g>
<!-- rt -->
<g id="node3" class="node">
<title>rt</title>
<polygon fill="#001020" stroke="#00ffff" stroke-width="2" points="260,-180 27,-180 27,-144 260,-144 260,-180"/>
<text text-anchor="middle" x="143.5" y="-165" font-family="monospace" font-size="10.00" fill="#00ffff">Runtime Layer</text>
<text text-anchor="middle" x="143.5" y="-154" font-family="monospace" font-size="10.00" fill="#00ffff">Bash · Python 3.13 · LD_LIBRARY_PATH</text>
</g>
<!-- os&#45;&gt;rt -->
<g id="edge2" class="edge">
<title>os&#45;&gt;rt</title>
<path fill="none" stroke="#00aaff" stroke-width="1.5" stroke-dasharray="5,2" d="M143.5,-108.3C143.5,-116.02 143.5,-125.29 143.5,-133.89"/>
<polygon fill="#00aaff" stroke="#00aaff" stroke-width="1.5" points="140,-133.9 143.5,-143.9 147,-133.9 140,-133.9"/>
</g>
<!-- ml -->
<g id="node4" class="node">
<title>ml</title>
<polygon fill="#0a0020" stroke="#ff00ff" stroke-width="2" points="287,-252 0,-252 0,-216 287,-216 287,-252"/>
<text text-anchor="middle" x="143.5" y="-237" font-family="monospace" font-size="10.00" fill="#ff00ff">ML Layer</text>
<text text-anchor="middle" x="143.5" y="-226" font-family="monospace" font-size="10.00" fill="#ff00ff">faster&#45;whisper · ctranslate2 · Whisper medium</text>
</g>
<!-- rt&#45;&gt;ml -->
<g id="edge3" class="edge">
<title>rt&#45;&gt;ml</title>
<path fill="none" stroke="#00ffff" stroke-width="1.5" stroke-dasharray="5,2" d="M143.5,-180.3C143.5,-188.02 143.5,-197.29 143.5,-205.89"/>
<polygon fill="#00ffff" stroke="#00ffff" stroke-width="1.5" points="140,-205.9 143.5,-215.9 147,-205.9 140,-205.9"/>
</g>
<!-- app -->
<g id="node5" class="node">
<title>app</title>
<polygon fill="#001500" stroke="#39ff14" stroke-width="2" points="242,-324 45,-324 45,-288 242,-288 242,-324"/>
<text text-anchor="middle" x="143.5" y="-309" font-family="monospace" font-size="10.00" fill="#39ff14">Application Layer</text>
<text text-anchor="middle" x="143.5" y="-298" font-family="monospace" font-size="10.00" fill="#39ff14">voice&#45;input.sh · transcribe.py</text>
</g>
<!-- ml&#45;&gt;app -->
<g id="edge4" class="edge">
<title>ml&#45;&gt;app</title>
<path fill="none" stroke="#ff00ff" stroke-width="1.5" stroke-dasharray="5,2" d="M143.5,-252.3C143.5,-260.02 143.5,-269.29 143.5,-277.89"/>
<polygon fill="#ff00ff" stroke="#ff00ff" stroke-width="1.5" points="140,-277.9 143.5,-287.9 147,-277.9 140,-277.9"/>
</g>
<!-- ux -->
<g id="node6" class="node">
<title>ux</title>
<polygon fill="#150000" stroke="#ff6600" stroke-width="2" points="278,-396 9,-396 9,-360 278,-360 278,-396"/>
<text text-anchor="middle" x="143.5" y="-381" font-family="monospace" font-size="10.00" fill="#ff6600">UX Layer</text>
<text text-anchor="middle" x="143.5" y="-370" font-family="monospace" font-size="10.00" fill="#ff6600">Terminal · xdotool · xclip · Beep feedback</text>
</g>
<!-- app&#45;&gt;ux -->
<g id="edge5" class="edge">
<title>app&#45;&gt;ux</title>
<path fill="none" stroke="#39ff14" stroke-width="1.5" stroke-dasharray="5,2" d="M143.5,-324.3C143.5,-332.02 143.5,-341.29 143.5,-349.89"/>
<polygon fill="#39ff14" stroke="#39ff14" stroke-width="1.5" points="140,-349.9 143.5,-359.9 147,-349.9 140,-349.9"/>
</g>
</g>
</svg>
